%TF.GenerationSoftware,KiCad,Pcbnew,8.0.7-8.0.7-0~ubuntu22.04.1*%
%TF.CreationDate,2025-01-12T13:00:57-08:00*%
%TF.ProjectId,multichannelheaterdriver_mcu,6d756c74-6963-4686-916e-6e656c686561,rev?*%
%TF.SameCoordinates,Original*%
%TF.FileFunction,Copper,L2,Bot*%
%TF.FilePolarity,Positive*%
%FSLAX46Y46*%
G04 Gerber Fmt 4.6, Leading zero omitted, Abs format (unit mm)*
G04 Created by KiCad (PCBNEW 8.0.7-8.0.7-0~ubuntu22.04.1) date 2025-01-12 13:00:57*
%MOMM*%
%LPD*%
G01*
G04 APERTURE LIST*
%TA.AperFunction,ComponentPad*%
%ADD10C,2.100000*%
%TD*%
%TA.AperFunction,ComponentPad*%
%ADD11C,1.750000*%
%TD*%
%TA.AperFunction,ComponentPad*%
%ADD12R,1.700000X1.700000*%
%TD*%
%TA.AperFunction,ComponentPad*%
%ADD13O,1.700000X1.700000*%
%TD*%
%TA.AperFunction,ComponentPad*%
%ADD14C,6.400000*%
%TD*%
%TA.AperFunction,ViaPad*%
%ADD15C,0.600000*%
%TD*%
%TA.AperFunction,Conductor*%
%ADD16C,0.200000*%
%TD*%
G04 APERTURE END LIST*
D10*
%TO.P,SW2,*%
%TO.N,*%
X95937500Y-32670000D03*
X95937500Y-39680000D03*
D11*
%TO.P,SW2,1,A*%
%TO.N,/SW2*%
X98427500Y-33920000D03*
%TO.P,SW2,2,B*%
%TO.N,+3V3*%
X98427500Y-38420000D03*
%TD*%
D12*
%TO.P,J1,1,Pin_1*%
%TO.N,/~{RESET}*%
X5080000Y-50800000D03*
D13*
%TO.P,J1,2,Pin_2*%
%TO.N,/SDO*%
X5080000Y-53340000D03*
%TO.P,J1,3,Pin_3*%
%TO.N,/SDI*%
X5080000Y-55880000D03*
%TO.P,J1,4,Pin_4*%
%TO.N,/SCLK*%
X5080000Y-58420000D03*
%TO.P,J1,5,Pin_5*%
%TO.N,/~{CS}*%
X5080000Y-60960000D03*
%TO.P,J1,6,Pin_6*%
%TO.N,GND*%
X5080000Y-63500000D03*
%TO.P,J1,7,Pin_7*%
%TO.N,unconnected-(J1-Pin_7-Pad7)*%
X5080000Y-66040000D03*
%TO.P,J1,8,Pin_8*%
%TO.N,+5V*%
X5080000Y-68580000D03*
%TO.P,J1,9,Pin_9*%
%TO.N,/GPIO0{slash}~{ALARMIN}*%
X5080000Y-71120000D03*
%TO.P,J1,10,Pin_10*%
%TO.N,/GPIO1{slash}~{ALARMOUT}*%
X5080000Y-73660000D03*
%TO.P,J1,11,Pin_11*%
%TO.N,/GPIO2{slash}~{ADCTRIG}*%
X5080000Y-76200000D03*
%TO.P,J1,12,Pin_12*%
%TO.N,/GPIO3{slash}~{DAV}*%
X5080000Y-78740000D03*
%TD*%
D10*
%TO.P,SW3,*%
%TO.N,*%
X95937500Y-47910000D03*
X95937500Y-54920000D03*
D11*
%TO.P,SW3,1,A*%
%TO.N,/SW3*%
X98427500Y-49160000D03*
%TO.P,SW3,2,B*%
%TO.N,+3V3*%
X98427500Y-53660000D03*
%TD*%
D14*
%TO.P,H2,1,1*%
%TO.N,GND*%
X5080000Y-96520000D03*
%TD*%
D10*
%TO.P,SW1,*%
%TO.N,*%
X95937500Y-18020000D03*
X95937500Y-25030000D03*
D11*
%TO.P,SW1,1,A*%
%TO.N,/SW1*%
X98427500Y-19270000D03*
%TO.P,SW1,2,B*%
%TO.N,+3V3*%
X98427500Y-23770000D03*
%TD*%
D12*
%TO.P,J3,1,Pin_1*%
%TO.N,/ADC0*%
X71882000Y-13208000D03*
D13*
%TO.P,J3,2,Pin_2*%
%TO.N,GND*%
X71882000Y-10668000D03*
%TO.P,J3,3,Pin_3*%
%TO.N,/ADC1*%
X74422000Y-13208000D03*
%TO.P,J3,4,Pin_4*%
%TO.N,GND*%
X74422000Y-10668000D03*
%TO.P,J3,5,Pin_5*%
%TO.N,/ADC2*%
X76962000Y-13208000D03*
%TO.P,J3,6,Pin_6*%
%TO.N,GND*%
X76962000Y-10668000D03*
%TD*%
D12*
%TO.P,J2,1,Pin_1*%
%TO.N,/SPI1_SCK_I2C1_SDA_GP10*%
X47752000Y-13208000D03*
D13*
%TO.P,J2,2,Pin_2*%
%TO.N,GND*%
X47752000Y-10668000D03*
%TO.P,J2,3,Pin_3*%
%TO.N,/SPI1_TX_I2C1_SCL_GP11*%
X50292000Y-13208000D03*
%TO.P,J2,4,Pin_4*%
%TO.N,GND*%
X50292000Y-10668000D03*
%TO.P,J2,5,Pin_5*%
%TO.N,/UART0_TX_SPI1_RX_I2C0_SDA_GP12*%
X52832000Y-13208000D03*
%TO.P,J2,6,Pin_6*%
%TO.N,GND*%
X52832000Y-10668000D03*
%TO.P,J2,7,Pin_7*%
%TO.N,/UART0_RX_SPI1_CS_I2C0_SCL_GP13*%
X55372000Y-13208000D03*
%TO.P,J2,8,Pin_8*%
%TO.N,GND*%
X55372000Y-10668000D03*
%TO.P,J2,9,Pin_9*%
%TO.N,/SPI1_SCK_I2C1_SDA_GP14*%
X57912000Y-13208000D03*
%TO.P,J2,10,Pin_10*%
%TO.N,GND*%
X57912000Y-10668000D03*
%TO.P,J2,11,Pin_11*%
%TO.N,/SPI1_TX_I2C1_SCL_GP15*%
X60452000Y-13208000D03*
%TO.P,J2,12,Pin_12*%
%TO.N,GND*%
X60452000Y-10668000D03*
%TD*%
%TO.P,U1,1,GPIO0*%
%TO.N,/~{RESET}*%
X17780000Y-2032000D03*
%TO.P,U1,2,GPIO1*%
%TO.N,/~{CS}*%
X17780000Y-4572000D03*
D12*
%TO.P,U1,3,GND*%
%TO.N,GND*%
X17780000Y-7112000D03*
D13*
%TO.P,U1,4,GPIO2*%
%TO.N,/SCLK*%
X17780000Y-9652000D03*
%TO.P,U1,5,GPIO3*%
%TO.N,/SDI*%
X17780000Y-12192000D03*
%TO.P,U1,6,GPIO4*%
%TO.N,/SDO*%
X17780000Y-14732000D03*
%TO.P,U1,7,GPIO5*%
%TO.N,/GPIO0{slash}~{ALARMIN}*%
X17780000Y-17272000D03*
D12*
%TO.P,U1,8,GND*%
%TO.N,GND*%
X17780000Y-19812000D03*
D13*
%TO.P,U1,9,GPIO6*%
%TO.N,/GPIO1{slash}~{ALARMOUT}*%
X17780000Y-22352000D03*
%TO.P,U1,10,GPIO7*%
%TO.N,/GPIO2{slash}~{ADCTRIG}*%
X17780000Y-24892000D03*
%TO.P,U1,11,GPIO8*%
%TO.N,/GPIO3{slash}~{DAV}*%
X17780000Y-27432000D03*
%TO.P,U1,12,GPIO9*%
%TO.N,unconnected-(U1-GPIO9-Pad12)_1*%
X17780000Y-29972000D03*
D12*
%TO.P,U1,13,GND*%
%TO.N,GND*%
X17780000Y-32512000D03*
D13*
%TO.P,U1,14,GPIO10*%
%TO.N,/SPI1_SCK_I2C1_SDA_GP10*%
X17780000Y-35052000D03*
%TO.P,U1,15,GPIO11*%
%TO.N,/SPI1_TX_I2C1_SCL_GP11*%
X17780000Y-37592000D03*
%TO.P,U1,16,GPIO12*%
%TO.N,/UART0_TX_SPI1_RX_I2C0_SDA_GP12*%
X17780000Y-40132000D03*
%TO.P,U1,17,GPIO13*%
%TO.N,/UART0_RX_SPI1_CS_I2C0_SCL_GP13*%
X17780000Y-42672000D03*
D12*
%TO.P,U1,18,GND*%
%TO.N,GND*%
X17780000Y-45212000D03*
D13*
%TO.P,U1,19,GPIO14*%
%TO.N,/SPI1_SCK_I2C1_SDA_GP14*%
X17780000Y-47752000D03*
%TO.P,U1,20,GPIO15*%
%TO.N,/SPI1_TX_I2C1_SCL_GP15*%
X17780000Y-50292000D03*
%TO.P,U1,21,GPIO16*%
%TO.N,Net-(U1-GPIO16)*%
X35560000Y-50292000D03*
%TO.P,U1,22,GPIO17*%
%TO.N,Net-(U1-GPIO17)*%
X35560000Y-47752000D03*
D12*
%TO.P,U1,23,GND*%
%TO.N,GND*%
X35560000Y-45212000D03*
D13*
%TO.P,U1,24,GPIO18*%
%TO.N,Net-(U1-GPIO18)*%
X35560000Y-42672000D03*
%TO.P,U1,25,GPIO19*%
%TO.N,Net-(U1-GPIO19)*%
X35560000Y-40132000D03*
%TO.P,U1,26,GPIO20*%
%TO.N,/SW3*%
X35560000Y-37592000D03*
%TO.P,U1,27,GPIO21*%
%TO.N,/SW2*%
X35560000Y-35052000D03*
D12*
%TO.P,U1,28,GND*%
%TO.N,GND*%
X35560000Y-32512000D03*
D13*
%TO.P,U1,29,GPIO22*%
%TO.N,/SW1*%
X35560000Y-29972000D03*
%TO.P,U1,30,RUN*%
%TO.N,unconnected-(U1-RUN-Pad30)_1*%
X35560000Y-27432000D03*
%TO.P,U1,31,GPIO26_ADC0*%
%TO.N,/ADC0*%
X35560000Y-24892000D03*
%TO.P,U1,32,GPIO27_ADC1*%
%TO.N,/ADC1*%
X35560000Y-22352000D03*
D12*
%TO.P,U1,33,AGND*%
%TO.N,GND*%
X35560000Y-19812000D03*
D13*
%TO.P,U1,34,GPIO28_ADC2*%
%TO.N,/ADC2*%
X35560000Y-17272000D03*
%TO.P,U1,35,ADC_VREF*%
%TO.N,unconnected-(U1-ADC_VREF-Pad35)_1*%
X35560000Y-14732000D03*
%TO.P,U1,36,3V3*%
%TO.N,+3V3*%
X35560000Y-12192000D03*
%TO.P,U1,37,3V3_EN*%
%TO.N,unconnected-(U1-3V3_EN-Pad37)_1*%
X35560000Y-9652000D03*
D12*
%TO.P,U1,38,GND*%
%TO.N,GND*%
X35560000Y-7112000D03*
D13*
%TO.P,U1,39,VSYS*%
%TO.N,Net-(D1-K)*%
X35560000Y-4572000D03*
%TO.P,U1,40,VBUS*%
%TO.N,unconnected-(U1-VBUS-Pad40)_1*%
X35560000Y-2032000D03*
%TO.P,U1,41,SWCLK*%
%TO.N,unconnected-(U1-SWCLK-Pad41)*%
X24130000Y-50062000D03*
D12*
%TO.P,U1,42,GND*%
%TO.N,unconnected-(U1-GND-Pad42)_1*%
X26670000Y-50062000D03*
D13*
%TO.P,U1,43,SWDIO*%
%TO.N,unconnected-(U1-SWDIO-Pad43)_1*%
X29210000Y-50062000D03*
%TD*%
D14*
%TO.P,H3,1,1*%
%TO.N,GND*%
X96520000Y-5080000D03*
%TD*%
%TO.P,H1,1,1*%
%TO.N,GND*%
X5080000Y-5080000D03*
%TD*%
%TO.P,H4,1,1*%
%TO.N,GND*%
X96520000Y-96520000D03*
%TD*%
D15*
%TO.N,GND*%
X2540000Y-22860000D03*
X99568000Y-71374000D03*
X99314000Y-78486000D03*
X4318000Y-33528000D03*
X91440000Y-23876000D03*
X99568000Y-64262000D03*
X2540000Y-17780000D03*
X91694000Y-53594000D03*
X91440000Y-38862000D03*
X99568000Y-85090000D03*
%TD*%
D16*
%TO.N,/GPIO0{slash}~{ALARMIN}*%
X1270000Y-67310000D02*
X1270000Y-21590000D01*
X5080000Y-17780000D02*
X17272000Y-17780000D01*
X17272000Y-17780000D02*
X17780000Y-17272000D01*
X5080000Y-71120000D02*
X1270000Y-67310000D01*
X1270000Y-21590000D02*
X5080000Y-17780000D01*
%TO.N,/GPIO3{slash}~{DAV}*%
X3924314Y-64890000D02*
X2940000Y-63905686D01*
X5080000Y-78740000D02*
X7030000Y-76790000D01*
X2940000Y-32620000D02*
X7620000Y-27940000D01*
X5556346Y-64890000D02*
X3924314Y-64890000D01*
X7030000Y-76790000D02*
X7030000Y-66363654D01*
X17272000Y-27940000D02*
X17780000Y-27432000D01*
X2940000Y-63905686D02*
X2940000Y-32620000D01*
X7620000Y-27940000D02*
X17272000Y-27940000D01*
X7030000Y-66363654D02*
X5556346Y-64890000D01*
%TO.N,/GPIO1{slash}~{ALARMOUT}*%
X1670000Y-26270000D02*
X5588000Y-22352000D01*
X1670000Y-66796346D02*
X1670000Y-26270000D01*
X6230000Y-72510000D02*
X6230000Y-70643654D01*
X5588000Y-22352000D02*
X17780000Y-22352000D01*
X5316346Y-69730000D02*
X4603654Y-69730000D01*
X6230000Y-70643654D02*
X5316346Y-69730000D01*
X5080000Y-73660000D02*
X6230000Y-72510000D01*
X4603654Y-69730000D02*
X1670000Y-66796346D01*
%TO.N,/GPIO2{slash}~{ADCTRIG}*%
X5080000Y-76200000D02*
X6630000Y-74650000D01*
X2540000Y-29210000D02*
X6858000Y-24892000D01*
X6858000Y-24892000D02*
X17780000Y-24892000D01*
X6630000Y-68503654D02*
X5316346Y-67190000D01*
X3690000Y-67190000D02*
X2540000Y-66040000D01*
X5316346Y-67190000D02*
X3690000Y-67190000D01*
X6630000Y-74650000D02*
X6630000Y-68503654D01*
X2540000Y-66040000D02*
X2540000Y-29210000D01*
%TO.N,/SPI1_SCK_I2C1_SDA_GP14*%
X17780000Y-47752000D02*
X23876000Y-41656000D01*
X28314000Y-23502000D02*
X47618000Y-23502000D01*
X47618000Y-23502000D02*
X57912000Y-13208000D01*
X23876000Y-41656000D02*
X23876000Y-27940000D01*
X23876000Y-27940000D02*
X28314000Y-23502000D01*
%TO.N,/SPI1_SCK_I2C1_SDA_GP10*%
X17780000Y-35052000D02*
X20656827Y-32175173D01*
X20656827Y-32175173D02*
X20656827Y-26841173D01*
X47618000Y-13342000D02*
X47752000Y-13208000D01*
X20656827Y-26841173D02*
X34156000Y-13342000D01*
X34156000Y-13342000D02*
X47618000Y-13342000D01*
%TO.N,/SPI1_TX_I2C1_SCL_GP15*%
X26670000Y-26162000D02*
X47498000Y-26162000D01*
X17780000Y-50292000D02*
X26416000Y-41656000D01*
X47498000Y-26162000D02*
X60452000Y-13208000D01*
X26416000Y-41656000D02*
X26416000Y-26416000D01*
X26416000Y-26416000D02*
X26670000Y-26162000D01*
%TO.N,/UART0_TX_SPI1_RX_I2C0_SDA_GP12*%
X22098000Y-35814000D02*
X22098000Y-27432000D01*
X31108000Y-18422000D02*
X47618000Y-18422000D01*
X47618000Y-18422000D02*
X52832000Y-13208000D01*
X17780000Y-40132000D02*
X22098000Y-35814000D01*
X22098000Y-27432000D02*
X31108000Y-18422000D01*
%TO.N,/SPI1_TX_I2C1_SCL_GP11*%
X47618000Y-15882000D02*
X50292000Y-13208000D01*
X21336000Y-34036000D02*
X21336000Y-27178000D01*
X32632000Y-15882000D02*
X47618000Y-15882000D01*
X21336000Y-27178000D02*
X32632000Y-15882000D01*
X17780000Y-37592000D02*
X21336000Y-34036000D01*
%TO.N,/UART0_RX_SPI1_CS_I2C0_SCL_GP13*%
X47618000Y-20962000D02*
X55372000Y-13208000D01*
X22860000Y-27686000D02*
X29584000Y-20962000D01*
X22860000Y-37592000D02*
X22860000Y-27686000D01*
X17780000Y-42672000D02*
X22860000Y-37592000D01*
X29584000Y-20962000D02*
X47618000Y-20962000D01*
%TD*%
%TA.AperFunction,Conductor*%
%TO.N,GND*%
G36*
X73956075Y-10475007D02*
G01*
X73922000Y-10602174D01*
X73922000Y-10733826D01*
X73956075Y-10860993D01*
X73988988Y-10918000D01*
X72315012Y-10918000D01*
X72347925Y-10860993D01*
X72382000Y-10733826D01*
X72382000Y-10602174D01*
X72347925Y-10475007D01*
X72315012Y-10418000D01*
X73988988Y-10418000D01*
X73956075Y-10475007D01*
G37*
%TD.AperFunction*%
%TA.AperFunction,Conductor*%
G36*
X76496075Y-10475007D02*
G01*
X76462000Y-10602174D01*
X76462000Y-10733826D01*
X76496075Y-10860993D01*
X76528988Y-10918000D01*
X74855012Y-10918000D01*
X74887925Y-10860993D01*
X74922000Y-10733826D01*
X74922000Y-10602174D01*
X74887925Y-10475007D01*
X74855012Y-10418000D01*
X76528988Y-10418000D01*
X76496075Y-10475007D01*
G37*
%TD.AperFunction*%
%TA.AperFunction,Conductor*%
G36*
X101042539Y-520185D02*
G01*
X101088294Y-572989D01*
X101099500Y-624500D01*
X101099500Y-100975500D01*
X101079815Y-101042539D01*
X101027011Y-101088294D01*
X100975500Y-101099500D01*
X624500Y-101099500D01*
X557461Y-101079815D01*
X511706Y-101027011D01*
X500500Y-100975500D01*
X500500Y-96519999D01*
X1374922Y-96519999D01*
X1374922Y-96520000D01*
X1395219Y-96907287D01*
X1455886Y-97290323D01*
X1455887Y-97290330D01*
X1556262Y-97664936D01*
X1695244Y-98026994D01*
X1871310Y-98372543D01*
X2082523Y-98697783D01*
X2082525Y-98697785D01*
X2291096Y-98955348D01*
X3785747Y-97460697D01*
X3859588Y-97562330D01*
X4037670Y-97740412D01*
X4139301Y-97814251D01*
X2644650Y-99308902D01*
X2902214Y-99517475D01*
X2902216Y-99517476D01*
X3227456Y-99728689D01*
X3573005Y-99904755D01*
X3935063Y-100043737D01*
X4309669Y-100144112D01*
X4309676Y-100144113D01*
X4692712Y-100204780D01*
X5079999Y-100225078D01*
X5080001Y-100225078D01*
X5467287Y-100204780D01*
X5850323Y-100144113D01*
X5850330Y-100144112D01*
X6224936Y-100043737D01*
X6586994Y-99904755D01*
X6932543Y-99728689D01*
X7257771Y-99517484D01*
X7257784Y-99517474D01*
X7515348Y-99308902D01*
X6020698Y-97814252D01*
X6122330Y-97740412D01*
X6300412Y-97562330D01*
X6374252Y-97460698D01*
X7868902Y-98955348D01*
X8077474Y-98697784D01*
X8077484Y-98697771D01*
X8288689Y-98372543D01*
X8464755Y-98026994D01*
X8603737Y-97664936D01*
X8704112Y-97290330D01*
X8704113Y-97290323D01*
X8764780Y-96907287D01*
X8785078Y-96520000D01*
X8785078Y-96519999D01*
X92814922Y-96519999D01*
X92814922Y-96520000D01*
X92835219Y-96907287D01*
X92895886Y-97290323D01*
X92895887Y-97290330D01*
X92996262Y-97664936D01*
X93135244Y-98026994D01*
X93311310Y-98372543D01*
X93522523Y-98697783D01*
X93522525Y-98697785D01*
X93731096Y-98955348D01*
X95225747Y-97460697D01*
X95299588Y-97562330D01*
X95477670Y-97740412D01*
X95579301Y-97814251D01*
X94084650Y-99308902D01*
X94342214Y-99517475D01*
X94342216Y-99517476D01*
X94667456Y-99728689D01*
X95013005Y-99904755D01*
X95375063Y-100043737D01*
X95749669Y-100144112D01*
X95749676Y-100144113D01*
X96132712Y-100204780D01*
X96519999Y-100225078D01*
X96520001Y-100225078D01*
X96907287Y-100204780D01*
X97290323Y-100144113D01*
X97290330Y-100144112D01*
X97664936Y-100043737D01*
X98026994Y-99904755D01*
X98372543Y-99728689D01*
X98697771Y-99517484D01*
X98697784Y-99517474D01*
X98955348Y-99308902D01*
X97460698Y-97814252D01*
X97562330Y-97740412D01*
X97740412Y-97562330D01*
X97814252Y-97460698D01*
X99308902Y-98955348D01*
X99517474Y-98697784D01*
X99517484Y-98697771D01*
X99728689Y-98372543D01*
X99904755Y-98026994D01*
X100043737Y-97664936D01*
X100144112Y-97290330D01*
X100144113Y-97290323D01*
X100204780Y-96907287D01*
X100225078Y-96520000D01*
X100225078Y-96519999D01*
X100204780Y-96132712D01*
X100144113Y-95749676D01*
X100144112Y-95749669D01*
X100043737Y-95375063D01*
X99904755Y-95013005D01*
X99728689Y-94667456D01*
X99517476Y-94342216D01*
X99517475Y-94342214D01*
X99308902Y-94084650D01*
X97814251Y-95579301D01*
X97740412Y-95477670D01*
X97562330Y-95299588D01*
X97460698Y-95225748D01*
X98955349Y-93731096D01*
X98697785Y-93522525D01*
X98697783Y-93522523D01*
X98372543Y-93311310D01*
X98026994Y-93135244D01*
X97664936Y-92996262D01*
X97290330Y-92895887D01*
X97290323Y-92895886D01*
X96907287Y-92835219D01*
X96520001Y-92814922D01*
X96519999Y-92814922D01*
X96132712Y-92835219D01*
X95749676Y-92895886D01*
X95749669Y-92895887D01*
X95375063Y-92996262D01*
X95013005Y-93135244D01*
X94667456Y-93311310D01*
X94342206Y-93522531D01*
X94084649Y-93731095D01*
X94084649Y-93731096D01*
X95579301Y-95225748D01*
X95477670Y-95299588D01*
X95299588Y-95477670D01*
X95225748Y-95579301D01*
X93731096Y-94084649D01*
X93731095Y-94084649D01*
X93522531Y-94342206D01*
X93311310Y-94667456D01*
X93135244Y-95013005D01*
X92996262Y-95375063D01*
X92895887Y-95749669D01*
X92895886Y-95749676D01*
X92835219Y-96132712D01*
X92814922Y-96519999D01*
X8785078Y-96519999D01*
X8764780Y-96132712D01*
X8704113Y-95749676D01*
X8704112Y-95749669D01*
X8603737Y-95375063D01*
X8464755Y-95013005D01*
X8288689Y-94667456D01*
X8077476Y-94342216D01*
X8077475Y-94342214D01*
X7868902Y-94084650D01*
X6374251Y-95579301D01*
X6300412Y-95477670D01*
X6122330Y-95299588D01*
X6020698Y-95225748D01*
X7515349Y-93731096D01*
X7257785Y-93522525D01*
X7257783Y-93522523D01*
X6932543Y-93311310D01*
X6586994Y-93135244D01*
X6224936Y-92996262D01*
X5850330Y-92895887D01*
X5850323Y-92895886D01*
X5467287Y-92835219D01*
X5080001Y-92814922D01*
X5079999Y-92814922D01*
X4692712Y-92835219D01*
X4309676Y-92895886D01*
X4309669Y-92895887D01*
X3935063Y-92996262D01*
X3573005Y-93135244D01*
X3227456Y-93311310D01*
X2902206Y-93522531D01*
X2644649Y-93731095D01*
X2644649Y-93731096D01*
X4139301Y-95225748D01*
X4037670Y-95299588D01*
X3859588Y-95477670D01*
X3785748Y-95579301D01*
X2291096Y-94084649D01*
X2291095Y-94084649D01*
X2082531Y-94342206D01*
X1871310Y-94667456D01*
X1695244Y-95013005D01*
X1556262Y-95375063D01*
X1455887Y-95749669D01*
X1455886Y-95749676D01*
X1395219Y-96132712D01*
X1374922Y-96519999D01*
X500500Y-96519999D01*
X500500Y-67640962D01*
X520185Y-67573923D01*
X572989Y-67528168D01*
X642147Y-67518224D01*
X705703Y-67547249D01*
X731904Y-67578991D01*
X732198Y-67579501D01*
X789475Y-67678709D01*
X789481Y-67678717D01*
X908349Y-67797585D01*
X908355Y-67797590D01*
X3747233Y-70636469D01*
X3780718Y-70697792D01*
X3779327Y-70756243D01*
X3744938Y-70884586D01*
X3744936Y-70884596D01*
X3724341Y-71119999D01*
X3724341Y-71120000D01*
X3744936Y-71355403D01*
X3744938Y-71355413D01*
X3806094Y-71583655D01*
X3806096Y-71583659D01*
X3806097Y-71583663D01*
X3905965Y-71797830D01*
X3905967Y-71797834D01*
X4041501Y-71991395D01*
X4041506Y-71991402D01*
X4208597Y-72158493D01*
X4208603Y-72158498D01*
X4394158Y-72288425D01*
X4437783Y-72343002D01*
X4444977Y-72412500D01*
X4413454Y-72474855D01*
X4394158Y-72491575D01*
X4208597Y-72621505D01*
X4041505Y-72788597D01*
X3905965Y-72982169D01*
X3905964Y-72982171D01*
X3806098Y-73196335D01*
X3806094Y-73196344D01*
X3744938Y-73424586D01*
X3744936Y-73424596D01*
X3724341Y-73659999D01*
X3724341Y-73660000D01*
X3744936Y-73895403D01*
X3744938Y-73895413D01*
X3806094Y-74123655D01*
X3806096Y-74123659D01*
X3806097Y-74123663D01*
X3905965Y-74337830D01*
X3905967Y-74337834D01*
X4041501Y-74531395D01*
X4041506Y-74531402D01*
X4208597Y-74698493D01*
X4208603Y-74698498D01*
X4394158Y-74828425D01*
X4437783Y-74883002D01*
X4444977Y-74952500D01*
X4413454Y-75014855D01*
X4394158Y-75031575D01*
X4208597Y-75161505D01*
X4041505Y-75328597D01*
X3905965Y-75522169D01*
X3905964Y-75522171D01*
X3806098Y-75736335D01*
X3806094Y-75736344D01*
X3744938Y-75964586D01*
X3744936Y-75964596D01*
X3724341Y-76199999D01*
X3724341Y-76200000D01*
X3744936Y-76435403D01*
X3744938Y-76435413D01*
X3806094Y-76663655D01*
X3806096Y-76663659D01*
X3806097Y-76663663D01*
X3901873Y-76869055D01*
X3905965Y-76877830D01*
X3905967Y-76877834D01*
X4041501Y-77071395D01*
X4041506Y-77071402D01*
X4208597Y-77238493D01*
X4208603Y-77238498D01*
X4394158Y-77368425D01*
X4437783Y-77423002D01*
X4444977Y-77492500D01*
X4413454Y-77554855D01*
X4394158Y-77571575D01*
X4208597Y-77701505D01*
X4041505Y-77868597D01*
X3905965Y-78062169D01*
X3905964Y-78062171D01*
X3806098Y-78276335D01*
X3806094Y-78276344D01*
X3744938Y-78504586D01*
X3744936Y-78504596D01*
X3724341Y-78739999D01*
X3724341Y-78740000D01*
X3744936Y-78975403D01*
X3744938Y-78975413D01*
X3806094Y-79203655D01*
X3806096Y-79203659D01*
X3806097Y-79203663D01*
X3905965Y-79417830D01*
X3905967Y-79417834D01*
X4014281Y-79572521D01*
X4041505Y-79611401D01*
X4208599Y-79778495D01*
X4305384Y-79846265D01*
X4402165Y-79914032D01*
X4402167Y-79914033D01*
X4402170Y-79914035D01*
X4616337Y-80013903D01*
X4844592Y-80075063D01*
X5032918Y-80091539D01*
X5079999Y-80095659D01*
X5080000Y-80095659D01*
X5080001Y-80095659D01*
X5119234Y-80092226D01*
X5315408Y-80075063D01*
X5543663Y-80013903D01*
X5757830Y-79914035D01*
X5951401Y-79778495D01*
X6118495Y-79611401D01*
X6254035Y-79417830D01*
X6353903Y-79203663D01*
X6415063Y-78975408D01*
X6435659Y-78740000D01*
X6415063Y-78504592D01*
X6380671Y-78376239D01*
X6382334Y-78306393D01*
X6412763Y-78256470D01*
X7388506Y-77280728D01*
X7388511Y-77280724D01*
X7398714Y-77270520D01*
X7398716Y-77270520D01*
X7510520Y-77158716D01*
X7589577Y-77021784D01*
X7630500Y-76869057D01*
X7630500Y-66284597D01*
X7589577Y-66131870D01*
X7536540Y-66040006D01*
X7510524Y-65994944D01*
X7510521Y-65994940D01*
X7510520Y-65994938D01*
X7398716Y-65883134D01*
X7398715Y-65883133D01*
X7394385Y-65878803D01*
X7394374Y-65878793D01*
X6090065Y-64574484D01*
X6056580Y-64513161D01*
X6061564Y-64443469D01*
X6090066Y-64399120D01*
X6118108Y-64371078D01*
X6253600Y-64177578D01*
X6353429Y-63963492D01*
X6353432Y-63963486D01*
X6410636Y-63750000D01*
X5513012Y-63750000D01*
X5545925Y-63692993D01*
X5580000Y-63565826D01*
X5580000Y-63434174D01*
X5545925Y-63307007D01*
X5513012Y-63250000D01*
X6410636Y-63250000D01*
X6410635Y-63249999D01*
X6353432Y-63036513D01*
X6353429Y-63036507D01*
X6253600Y-62822422D01*
X6253599Y-62822420D01*
X6118113Y-62628926D01*
X6118108Y-62628920D01*
X5951078Y-62461890D01*
X5765405Y-62331879D01*
X5721780Y-62277302D01*
X5714588Y-62207804D01*
X5746110Y-62145449D01*
X5765406Y-62128730D01*
X5951401Y-61998495D01*
X6118495Y-61831401D01*
X6254035Y-61637830D01*
X6353903Y-61423663D01*
X6415063Y-61195408D01*
X6435659Y-60960000D01*
X6415063Y-60724592D01*
X6353903Y-60496337D01*
X6254035Y-60282171D01*
X6118495Y-60088599D01*
X6118494Y-60088597D01*
X5951402Y-59921506D01*
X5951396Y-59921501D01*
X5765842Y-59791575D01*
X5722217Y-59736998D01*
X5715023Y-59667500D01*
X5746546Y-59605145D01*
X5765842Y-59588425D01*
X5788026Y-59572891D01*
X5951401Y-59458495D01*
X6118495Y-59291401D01*
X6254035Y-59097830D01*
X6353903Y-58883663D01*
X6415063Y-58655408D01*
X6435659Y-58420000D01*
X6415063Y-58184592D01*
X6353903Y-57956337D01*
X6254035Y-57742171D01*
X6118495Y-57548599D01*
X6118494Y-57548597D01*
X5951402Y-57381506D01*
X5951396Y-57381501D01*
X5765842Y-57251575D01*
X5722217Y-57196998D01*
X5715023Y-57127500D01*
X5746546Y-57065145D01*
X5765842Y-57048425D01*
X5788026Y-57032891D01*
X5951401Y-56918495D01*
X6118495Y-56751401D01*
X6254035Y-56557830D01*
X6353903Y-56343663D01*
X6415063Y-56115408D01*
X6435659Y-55880000D01*
X6415063Y-55644592D01*
X6353903Y-55416337D01*
X6254035Y-55202171D01*
X6226816Y-55163297D01*
X6118494Y-55008597D01*
X6029896Y-54920000D01*
X94382206Y-54920000D01*
X94401353Y-55163297D01*
X94401353Y-55163300D01*
X94401354Y-55163302D01*
X94410685Y-55202169D01*
X94458330Y-55400619D01*
X94551722Y-55626089D01*
X94679237Y-55834173D01*
X94679238Y-55834176D01*
X94679241Y-55834179D01*
X94837741Y-56019759D01*
X94949726Y-56115403D01*
X95023323Y-56178261D01*
X95023325Y-56178261D01*
X95043005Y-56190321D01*
X95231410Y-56305777D01*
X95456881Y-56399169D01*
X95456878Y-56399169D01*
X95456884Y-56399170D01*
X95456888Y-56399172D01*
X95694198Y-56456146D01*
X95937500Y-56475294D01*
X96180802Y-56456146D01*
X96418112Y-56399172D01*
X96643589Y-56305777D01*
X96851679Y-56178259D01*
X97037259Y-56019759D01*
X97195759Y-55834179D01*
X97323277Y-55626089D01*
X97416672Y-55400612D01*
X97473646Y-55163302D01*
X97492794Y-54920000D01*
X97492793Y-54919993D01*
X97493070Y-54916480D01*
X97517953Y-54851191D01*
X97574184Y-54809720D01*
X97643910Y-54805233D01*
X97675705Y-54817153D01*
X97806528Y-54887950D01*
X97873074Y-54923963D01*
X97985029Y-54962397D01*
X98088673Y-54997979D01*
X98088675Y-54997979D01*
X98088677Y-54997980D01*
X98313523Y-55035500D01*
X98313524Y-55035500D01*
X98541476Y-55035500D01*
X98541477Y-55035500D01*
X98766323Y-54997980D01*
X98981926Y-54923963D01*
X99182406Y-54815469D01*
X99362294Y-54675456D01*
X99516683Y-54507745D01*
X99641362Y-54316909D01*
X99732930Y-54108155D01*
X99788890Y-53887176D01*
X99788891Y-53887168D01*
X99807714Y-53660006D01*
X99807714Y-53659993D01*
X99788891Y-53432831D01*
X99788889Y-53432820D01*
X99732930Y-53211844D01*
X99641362Y-53003091D01*
X99516685Y-52812257D01*
X99362291Y-52644541D01*
X99362287Y-52644538D01*
X99182409Y-52504533D01*
X99182400Y-52504527D01*
X98981932Y-52396040D01*
X98981929Y-52396039D01*
X98981926Y-52396037D01*
X98981920Y-52396035D01*
X98981918Y-52396034D01*
X98766326Y-52322020D01*
X98597688Y-52293880D01*
X98541477Y-52284500D01*
X98313523Y-52284500D01*
X98268553Y-52292004D01*
X98088673Y-52322020D01*
X97873081Y-52396034D01*
X97873067Y-52396040D01*
X97672599Y-52504527D01*
X97672590Y-52504533D01*
X97492712Y-52644538D01*
X97492708Y-52644541D01*
X97338314Y-52812257D01*
X97213637Y-53003091D01*
X97122069Y-53211844D01*
X97066110Y-53432820D01*
X97066108Y-53432832D01*
X97054216Y-53576350D01*
X97029063Y-53641535D01*
X96972661Y-53682773D01*
X96902917Y-53686971D01*
X96856377Y-53663551D01*
X96855615Y-53664601D01*
X96851673Y-53661737D01*
X96643589Y-53534222D01*
X96418118Y-53440830D01*
X96418121Y-53440830D01*
X96312492Y-53415470D01*
X96180802Y-53383854D01*
X96180800Y-53383853D01*
X96180797Y-53383853D01*
X95937500Y-53364706D01*
X95694202Y-53383853D01*
X95694198Y-53383854D01*
X95490198Y-53432831D01*
X95456880Y-53440830D01*
X95231410Y-53534222D01*
X95023326Y-53661737D01*
X95023323Y-53661738D01*
X94837741Y-53820241D01*
X94679238Y-54005823D01*
X94679237Y-54005826D01*
X94551722Y-54213910D01*
X94458330Y-54439380D01*
X94401353Y-54676702D01*
X94382206Y-54920000D01*
X6029896Y-54920000D01*
X5951402Y-54841506D01*
X5951396Y-54841501D01*
X5765842Y-54711575D01*
X5722217Y-54656998D01*
X5715023Y-54587500D01*
X5746546Y-54525145D01*
X5765842Y-54508425D01*
X5864448Y-54439380D01*
X5951401Y-54378495D01*
X6118495Y-54211401D01*
X6254035Y-54017830D01*
X6353903Y-53803663D01*
X6415063Y-53575408D01*
X6435659Y-53340000D01*
X6415063Y-53104592D01*
X6353903Y-52876337D01*
X6254035Y-52662171D01*
X6241692Y-52644544D01*
X6118496Y-52468600D01*
X6118495Y-52468599D01*
X5996567Y-52346671D01*
X5963084Y-52285351D01*
X5968068Y-52215659D01*
X6009939Y-52159725D01*
X6040915Y-52142810D01*
X6172331Y-52093796D01*
X6287546Y-52007546D01*
X6373796Y-51892331D01*
X6424091Y-51757483D01*
X6430500Y-51697873D01*
X6430499Y-49902128D01*
X6424091Y-49842517D01*
X6418802Y-49828337D01*
X6373797Y-49707671D01*
X6373793Y-49707664D01*
X6287547Y-49592455D01*
X6287544Y-49592452D01*
X6172335Y-49506206D01*
X6172328Y-49506202D01*
X6037482Y-49455908D01*
X6037483Y-49455908D01*
X5977883Y-49449501D01*
X5977881Y-49449500D01*
X5977873Y-49449500D01*
X5977864Y-49449500D01*
X4182129Y-49449500D01*
X4182123Y-49449501D01*
X4122516Y-49455908D01*
X3987671Y-49506202D01*
X3987664Y-49506206D01*
X3872455Y-49592452D01*
X3872452Y-49592455D01*
X3786206Y-49707664D01*
X3786202Y-49707671D01*
X3780682Y-49722473D01*
X3738811Y-49778407D01*
X3673346Y-49802824D01*
X3605073Y-49787972D01*
X3555668Y-49738567D01*
X3540500Y-49679140D01*
X3540500Y-32920097D01*
X3560185Y-32853058D01*
X3576819Y-32832416D01*
X7832416Y-28576819D01*
X7893739Y-28543334D01*
X7920097Y-28540500D01*
X16969479Y-28540500D01*
X17036518Y-28560185D01*
X17040602Y-28562925D01*
X17094158Y-28600425D01*
X17137783Y-28655002D01*
X17144977Y-28724500D01*
X17113454Y-28786855D01*
X17094158Y-28803575D01*
X16908597Y-28933505D01*
X16741505Y-29100597D01*
X16605965Y-29294169D01*
X16605964Y-29294171D01*
X16506098Y-29508335D01*
X16506094Y-29508344D01*
X16444938Y-29736586D01*
X16444936Y-29736596D01*
X16424341Y-29971999D01*
X16424341Y-29972000D01*
X16444936Y-30207403D01*
X16444938Y-30207413D01*
X16506094Y-30435655D01*
X16506096Y-30435659D01*
X16506097Y-30435663D01*
X16510000Y-30444032D01*
X16605965Y-30649830D01*
X16605967Y-30649834D01*
X16714281Y-30804521D01*
X16741501Y-30843396D01*
X16741506Y-30843402D01*
X16863818Y-30965714D01*
X16897303Y-31027037D01*
X16892319Y-31096729D01*
X16850447Y-31152662D01*
X16819471Y-31169577D01*
X16687912Y-31218646D01*
X16687906Y-31218649D01*
X16572812Y-31304809D01*
X16572809Y-31304812D01*
X16486649Y-31419906D01*
X16486645Y-31419913D01*
X16436403Y-31554620D01*
X16436401Y-31554627D01*
X16430000Y-31614155D01*
X16430000Y-32262000D01*
X17335440Y-32262000D01*
X17304755Y-32315147D01*
X17270000Y-32444857D01*
X17270000Y-32579143D01*
X17304755Y-32708853D01*
X17335440Y-32762000D01*
X16430000Y-32762000D01*
X16430000Y-33409844D01*
X16436401Y-33469372D01*
X16436403Y-33469379D01*
X16486645Y-33604086D01*
X16486649Y-33604093D01*
X16572809Y-33719187D01*
X16572812Y-33719190D01*
X16687906Y-33805350D01*
X16687913Y-33805354D01*
X16819470Y-33854421D01*
X16875403Y-33896292D01*
X16899821Y-33961756D01*
X16884970Y-34030029D01*
X16863819Y-34058284D01*
X16741503Y-34180600D01*
X16605965Y-34374169D01*
X16605964Y-34374171D01*
X16506098Y-34588335D01*
X16506094Y-34588344D01*
X16444938Y-34816586D01*
X16444936Y-34816596D01*
X16424341Y-35051999D01*
X16424341Y-35052000D01*
X16444936Y-35287403D01*
X16444938Y-35287413D01*
X16506094Y-35515655D01*
X16506096Y-35515659D01*
X16506097Y-35515663D01*
X16510000Y-35524032D01*
X16605965Y-35729830D01*
X16605967Y-35729834D01*
X16741501Y-35923395D01*
X16741506Y-35923402D01*
X16908597Y-36090493D01*
X16908603Y-36090498D01*
X17094158Y-36220425D01*
X17137783Y-36275002D01*
X17144977Y-36344500D01*
X17113454Y-36406855D01*
X17094158Y-36423575D01*
X16908597Y-36553505D01*
X16741505Y-36720597D01*
X16605965Y-36914169D01*
X16605964Y-36914171D01*
X16506098Y-37128335D01*
X16506094Y-37128344D01*
X16444938Y-37356586D01*
X16444936Y-37356596D01*
X16424341Y-37591999D01*
X16424341Y-37592000D01*
X16444936Y-37827403D01*
X16444938Y-37827413D01*
X16506094Y-38055655D01*
X16506096Y-38055659D01*
X16506097Y-38055663D01*
X16570060Y-38192831D01*
X16605965Y-38269830D01*
X16605967Y-38269834D01*
X16741501Y-38463395D01*
X16741506Y-38463402D01*
X16908597Y-38630493D01*
X16908603Y-38630498D01*
X17094158Y-38760425D01*
X17137783Y-38815002D01*
X17144977Y-38884500D01*
X17113454Y-38946855D01*
X17094158Y-38963575D01*
X16908597Y-39093505D01*
X16741505Y-39260597D01*
X16605965Y-39454169D01*
X16605964Y-39454171D01*
X16506098Y-39668335D01*
X16506094Y-39668344D01*
X16444938Y-39896586D01*
X16444936Y-39896596D01*
X16424341Y-40131999D01*
X16424341Y-40132000D01*
X16444936Y-40367403D01*
X16444938Y-40367413D01*
X16506094Y-40595655D01*
X16506096Y-40595659D01*
X16506097Y-40595663D01*
X16510000Y-40604032D01*
X16605965Y-40809830D01*
X16605967Y-40809834D01*
X16741501Y-41003395D01*
X16741506Y-41003402D01*
X16908597Y-41170493D01*
X16908603Y-41170498D01*
X17094158Y-41300425D01*
X17137783Y-41355002D01*
X17144977Y-41424500D01*
X17113454Y-41486855D01*
X17094158Y-41503575D01*
X16908597Y-41633505D01*
X16741505Y-41800597D01*
X16605965Y-41994169D01*
X16605964Y-41994171D01*
X16506098Y-42208335D01*
X16506094Y-42208344D01*
X16444938Y-42436586D01*
X16444936Y-42436596D01*
X16424341Y-42671999D01*
X16424341Y-42672000D01*
X16444936Y-42907403D01*
X16444938Y-42907413D01*
X16506094Y-43135655D01*
X16506096Y-43135659D01*
X16506097Y-43135663D01*
X16510000Y-43144032D01*
X16605965Y-43349830D01*
X16605967Y-43349834D01*
X16714281Y-43504521D01*
X16741501Y-43543396D01*
X16741506Y-43543402D01*
X16863818Y-43665714D01*
X16897303Y-43727037D01*
X16892319Y-43796729D01*
X16850447Y-43852662D01*
X16819471Y-43869577D01*
X16687912Y-43918646D01*
X16687906Y-43918649D01*
X16572812Y-44004809D01*
X16572809Y-44004812D01*
X16486649Y-44119906D01*
X16486645Y-44119913D01*
X16436403Y-44254620D01*
X16436401Y-44254627D01*
X16430000Y-44314155D01*
X16430000Y-44962000D01*
X17335440Y-44962000D01*
X17304755Y-45015147D01*
X17270000Y-45144857D01*
X17270000Y-45279143D01*
X17304755Y-45408853D01*
X17335440Y-45462000D01*
X16430000Y-45462000D01*
X16430000Y-46109844D01*
X16436401Y-46169372D01*
X16436403Y-46169379D01*
X16486645Y-46304086D01*
X16486649Y-46304093D01*
X16572809Y-46419187D01*
X16572812Y-46419190D01*
X16687906Y-46505350D01*
X16687913Y-46505354D01*
X16819470Y-46554421D01*
X16875403Y-46596292D01*
X16899821Y-46661756D01*
X16884970Y-46730029D01*
X16863819Y-46758284D01*
X16741503Y-46880600D01*
X16605965Y-47074169D01*
X16605964Y-47074171D01*
X16506098Y-47288335D01*
X16506094Y-47288344D01*
X16444938Y-47516586D01*
X16444936Y-47516596D01*
X16424341Y-47751999D01*
X16424341Y-47752000D01*
X16444936Y-47987403D01*
X16444938Y-47987413D01*
X16506094Y-48215655D01*
X16506096Y-48215659D01*
X16506097Y-48215663D01*
X16535951Y-48279685D01*
X16605965Y-48429830D01*
X16605967Y-48429834D01*
X16741501Y-48623395D01*
X16741506Y-48623402D01*
X16908597Y-48790493D01*
X16908603Y-48790498D01*
X17094158Y-48920425D01*
X17137783Y-48975002D01*
X17144977Y-49044500D01*
X17113454Y-49106855D01*
X17094158Y-49123575D01*
X16908597Y-49253505D01*
X16741505Y-49420597D01*
X16605965Y-49614169D01*
X16605964Y-49614171D01*
X16506098Y-49828335D01*
X16506094Y-49828344D01*
X16444938Y-50056586D01*
X16444936Y-50056596D01*
X16424341Y-50291999D01*
X16424341Y-50292000D01*
X16444936Y-50527403D01*
X16444938Y-50527413D01*
X16506094Y-50755655D01*
X16506096Y-50755659D01*
X16506097Y-50755663D01*
X16601322Y-50959873D01*
X16605965Y-50969830D01*
X16605967Y-50969834D01*
X16697456Y-51100493D01*
X16741505Y-51163401D01*
X16908599Y-51330495D01*
X16944733Y-51355796D01*
X17102165Y-51466032D01*
X17102167Y-51466033D01*
X17102170Y-51466035D01*
X17316337Y-51565903D01*
X17544592Y-51627063D01*
X17732918Y-51643539D01*
X17779999Y-51647659D01*
X17780000Y-51647659D01*
X17780001Y-51647659D01*
X17819234Y-51644226D01*
X18015408Y-51627063D01*
X18243663Y-51565903D01*
X18457830Y-51466035D01*
X18651401Y-51330495D01*
X18818495Y-51163401D01*
X18954035Y-50969830D01*
X19053903Y-50755663D01*
X19115063Y-50527408D01*
X19135659Y-50292000D01*
X19115536Y-50061999D01*
X22774341Y-50061999D01*
X22774341Y-50062000D01*
X22794936Y-50297403D01*
X22794938Y-50297413D01*
X22856094Y-50525655D01*
X22856096Y-50525659D01*
X22856097Y-50525663D01*
X22940499Y-50706663D01*
X22955965Y-50739830D01*
X22955967Y-50739834D01*
X23064281Y-50894521D01*
X23091505Y-50933401D01*
X23258599Y-51100495D01*
X23348429Y-51163395D01*
X23452165Y-51236032D01*
X23452167Y-51236033D01*
X23452170Y-51236035D01*
X23666337Y-51335903D01*
X23894592Y-51397063D01*
X24071034Y-51412500D01*
X24129999Y-51417659D01*
X24130000Y-51417659D01*
X24130001Y-51417659D01*
X24188966Y-51412500D01*
X24365408Y-51397063D01*
X24593663Y-51335903D01*
X24807830Y-51236035D01*
X25001401Y-51100495D01*
X25123329Y-50978566D01*
X25184648Y-50945084D01*
X25254340Y-50950068D01*
X25310274Y-50991939D01*
X25327189Y-51022917D01*
X25376202Y-51154328D01*
X25376206Y-51154335D01*
X25462452Y-51269544D01*
X25462455Y-51269547D01*
X25577664Y-51355793D01*
X25577671Y-51355797D01*
X25712517Y-51406091D01*
X25712516Y-51406091D01*
X25719444Y-51406835D01*
X25772127Y-51412500D01*
X27567872Y-51412499D01*
X27627483Y-51406091D01*
X27762331Y-51355796D01*
X27877546Y-51269546D01*
X27963796Y-51154331D01*
X28012810Y-51022916D01*
X28054681Y-50966984D01*
X28120145Y-50942566D01*
X28188418Y-50957417D01*
X28216673Y-50978569D01*
X28338599Y-51100495D01*
X28428429Y-51163395D01*
X28532165Y-51236032D01*
X28532167Y-51236033D01*
X28532170Y-51236035D01*
X28746337Y-51335903D01*
X28974592Y-51397063D01*
X29151034Y-51412500D01*
X29209999Y-51417659D01*
X29210000Y-51417659D01*
X29210001Y-51417659D01*
X29268966Y-51412500D01*
X29445408Y-51397063D01*
X29673663Y-51335903D01*
X29887830Y-51236035D01*
X30081401Y-51100495D01*
X30248495Y-50933401D01*
X30384035Y-50739830D01*
X30483903Y-50525663D01*
X30545063Y-50297408D01*
X30565659Y-50062000D01*
X30545063Y-49826592D01*
X30483903Y-49598337D01*
X30384035Y-49384171D01*
X30322142Y-49295777D01*
X30248494Y-49190597D01*
X30081402Y-49023506D01*
X30081395Y-49023501D01*
X30079251Y-49022000D01*
X30004518Y-48969671D01*
X29887834Y-48887967D01*
X29887830Y-48887965D01*
X29887828Y-48887964D01*
X29673663Y-48788097D01*
X29673659Y-48788096D01*
X29673655Y-48788094D01*
X29445413Y-48726938D01*
X29445403Y-48726936D01*
X29210001Y-48706341D01*
X29209999Y-48706341D01*
X28974596Y-48726936D01*
X28974586Y-48726938D01*
X28746344Y-48788094D01*
X28746335Y-48788098D01*
X28532171Y-48887964D01*
X28532169Y-48887965D01*
X28338600Y-49023503D01*
X28216673Y-49145430D01*
X28155350Y-49178914D01*
X28085658Y-49173930D01*
X28029725Y-49132058D01*
X28012810Y-49101081D01*
X27963797Y-48969671D01*
X27963793Y-48969664D01*
X27877547Y-48854455D01*
X27877544Y-48854452D01*
X27762335Y-48768206D01*
X27762328Y-48768202D01*
X27627482Y-48717908D01*
X27627483Y-48717908D01*
X27567883Y-48711501D01*
X27567881Y-48711500D01*
X27567873Y-48711500D01*
X27567864Y-48711500D01*
X25772129Y-48711500D01*
X25772123Y-48711501D01*
X25712516Y-48717908D01*
X25577671Y-48768202D01*
X25577664Y-48768206D01*
X25462455Y-48854452D01*
X25462452Y-48854455D01*
X25376206Y-48969664D01*
X25376203Y-48969669D01*
X25327189Y-49101083D01*
X25285317Y-49157016D01*
X25219853Y-49181433D01*
X25151580Y-49166581D01*
X25123326Y-49145430D01*
X25001402Y-49023506D01*
X25001395Y-49023501D01*
X24999251Y-49022000D01*
X24924518Y-48969671D01*
X24807834Y-48887967D01*
X24807830Y-48887965D01*
X24807828Y-48887964D01*
X24593663Y-48788097D01*
X24593659Y-48788096D01*
X24593655Y-48788094D01*
X24365413Y-48726938D01*
X24365403Y-48726936D01*
X24130001Y-48706341D01*
X24129999Y-48706341D01*
X23894596Y-48726936D01*
X23894586Y-48726938D01*
X23666344Y-48788094D01*
X23666335Y-48788098D01*
X23452171Y-48887964D01*
X23452169Y-48887965D01*
X23258597Y-49023505D01*
X23091505Y-49190597D01*
X22955965Y-49384169D01*
X22955964Y-49384171D01*
X22856098Y-49598335D01*
X22856094Y-49598344D01*
X22794938Y-49826586D01*
X22794936Y-49826596D01*
X22774341Y-50061999D01*
X19115536Y-50061999D01*
X19115063Y-50056592D01*
X19080671Y-49928239D01*
X19082334Y-49858393D01*
X19112763Y-49808470D01*
X20624916Y-48296319D01*
X20686239Y-48262834D01*
X20712597Y-48260000D01*
X34227776Y-48260000D01*
X34294815Y-48279685D01*
X34340158Y-48331596D01*
X34385963Y-48429826D01*
X34385967Y-48429834D01*
X34521501Y-48623395D01*
X34521506Y-48623402D01*
X34688597Y-48790493D01*
X34688603Y-48790498D01*
X34874158Y-48920425D01*
X34917783Y-48975002D01*
X34924977Y-49044500D01*
X34893454Y-49106855D01*
X34874158Y-49123575D01*
X34688597Y-49253505D01*
X34521505Y-49420597D01*
X34385965Y-49614169D01*
X34385964Y-49614171D01*
X34286098Y-49828335D01*
X34286094Y-49828344D01*
X34224938Y-50056586D01*
X34224936Y-50056596D01*
X34204341Y-50291999D01*
X34204341Y-50292000D01*
X34224936Y-50527403D01*
X34224938Y-50527413D01*
X34286094Y-50755655D01*
X34286096Y-50755659D01*
X34286097Y-50755663D01*
X34381322Y-50959873D01*
X34385965Y-50969830D01*
X34385967Y-50969834D01*
X34477456Y-51100493D01*
X34521505Y-51163401D01*
X34688599Y-51330495D01*
X34724733Y-51355796D01*
X34882165Y-51466032D01*
X34882167Y-51466033D01*
X34882170Y-51466035D01*
X35096337Y-51565903D01*
X35324592Y-51627063D01*
X35512918Y-51643539D01*
X35559999Y-51647659D01*
X35560000Y-51647659D01*
X35560001Y-51647659D01*
X35599234Y-51644226D01*
X35795408Y-51627063D01*
X36023663Y-51565903D01*
X36237830Y-51466035D01*
X36431401Y-51330495D01*
X36598495Y-51163401D01*
X36734035Y-50969830D01*
X36833903Y-50755663D01*
X36895063Y-50527408D01*
X36915659Y-50292000D01*
X36895063Y-50056592D01*
X36841956Y-49858393D01*
X36833905Y-49828344D01*
X36833904Y-49828343D01*
X36833903Y-49828337D01*
X36734035Y-49614171D01*
X36718830Y-49592455D01*
X36598494Y-49420597D01*
X36431402Y-49253506D01*
X36431396Y-49253501D01*
X36245842Y-49123575D01*
X36202217Y-49068998D01*
X36195023Y-48999500D01*
X36226546Y-48937145D01*
X36245842Y-48920425D01*
X36292197Y-48887967D01*
X36431401Y-48790495D01*
X36598495Y-48623401D01*
X36734035Y-48429830D01*
X36833903Y-48215663D01*
X36895063Y-47987408D01*
X36901835Y-47910000D01*
X94382206Y-47910000D01*
X94401353Y-48153297D01*
X94401353Y-48153300D01*
X94401354Y-48153302D01*
X94444159Y-48331596D01*
X94458330Y-48390619D01*
X94551722Y-48616089D01*
X94679237Y-48824173D01*
X94679238Y-48824176D01*
X94705098Y-48854454D01*
X94837741Y-49009759D01*
X94944666Y-49101081D01*
X95023323Y-49168261D01*
X95023326Y-49168262D01*
X95231410Y-49295777D01*
X95412847Y-49370930D01*
X95452076Y-49387179D01*
X95456881Y-49389169D01*
X95456878Y-49389169D01*
X95456884Y-49389170D01*
X95456888Y-49389172D01*
X95694198Y-49446146D01*
X95937500Y-49465294D01*
X96180802Y-49446146D01*
X96418112Y-49389172D01*
X96643589Y-49295777D01*
X96851679Y-49168259D01*
X96851689Y-49168249D01*
X96855615Y-49165399D01*
X96856396Y-49166474D01*
X96914611Y-49140372D01*
X96983700Y-49150790D01*
X97036188Y-49196907D01*
X97054990Y-49252988D01*
X97066108Y-49387167D01*
X97066110Y-49387179D01*
X97122069Y-49608155D01*
X97213637Y-49816908D01*
X97338314Y-50007742D01*
X97492708Y-50175458D01*
X97492712Y-50175461D01*
X97672594Y-50315469D01*
X97672596Y-50315470D01*
X97672599Y-50315472D01*
X97789146Y-50378543D01*
X97873074Y-50423963D01*
X97985029Y-50462397D01*
X98088673Y-50497979D01*
X98088675Y-50497979D01*
X98088677Y-50497980D01*
X98313523Y-50535500D01*
X98313524Y-50535500D01*
X98541476Y-50535500D01*
X98541477Y-50535500D01*
X98766323Y-50497980D01*
X98981926Y-50423963D01*
X99182406Y-50315469D01*
X99362294Y-50175456D01*
X99516683Y-50007745D01*
X99641362Y-49816909D01*
X99732930Y-49608155D01*
X99788890Y-49387176D01*
X99789139Y-49384171D01*
X99807714Y-49160006D01*
X99807714Y-49159993D01*
X99788891Y-48932831D01*
X99788889Y-48932820D01*
X99732930Y-48711844D01*
X99641362Y-48503091D01*
X99516685Y-48312257D01*
X99427756Y-48215655D01*
X99362294Y-48144544D01*
X99362293Y-48144543D01*
X99362291Y-48144541D01*
X99362287Y-48144538D01*
X99182409Y-48004533D01*
X99182400Y-48004527D01*
X98981932Y-47896040D01*
X98981929Y-47896039D01*
X98981926Y-47896037D01*
X98981920Y-47896035D01*
X98981918Y-47896034D01*
X98766326Y-47822020D01*
X98597688Y-47793880D01*
X98541477Y-47784500D01*
X98313523Y-47784500D01*
X98268553Y-47792004D01*
X98088673Y-47822020D01*
X97873081Y-47896034D01*
X97873067Y-47896040D01*
X97674951Y-48003255D01*
X97606623Y-48017850D01*
X97541251Y-47993187D01*
X97499590Y-47937096D01*
X97492316Y-47903929D01*
X97473646Y-47666702D01*
X97473646Y-47666698D01*
X97416672Y-47429388D01*
X97358250Y-47288344D01*
X97323277Y-47203910D01*
X97195762Y-46995826D01*
X97195761Y-46995823D01*
X97097350Y-46880599D01*
X97037259Y-46810241D01*
X96863405Y-46661756D01*
X96851676Y-46651738D01*
X96851673Y-46651737D01*
X96643589Y-46524222D01*
X96418118Y-46430830D01*
X96418121Y-46430830D01*
X96312492Y-46405470D01*
X96180802Y-46373854D01*
X96180800Y-46373853D01*
X96180797Y-46373853D01*
X95937500Y-46354706D01*
X95694202Y-46373853D01*
X95694198Y-46373854D01*
X95505376Y-46419187D01*
X95456880Y-46430830D01*
X95231410Y-46524222D01*
X95023326Y-46651737D01*
X95023323Y-46651738D01*
X94837741Y-46810241D01*
X94679238Y-46995823D01*
X94679237Y-46995826D01*
X94551722Y-47203910D01*
X94458330Y-47429380D01*
X94401353Y-47666702D01*
X94382206Y-47910000D01*
X36901835Y-47910000D01*
X36915659Y-47752000D01*
X36895063Y-47516592D01*
X36833903Y-47288337D01*
X36734035Y-47074171D01*
X36679177Y-46995826D01*
X36598496Y-46880600D01*
X36598495Y-46880599D01*
X36476179Y-46758283D01*
X36442696Y-46696963D01*
X36447680Y-46627271D01*
X36489551Y-46571337D01*
X36520529Y-46554422D01*
X36652086Y-46505354D01*
X36652093Y-46505350D01*
X36767187Y-46419190D01*
X36767190Y-46419187D01*
X36853350Y-46304093D01*
X36853354Y-46304086D01*
X36903596Y-46169379D01*
X36903598Y-46169372D01*
X36909999Y-46109844D01*
X36910000Y-46109827D01*
X36910000Y-45462000D01*
X36004560Y-45462000D01*
X36035245Y-45408853D01*
X36070000Y-45279143D01*
X36070000Y-45144857D01*
X36035245Y-45015147D01*
X36004560Y-44962000D01*
X36910000Y-44962000D01*
X36910000Y-44314172D01*
X36909999Y-44314155D01*
X36903598Y-44254627D01*
X36903596Y-44254620D01*
X36853354Y-44119913D01*
X36853350Y-44119906D01*
X36767190Y-44004812D01*
X36767187Y-44004809D01*
X36652093Y-43918649D01*
X36652088Y-43918646D01*
X36520528Y-43869577D01*
X36464595Y-43827705D01*
X36440178Y-43762241D01*
X36455030Y-43693968D01*
X36476175Y-43665720D01*
X36598495Y-43543401D01*
X36734035Y-43349830D01*
X36833903Y-43135663D01*
X36895063Y-42907408D01*
X36915659Y-42672000D01*
X36895063Y-42436592D01*
X36833903Y-42208337D01*
X36734035Y-41994171D01*
X36640008Y-41859885D01*
X36598494Y-41800597D01*
X36431402Y-41633506D01*
X36431396Y-41633501D01*
X36245842Y-41503575D01*
X36202217Y-41448998D01*
X36195023Y-41379500D01*
X36226546Y-41317145D01*
X36245842Y-41300425D01*
X36268026Y-41284891D01*
X36431401Y-41170495D01*
X36598495Y-41003401D01*
X36734035Y-40809830D01*
X36833903Y-40595663D01*
X36895063Y-40367408D01*
X36915659Y-40132000D01*
X36895063Y-39896592D01*
X36848626Y-39723285D01*
X36837028Y-39680000D01*
X94382206Y-39680000D01*
X94401353Y-39923297D01*
X94458330Y-40160619D01*
X94551722Y-40386089D01*
X94679237Y-40594173D01*
X94679238Y-40594176D01*
X94680508Y-40595663D01*
X94837741Y-40779759D01*
X94981397Y-40902453D01*
X95023323Y-40938261D01*
X95023326Y-40938262D01*
X95231410Y-41065777D01*
X95456881Y-41159169D01*
X95456878Y-41159169D01*
X95456884Y-41159170D01*
X95456888Y-41159172D01*
X95694198Y-41216146D01*
X95937500Y-41235294D01*
X96180802Y-41216146D01*
X96418112Y-41159172D01*
X96643589Y-41065777D01*
X96851679Y-40938259D01*
X97037259Y-40779759D01*
X97195759Y-40594179D01*
X97323277Y-40386089D01*
X97416672Y-40160612D01*
X97473646Y-39923302D01*
X97492794Y-39680000D01*
X97492793Y-39679993D01*
X97493070Y-39676480D01*
X97517953Y-39611191D01*
X97574184Y-39569720D01*
X97643910Y-39565233D01*
X97675705Y-39577153D01*
X97806528Y-39647950D01*
X97873074Y-39683963D01*
X97985029Y-39722397D01*
X98088673Y-39757979D01*
X98088675Y-39757979D01*
X98088677Y-39757980D01*
X98313523Y-39795500D01*
X98313524Y-39795500D01*
X98541476Y-39795500D01*
X98541477Y-39795500D01*
X98766323Y-39757980D01*
X98981926Y-39683963D01*
X99182406Y-39575469D01*
X99362294Y-39435456D01*
X99516683Y-39267745D01*
X99641362Y-39076909D01*
X99732930Y-38868155D01*
X99788890Y-38647176D01*
X99790272Y-38630498D01*
X99807714Y-38420006D01*
X99807714Y-38419993D01*
X99788891Y-38192831D01*
X99788889Y-38192820D01*
X99732930Y-37971844D01*
X99641362Y-37763091D01*
X99516685Y-37572257D01*
X99362291Y-37404541D01*
X99362287Y-37404538D01*
X99182409Y-37264533D01*
X99182400Y-37264527D01*
X98981932Y-37156040D01*
X98981929Y-37156039D01*
X98981926Y-37156037D01*
X98981920Y-37156035D01*
X98981918Y-37156034D01*
X98766326Y-37082020D01*
X98597688Y-37053880D01*
X98541477Y-37044500D01*
X98313523Y-37044500D01*
X98268553Y-37052004D01*
X98088673Y-37082020D01*
X97873081Y-37156034D01*
X97873067Y-37156040D01*
X97672599Y-37264527D01*
X97672590Y-37264533D01*
X97492712Y-37404538D01*
X97492708Y-37404541D01*
X97338314Y-37572257D01*
X97213637Y-37763091D01*
X97122069Y-37971844D01*
X97066110Y-38192820D01*
X97066108Y-38192832D01*
X97054216Y-38336350D01*
X97029063Y-38401535D01*
X96972661Y-38442773D01*
X96902917Y-38446971D01*
X96856377Y-38423551D01*
X96855615Y-38424601D01*
X96851673Y-38421737D01*
X96643589Y-38294222D01*
X96418118Y-38200830D01*
X96418121Y-38200830D01*
X96312492Y-38175470D01*
X96180802Y-38143854D01*
X96180800Y-38143853D01*
X96180797Y-38143853D01*
X95937500Y-38124706D01*
X95694202Y-38143853D01*
X95694198Y-38143854D01*
X95490198Y-38192831D01*
X95456880Y-38200830D01*
X95231410Y-38294222D01*
X95023326Y-38421737D01*
X95023323Y-38421738D01*
X94837741Y-38580241D01*
X94679238Y-38765823D01*
X94679237Y-38765826D01*
X94551722Y-38973910D01*
X94458330Y-39199380D01*
X94401353Y-39436702D01*
X94382206Y-39680000D01*
X36837028Y-39680000D01*
X36833905Y-39668344D01*
X36833904Y-39668343D01*
X36833903Y-39668337D01*
X36734035Y-39454171D01*
X36721804Y-39436702D01*
X36598494Y-39260597D01*
X36431402Y-39093506D01*
X36431396Y-39093501D01*
X36245842Y-38963575D01*
X36202217Y-38908998D01*
X36195023Y-38839500D01*
X36226546Y-38777145D01*
X36245842Y-38760425D01*
X36268026Y-38744891D01*
X36431401Y-38630495D01*
X36598495Y-38463401D01*
X36734035Y-38269830D01*
X36833903Y-38055663D01*
X36895063Y-37827408D01*
X36915659Y-37592000D01*
X36913931Y-37572255D01*
X36895063Y-37356596D01*
X36895063Y-37356592D01*
X36833903Y-37128337D01*
X36734035Y-36914171D01*
X36640008Y-36779885D01*
X36598494Y-36720597D01*
X36431402Y-36553506D01*
X36431396Y-36553501D01*
X36245842Y-36423575D01*
X36202217Y-36368998D01*
X36195023Y-36299500D01*
X36226546Y-36237145D01*
X36245842Y-36220425D01*
X36268026Y-36204891D01*
X36431401Y-36090495D01*
X36598495Y-35923401D01*
X36734035Y-35729830D01*
X36833903Y-35515663D01*
X36895063Y-35287408D01*
X36915659Y-35052000D01*
X36895063Y-34816592D01*
X36833903Y-34588337D01*
X36734035Y-34374171D01*
X36598495Y-34180599D01*
X36476179Y-34058283D01*
X36442696Y-33996963D01*
X36447680Y-33927271D01*
X36489551Y-33871337D01*
X36520529Y-33854422D01*
X36652086Y-33805354D01*
X36652093Y-33805350D01*
X36767187Y-33719190D01*
X36767190Y-33719187D01*
X36853350Y-33604093D01*
X36853354Y-33604086D01*
X36903596Y-33469379D01*
X36903598Y-33469372D01*
X36909999Y-33409844D01*
X36910000Y-33409827D01*
X36910000Y-32762000D01*
X36004560Y-32762000D01*
X36035245Y-32708853D01*
X36045655Y-32670000D01*
X94382206Y-32670000D01*
X94401353Y-32913297D01*
X94401353Y-32913300D01*
X94401354Y-32913302D01*
X94439516Y-33072257D01*
X94458330Y-33150619D01*
X94551722Y-33376089D01*
X94679237Y-33584173D01*
X94679238Y-33584176D01*
X94679241Y-33584179D01*
X94837741Y-33769759D01*
X94936868Y-33854421D01*
X95023323Y-33928261D01*
X95023326Y-33928262D01*
X95231410Y-34055777D01*
X95412847Y-34130930D01*
X95452076Y-34147179D01*
X95456881Y-34149169D01*
X95456878Y-34149169D01*
X95456884Y-34149170D01*
X95456888Y-34149172D01*
X95694198Y-34206146D01*
X95937500Y-34225294D01*
X96180802Y-34206146D01*
X96418112Y-34149172D01*
X96643589Y-34055777D01*
X96851679Y-33928259D01*
X96851689Y-33928249D01*
X96855615Y-33925399D01*
X96856396Y-33926474D01*
X96914611Y-33900372D01*
X96983700Y-33910790D01*
X97036188Y-33956907D01*
X97054990Y-34012988D01*
X97066108Y-34147167D01*
X97066110Y-34147179D01*
X97122069Y-34368155D01*
X97213637Y-34576908D01*
X97338314Y-34767742D01*
X97492708Y-34935458D01*
X97492712Y-34935461D01*
X97672594Y-35075469D01*
X97672596Y-35075470D01*
X97672599Y-35075472D01*
X97789146Y-35138543D01*
X97873074Y-35183963D01*
X97985029Y-35222397D01*
X98088673Y-35257979D01*
X98088675Y-35257979D01*
X98088677Y-35257980D01*
X98313523Y-35295500D01*
X98313524Y-35295500D01*
X98541476Y-35295500D01*
X98541477Y-35295500D01*
X98766323Y-35257980D01*
X98981926Y-35183963D01*
X99182406Y-35075469D01*
X99362294Y-34935456D01*
X99516683Y-34767745D01*
X99641362Y-34576909D01*
X99732930Y-34368155D01*
X99788890Y-34147176D01*
X99796256Y-34058284D01*
X99807714Y-33920006D01*
X99807714Y-33919993D01*
X99788891Y-33692831D01*
X99788889Y-33692820D01*
X99732930Y-33471844D01*
X99641362Y-33263091D01*
X99516685Y-33072257D01*
X99388272Y-32932764D01*
X99362294Y-32904544D01*
X99362293Y-32904543D01*
X99362291Y-32904541D01*
X99362287Y-32904538D01*
X99182409Y-32764533D01*
X99182400Y-32764527D01*
X98981932Y-32656040D01*
X98981929Y-32656039D01*
X98981926Y-32656037D01*
X98981920Y-32656035D01*
X98981918Y-32656034D01*
X98766326Y-32582020D01*
X98597688Y-32553880D01*
X98541477Y-32544500D01*
X98313523Y-32544500D01*
X98268553Y-32552004D01*
X98088673Y-32582020D01*
X97873081Y-32656034D01*
X97873067Y-32656040D01*
X97674951Y-32763255D01*
X97606623Y-32777850D01*
X97541251Y-32753187D01*
X97499590Y-32697096D01*
X97492316Y-32663929D01*
X97491695Y-32656034D01*
X97473646Y-32426698D01*
X97416672Y-32189388D01*
X97323277Y-31963911D01*
X97323277Y-31963910D01*
X97195762Y-31755826D01*
X97195761Y-31755823D01*
X97159953Y-31713897D01*
X97037259Y-31570241D01*
X96914563Y-31465449D01*
X96851676Y-31411738D01*
X96851673Y-31411737D01*
X96643589Y-31284222D01*
X96418118Y-31190830D01*
X96418121Y-31190830D01*
X96312492Y-31165470D01*
X96180802Y-31133854D01*
X96180800Y-31133853D01*
X96180797Y-31133853D01*
X95937500Y-31114706D01*
X95694202Y-31133853D01*
X95694198Y-31133854D01*
X95545404Y-31169577D01*
X95456880Y-31190830D01*
X95231410Y-31284222D01*
X95023326Y-31411737D01*
X95023323Y-31411738D01*
X94837741Y-31570241D01*
X94679238Y-31755823D01*
X94679237Y-31755826D01*
X94551722Y-31963910D01*
X94458330Y-32189380D01*
X94401353Y-32426702D01*
X94382206Y-32670000D01*
X36045655Y-32670000D01*
X36070000Y-32579143D01*
X36070000Y-32444857D01*
X36035245Y-32315147D01*
X36004560Y-32262000D01*
X36910000Y-32262000D01*
X36910000Y-31614172D01*
X36909999Y-31614155D01*
X36903598Y-31554627D01*
X36903596Y-31554620D01*
X36853354Y-31419913D01*
X36853350Y-31419906D01*
X36767190Y-31304812D01*
X36767187Y-31304809D01*
X36652093Y-31218649D01*
X36652088Y-31218646D01*
X36520528Y-31169577D01*
X36464595Y-31127705D01*
X36440178Y-31062241D01*
X36455030Y-30993968D01*
X36476175Y-30965720D01*
X36598495Y-30843401D01*
X36734035Y-30649830D01*
X36833903Y-30435663D01*
X36895063Y-30207408D01*
X36915659Y-29972000D01*
X36895063Y-29736592D01*
X36833903Y-29508337D01*
X36734035Y-29294171D01*
X36640566Y-29160682D01*
X36598494Y-29100597D01*
X36431402Y-28933506D01*
X36431396Y-28933501D01*
X36245842Y-28803575D01*
X36202217Y-28748998D01*
X36195023Y-28679500D01*
X36226546Y-28617145D01*
X36245842Y-28600425D01*
X36299397Y-28562925D01*
X36431401Y-28470495D01*
X36598495Y-28303401D01*
X36734035Y-28109830D01*
X36833903Y-27895663D01*
X36895063Y-27667408D01*
X36915659Y-27432000D01*
X36895063Y-27196592D01*
X36833903Y-26968337D01*
X36820177Y-26938902D01*
X36809686Y-26869829D01*
X36838205Y-26806044D01*
X36896681Y-26767804D01*
X36932560Y-26762500D01*
X47411331Y-26762500D01*
X47411347Y-26762501D01*
X47418943Y-26762501D01*
X47577054Y-26762501D01*
X47577057Y-26762501D01*
X47729785Y-26721577D01*
X47779904Y-26692639D01*
X47866716Y-26642520D01*
X47978520Y-26530716D01*
X47978520Y-26530714D01*
X47988728Y-26520507D01*
X47988730Y-26520504D01*
X49479234Y-25030000D01*
X94382206Y-25030000D01*
X94401353Y-25273297D01*
X94401353Y-25273300D01*
X94401354Y-25273302D01*
X94436538Y-25419853D01*
X94458330Y-25510619D01*
X94551722Y-25736089D01*
X94679237Y-25944173D01*
X94679238Y-25944176D01*
X94679241Y-25944179D01*
X94837741Y-26129759D01*
X94974843Y-26246855D01*
X95023323Y-26288261D01*
X95023326Y-26288262D01*
X95231410Y-26415777D01*
X95392293Y-26482416D01*
X95442127Y-26503058D01*
X95456881Y-26509169D01*
X95456878Y-26509169D01*
X95456884Y-26509170D01*
X95456888Y-26509172D01*
X95694198Y-26566146D01*
X95937500Y-26585294D01*
X96180802Y-26566146D01*
X96418112Y-26509172D01*
X96643589Y-26415777D01*
X96851679Y-26288259D01*
X97037259Y-26129759D01*
X97195759Y-25944179D01*
X97323277Y-25736089D01*
X97416672Y-25510612D01*
X97473646Y-25273302D01*
X97492794Y-25030000D01*
X97492793Y-25029993D01*
X97493070Y-25026480D01*
X97517953Y-24961191D01*
X97574184Y-24919720D01*
X97643910Y-24915233D01*
X97675705Y-24927153D01*
X97801468Y-24995212D01*
X97873074Y-25033963D01*
X97985029Y-25072397D01*
X98088673Y-25107979D01*
X98088675Y-25107979D01*
X98088677Y-25107980D01*
X98313523Y-25145500D01*
X98313524Y-25145500D01*
X98541476Y-25145500D01*
X98541477Y-25145500D01*
X98766323Y-25107980D01*
X98981926Y-25033963D01*
X99182406Y-24925469D01*
X99362294Y-24785456D01*
X99516683Y-24617745D01*
X99641362Y-24426909D01*
X99732930Y-24218155D01*
X99788890Y-23997176D01*
X99788891Y-23997168D01*
X99807714Y-23770006D01*
X99807714Y-23769993D01*
X99788891Y-23542831D01*
X99788889Y-23542820D01*
X99732930Y-23321844D01*
X99641362Y-23113091D01*
X99516685Y-22922257D01*
X99362291Y-22754541D01*
X99362287Y-22754538D01*
X99182409Y-22614533D01*
X99182400Y-22614527D01*
X98981932Y-22506040D01*
X98981929Y-22506039D01*
X98981926Y-22506037D01*
X98981920Y-22506035D01*
X98981918Y-22506034D01*
X98766326Y-22432020D01*
X98597688Y-22403880D01*
X98541477Y-22394500D01*
X98313523Y-22394500D01*
X98268553Y-22402004D01*
X98088673Y-22432020D01*
X97873081Y-22506034D01*
X97873067Y-22506040D01*
X97672599Y-22614527D01*
X97672590Y-22614533D01*
X97492712Y-22754538D01*
X97492708Y-22754541D01*
X97338314Y-22922257D01*
X97213637Y-23113091D01*
X97122069Y-23321844D01*
X97066110Y-23542820D01*
X97066108Y-23542832D01*
X97054216Y-23686350D01*
X97029063Y-23751535D01*
X96972661Y-23792773D01*
X96902917Y-23796971D01*
X96856377Y-23773551D01*
X96855615Y-23774601D01*
X96851673Y-23771737D01*
X96643589Y-23644222D01*
X96418118Y-23550830D01*
X96418121Y-23550830D01*
X96291476Y-23520425D01*
X96180802Y-23493854D01*
X96180800Y-23493853D01*
X96180797Y-23493853D01*
X95937500Y-23474706D01*
X95694202Y-23493853D01*
X95694198Y-23493854D01*
X95490198Y-23542831D01*
X95456880Y-23550830D01*
X95231410Y-23644222D01*
X95023326Y-23771737D01*
X95023323Y-23771738D01*
X94837741Y-23930241D01*
X94679238Y-24115823D01*
X94679237Y-24115826D01*
X94551722Y-24323910D01*
X94458330Y-24549380D01*
X94401353Y-24786702D01*
X94382206Y-25030000D01*
X49479234Y-25030000D01*
X56489233Y-18020000D01*
X94382206Y-18020000D01*
X94401353Y-18263297D01*
X94401353Y-18263300D01*
X94401354Y-18263302D01*
X94439516Y-18422257D01*
X94458330Y-18500619D01*
X94551722Y-18726089D01*
X94679237Y-18934173D01*
X94679238Y-18934176D01*
X94719721Y-18981575D01*
X94837741Y-19119759D01*
X94981397Y-19242453D01*
X95023323Y-19278261D01*
X95023326Y-19278262D01*
X95231410Y-19405777D01*
X95412847Y-19480930D01*
X95452076Y-19497179D01*
X95456881Y-19499169D01*
X95456878Y-19499169D01*
X95456884Y-19499170D01*
X95456888Y-19499172D01*
X95694198Y-19556146D01*
X95937500Y-19575294D01*
X96180802Y-19556146D01*
X96418112Y-19499172D01*
X96643589Y-19405777D01*
X96851679Y-19278259D01*
X96851689Y-19278249D01*
X96855615Y-19275399D01*
X96856396Y-19276474D01*
X96914611Y-19250372D01*
X96983700Y-19260790D01*
X97036188Y-19306907D01*
X97054990Y-19362988D01*
X97066108Y-19497167D01*
X97066110Y-19497179D01*
X97122069Y-19718155D01*
X97213637Y-19926908D01*
X97338314Y-20117742D01*
X97492708Y-20285458D01*
X97492712Y-20285461D01*
X97586766Y-20358666D01*
X97672594Y-20425469D01*
X97672596Y-20425470D01*
X97672599Y-20425472D01*
X97789146Y-20488543D01*
X97873074Y-20533963D01*
X97985029Y-20572397D01*
X98088673Y-20607979D01*
X98088675Y-20607979D01*
X98088677Y-20607980D01*
X98313523Y-20645500D01*
X98313524Y-20645500D01*
X98541476Y-20645500D01*
X98541477Y-20645500D01*
X98766323Y-20607980D01*
X98981926Y-20533963D01*
X99182406Y-20425469D01*
X99362294Y-20285456D01*
X99516683Y-20117745D01*
X99641362Y-19926909D01*
X99732930Y-19718155D01*
X99788890Y-19497176D01*
X99788891Y-19497167D01*
X99807714Y-19270006D01*
X99807714Y-19269993D01*
X99788891Y-19042831D01*
X99788889Y-19042820D01*
X99732930Y-18821844D01*
X99641362Y-18613091D01*
X99516685Y-18422257D01*
X99454927Y-18355170D01*
X99362294Y-18254544D01*
X99362293Y-18254543D01*
X99362291Y-18254541D01*
X99362287Y-18254538D01*
X99182409Y-18114533D01*
X99182400Y-18114527D01*
X98981932Y-18006040D01*
X98981929Y-18006039D01*
X98981926Y-18006037D01*
X98981920Y-18006035D01*
X98981918Y-18006034D01*
X98766326Y-17932020D01*
X98597688Y-17903880D01*
X98541477Y-17894500D01*
X98313523Y-17894500D01*
X98268553Y-17902004D01*
X98088673Y-17932020D01*
X97873081Y-18006034D01*
X97873067Y-18006040D01*
X97674951Y-18113255D01*
X97606623Y-18127850D01*
X97541251Y-18103187D01*
X97499590Y-18047096D01*
X97492316Y-18013929D01*
X97491695Y-18006034D01*
X97473646Y-17776698D01*
X97416672Y-17539388D01*
X97403426Y-17507408D01*
X97323277Y-17313910D01*
X97195762Y-17105826D01*
X97195761Y-17105823D01*
X97136635Y-17036596D01*
X97037259Y-16920241D01*
X96896436Y-16799967D01*
X96851676Y-16761738D01*
X96851673Y-16761737D01*
X96643589Y-16634222D01*
X96418118Y-16540830D01*
X96418121Y-16540830D01*
X96312492Y-16515470D01*
X96180802Y-16483854D01*
X96180800Y-16483853D01*
X96180797Y-16483853D01*
X95937500Y-16464706D01*
X95694202Y-16483853D01*
X95456880Y-16540830D01*
X95231410Y-16634222D01*
X95023326Y-16761737D01*
X95023323Y-16761738D01*
X94837741Y-16920241D01*
X94679238Y-17105823D01*
X94679237Y-17105826D01*
X94551722Y-17313910D01*
X94458330Y-17539380D01*
X94401353Y-17776702D01*
X94382206Y-18020000D01*
X56489233Y-18020000D01*
X59968470Y-14540763D01*
X60029791Y-14507280D01*
X60088238Y-14508670D01*
X60216592Y-14543063D01*
X60393034Y-14558500D01*
X60451999Y-14563659D01*
X60452000Y-14563659D01*
X60452001Y-14563659D01*
X60510966Y-14558500D01*
X60687408Y-14543063D01*
X60915663Y-14481903D01*
X61129830Y-14382035D01*
X61323401Y-14246495D01*
X61490495Y-14079401D01*
X61626035Y-13885830D01*
X61725903Y-13671663D01*
X61787063Y-13443408D01*
X61807659Y-13208000D01*
X61787063Y-12972592D01*
X61725903Y-12744337D01*
X61626035Y-12530171D01*
X61620425Y-12522158D01*
X61490494Y-12336597D01*
X61464032Y-12310135D01*
X70531500Y-12310135D01*
X70531500Y-14105870D01*
X70531501Y-14105876D01*
X70537908Y-14165483D01*
X70588202Y-14300328D01*
X70588206Y-14300335D01*
X70674452Y-14415544D01*
X70674455Y-14415547D01*
X70789664Y-14501793D01*
X70789671Y-14501797D01*
X70924517Y-14552091D01*
X70924516Y-14552091D01*
X70931444Y-14552835D01*
X70984127Y-14558500D01*
X72779872Y-14558499D01*
X72839483Y-14552091D01*
X72974331Y-14501796D01*
X73089546Y-14415546D01*
X73175796Y-14300331D01*
X73224810Y-14168916D01*
X73266681Y-14112984D01*
X73332145Y-14088566D01*
X73400418Y-14103417D01*
X73428673Y-14124569D01*
X73550599Y-14246495D01*
X73647384Y-14314265D01*
X73744165Y-14382032D01*
X73744167Y-14382033D01*
X73744170Y-14382035D01*
X73958337Y-14481903D01*
X74186592Y-14543063D01*
X74363034Y-14558500D01*
X74421999Y-14563659D01*
X74422000Y-14563659D01*
X74422001Y-14563659D01*
X74480966Y-14558500D01*
X74657408Y-14543063D01*
X74885663Y-14481903D01*
X75099830Y-14382035D01*
X75293401Y-14246495D01*
X75460495Y-14079401D01*
X75590425Y-13893842D01*
X75645002Y-13850217D01*
X75714500Y-13843023D01*
X75776855Y-13874546D01*
X75793575Y-13893842D01*
X75923500Y-14079395D01*
X75923505Y-14079401D01*
X76090599Y-14246495D01*
X76187384Y-14314265D01*
X76284165Y-14382032D01*
X76284167Y-14382033D01*
X76284170Y-14382035D01*
X76498337Y-14481903D01*
X76726592Y-14543063D01*
X76903034Y-14558500D01*
X76961999Y-14563659D01*
X76962000Y-14563659D01*
X76962001Y-14563659D01*
X77020966Y-14558500D01*
X77197408Y-14543063D01*
X77425663Y-14481903D01*
X77639830Y-14382035D01*
X77833401Y-14246495D01*
X78000495Y-14079401D01*
X78136035Y-13885830D01*
X78235903Y-13671663D01*
X78297063Y-13443408D01*
X78317659Y-13208000D01*
X78297063Y-12972592D01*
X78235903Y-12744337D01*
X78136035Y-12530171D01*
X78130425Y-12522158D01*
X78000494Y-12336597D01*
X77833402Y-12169506D01*
X77833401Y-12169505D01*
X77647405Y-12039269D01*
X77603781Y-11984692D01*
X77596588Y-11915193D01*
X77628110Y-11852839D01*
X77647405Y-11836119D01*
X77833082Y-11706105D01*
X78000105Y-11539082D01*
X78135600Y-11345578D01*
X78235429Y-11131492D01*
X78235432Y-11131486D01*
X78292636Y-10918000D01*
X77395012Y-10918000D01*
X77427925Y-10860993D01*
X77462000Y-10733826D01*
X77462000Y-10602174D01*
X77427925Y-10475007D01*
X77395012Y-10418000D01*
X78292636Y-10418000D01*
X78292635Y-10417999D01*
X78235432Y-10204513D01*
X78235429Y-10204507D01*
X78135600Y-9990422D01*
X78135599Y-9990420D01*
X78000113Y-9796926D01*
X78000108Y-9796920D01*
X77833082Y-9629894D01*
X77639578Y-9494399D01*
X77425492Y-9394570D01*
X77425486Y-9394567D01*
X77212000Y-9337364D01*
X77212000Y-10234988D01*
X77154993Y-10202075D01*
X77027826Y-10168000D01*
X76896174Y-10168000D01*
X76769007Y-10202075D01*
X76712000Y-10234988D01*
X76712000Y-9337364D01*
X76711999Y-9337364D01*
X76498513Y-9394567D01*
X76498507Y-9394570D01*
X76284422Y-9494399D01*
X76284420Y-9494400D01*
X76090926Y-9629886D01*
X76090920Y-9629891D01*
X75923891Y-9796920D01*
X75923890Y-9796922D01*
X75793575Y-9983031D01*
X75738998Y-10026655D01*
X75669499Y-10033848D01*
X75607145Y-10002326D01*
X75590425Y-9983031D01*
X75460109Y-9796922D01*
X75460108Y-9796920D01*
X75293082Y-9629894D01*
X75099578Y-9494399D01*
X74885492Y-9394570D01*
X74885486Y-9394567D01*
X74672000Y-9337364D01*
X74672000Y-10234988D01*
X74614993Y-10202075D01*
X74487826Y-10168000D01*
X74356174Y-10168000D01*
X74229007Y-10202075D01*
X74172000Y-10234988D01*
X74172000Y-9337364D01*
X74171999Y-9337364D01*
X73958513Y-9394567D01*
X73958507Y-9394570D01*
X73744422Y-9494399D01*
X73744420Y-9494400D01*
X73550926Y-9629886D01*
X73550920Y-9629891D01*
X73383891Y-9796920D01*
X73383890Y-9796922D01*
X73253575Y-9983031D01*
X73198998Y-10026655D01*
X73129499Y-10033848D01*
X73067145Y-10002326D01*
X73050425Y-9983031D01*
X72920109Y-9796922D01*
X72920108Y-9796920D01*
X72753082Y-9629894D01*
X72559578Y-9494399D01*
X72345492Y-9394570D01*
X72345486Y-9394567D01*
X72132000Y-9337364D01*
X72132000Y-10234988D01*
X72074993Y-10202075D01*
X71947826Y-10168000D01*
X71816174Y-10168000D01*
X71689007Y-10202075D01*
X71632000Y-10234988D01*
X71632000Y-9337364D01*
X71631999Y-9337364D01*
X71418513Y-9394567D01*
X71418507Y-9394570D01*
X71204422Y-9494399D01*
X71204420Y-9494400D01*
X71010926Y-9629886D01*
X71010920Y-9629891D01*
X70843891Y-9796920D01*
X70843886Y-9796926D01*
X70708400Y-9990420D01*
X70708399Y-9990422D01*
X70608570Y-10204507D01*
X70608567Y-10204513D01*
X70551364Y-10417999D01*
X70551364Y-10418000D01*
X71448988Y-10418000D01*
X71416075Y-10475007D01*
X71382000Y-10602174D01*
X71382000Y-10733826D01*
X71416075Y-10860993D01*
X71448988Y-10918000D01*
X70551364Y-10918000D01*
X70608567Y-11131486D01*
X70608570Y-11131492D01*
X70708399Y-11345578D01*
X70843894Y-11539082D01*
X70965946Y-11661134D01*
X70999431Y-11722457D01*
X70994447Y-11792149D01*
X70952575Y-11848082D01*
X70921598Y-11864997D01*
X70789671Y-11914202D01*
X70789664Y-11914206D01*
X70674455Y-12000452D01*
X70674452Y-12000455D01*
X70588206Y-12115664D01*
X70588202Y-12115671D01*
X70537908Y-12250517D01*
X70531501Y-12310116D01*
X70531500Y-12310135D01*
X61464032Y-12310135D01*
X61323402Y-12169506D01*
X61323401Y-12169505D01*
X61137405Y-12039269D01*
X61093781Y-11984692D01*
X61086588Y-11915193D01*
X61118110Y-11852839D01*
X61137405Y-11836119D01*
X61323082Y-11706105D01*
X61490105Y-11539082D01*
X61625600Y-11345578D01*
X61725429Y-11131492D01*
X61725432Y-11131486D01*
X61782636Y-10918000D01*
X60885012Y-10918000D01*
X60917925Y-10860993D01*
X60952000Y-10733826D01*
X60952000Y-10602174D01*
X60917925Y-10475007D01*
X60885012Y-10418000D01*
X61782636Y-10418000D01*
X61782635Y-10417999D01*
X61725432Y-10204513D01*
X61725429Y-10204507D01*
X61625600Y-9990422D01*
X61625599Y-9990420D01*
X61490113Y-9796926D01*
X61490108Y-9796920D01*
X61323082Y-9629894D01*
X61129578Y-9494399D01*
X60915492Y-9394570D01*
X60915486Y-9394567D01*
X60702000Y-9337364D01*
X60702000Y-10234988D01*
X60644993Y-10202075D01*
X60517826Y-10168000D01*
X60386174Y-10168000D01*
X60259007Y-10202075D01*
X60202000Y-10234988D01*
X60202000Y-9337364D01*
X60201999Y-9337364D01*
X59988513Y-9394567D01*
X59988507Y-9394570D01*
X59774422Y-9494399D01*
X59774420Y-9494400D01*
X59580926Y-9629886D01*
X59580920Y-9629891D01*
X59413891Y-9796920D01*
X59413890Y-9796922D01*
X59283575Y-9983031D01*
X59228998Y-10026655D01*
X59159499Y-10033848D01*
X59097145Y-10002326D01*
X59080425Y-9983031D01*
X58950109Y-9796922D01*
X58950108Y-9796920D01*
X58783082Y-9629894D01*
X58589578Y-9494399D01*
X58375492Y-9394570D01*
X58375486Y-9394567D01*
X58162000Y-9337364D01*
X58162000Y-10234988D01*
X58104993Y-10202075D01*
X57977826Y-10168000D01*
X57846174Y-10168000D01*
X57719007Y-10202075D01*
X57662000Y-10234988D01*
X57662000Y-9337364D01*
X57661999Y-9337364D01*
X57448513Y-9394567D01*
X57448507Y-9394570D01*
X57234422Y-9494399D01*
X57234420Y-9494400D01*
X57040926Y-9629886D01*
X57040920Y-9629891D01*
X56873891Y-9796920D01*
X56873890Y-9796922D01*
X56743575Y-9983031D01*
X56688998Y-10026655D01*
X56619499Y-10033848D01*
X56557145Y-10002326D01*
X56540425Y-9983031D01*
X56410109Y-9796922D01*
X56410108Y-9796920D01*
X56243082Y-9629894D01*
X56049578Y-9494399D01*
X55835492Y-9394570D01*
X55835486Y-9394567D01*
X55622000Y-9337364D01*
X55622000Y-10234988D01*
X55564993Y-10202075D01*
X55437826Y-10168000D01*
X55306174Y-10168000D01*
X55179007Y-10202075D01*
X55122000Y-10234988D01*
X55122000Y-9337364D01*
X55121999Y-9337364D01*
X54908513Y-9394567D01*
X54908507Y-9394570D01*
X54694422Y-9494399D01*
X54694420Y-9494400D01*
X54500926Y-9629886D01*
X54500920Y-9629891D01*
X54333891Y-9796920D01*
X54333890Y-9796922D01*
X54203575Y-9983031D01*
X54148998Y-10026655D01*
X54079499Y-10033848D01*
X54017145Y-10002326D01*
X54000425Y-9983031D01*
X53870109Y-9796922D01*
X53870108Y-9796920D01*
X53703082Y-9629894D01*
X53509578Y-9494399D01*
X53295492Y-9394570D01*
X53295486Y-9394567D01*
X53082000Y-9337364D01*
X53082000Y-10234988D01*
X53024993Y-10202075D01*
X52897826Y-10168000D01*
X52766174Y-10168000D01*
X52639007Y-10202075D01*
X52582000Y-10234988D01*
X52582000Y-9337364D01*
X52581999Y-9337364D01*
X52368513Y-9394567D01*
X52368507Y-9394570D01*
X52154422Y-9494399D01*
X52154420Y-9494400D01*
X51960926Y-9629886D01*
X51960920Y-9629891D01*
X51793891Y-9796920D01*
X51793890Y-9796922D01*
X51663575Y-9983031D01*
X51608998Y-10026655D01*
X51539499Y-10033848D01*
X51477145Y-10002326D01*
X51460425Y-9983031D01*
X51330109Y-9796922D01*
X51330108Y-9796920D01*
X51163082Y-9629894D01*
X50969578Y-9494399D01*
X50755492Y-9394570D01*
X50755486Y-9394567D01*
X50542000Y-9337364D01*
X50542000Y-10234988D01*
X50484993Y-10202075D01*
X50357826Y-10168000D01*
X50226174Y-10168000D01*
X50099007Y-10202075D01*
X50042000Y-10234988D01*
X50042000Y-9337364D01*
X50041999Y-9337364D01*
X49828513Y-9394567D01*
X49828507Y-9394570D01*
X49614422Y-9494399D01*
X49614420Y-9494400D01*
X49420926Y-9629886D01*
X49420920Y-9629891D01*
X49253891Y-9796920D01*
X49253890Y-9796922D01*
X49123575Y-9983031D01*
X49068998Y-10026655D01*
X48999499Y-10033848D01*
X48937145Y-10002326D01*
X48920425Y-9983031D01*
X48790109Y-9796922D01*
X48790108Y-9796920D01*
X48623082Y-9629894D01*
X48429578Y-9494399D01*
X48215492Y-9394570D01*
X48215486Y-9394567D01*
X48002000Y-9337364D01*
X48002000Y-10234988D01*
X47944993Y-10202075D01*
X47817826Y-10168000D01*
X47686174Y-10168000D01*
X47559007Y-10202075D01*
X47502000Y-10234988D01*
X47502000Y-9337364D01*
X47501999Y-9337364D01*
X47288513Y-9394567D01*
X47288507Y-9394570D01*
X47074422Y-9494399D01*
X47074420Y-9494400D01*
X46880926Y-9629886D01*
X46880920Y-9629891D01*
X46713891Y-9796920D01*
X46713886Y-9796926D01*
X46578400Y-9990420D01*
X46578399Y-9990422D01*
X46478570Y-10204507D01*
X46478567Y-10204513D01*
X46421364Y-10417999D01*
X46421364Y-10418000D01*
X47318988Y-10418000D01*
X47286075Y-10475007D01*
X47252000Y-10602174D01*
X47252000Y-10733826D01*
X47286075Y-10860993D01*
X47318988Y-10918000D01*
X46421364Y-10918000D01*
X46478567Y-11131486D01*
X46478570Y-11131492D01*
X46578399Y-11345578D01*
X46713894Y-11539082D01*
X46835946Y-11661134D01*
X46869431Y-11722457D01*
X46864447Y-11792149D01*
X46822575Y-11848082D01*
X46791598Y-11864997D01*
X46659671Y-11914202D01*
X46659664Y-11914206D01*
X46544455Y-12000452D01*
X46544452Y-12000455D01*
X46458206Y-12115664D01*
X46458202Y-12115671D01*
X46407908Y-12250517D01*
X46401501Y-12310116D01*
X46401500Y-12310135D01*
X46401500Y-12617500D01*
X46381815Y-12684539D01*
X46329011Y-12730294D01*
X46277500Y-12741500D01*
X36972503Y-12741500D01*
X36905464Y-12721815D01*
X36859709Y-12669011D01*
X36849765Y-12599853D01*
X36852728Y-12585407D01*
X36869675Y-12522158D01*
X36895063Y-12427408D01*
X36915659Y-12192000D01*
X36895063Y-11956592D01*
X36833903Y-11728337D01*
X36734035Y-11514171D01*
X36640566Y-11380682D01*
X36598494Y-11320597D01*
X36431402Y-11153506D01*
X36431396Y-11153501D01*
X36245842Y-11023575D01*
X36202217Y-10968998D01*
X36195023Y-10899500D01*
X36226546Y-10837145D01*
X36245842Y-10820425D01*
X36369518Y-10733826D01*
X36431401Y-10690495D01*
X36598495Y-10523401D01*
X36734035Y-10329830D01*
X36833903Y-10115663D01*
X36895063Y-9887408D01*
X36915659Y-9652000D01*
X36895063Y-9416592D01*
X36833903Y-9188337D01*
X36734035Y-8974171D01*
X36601631Y-8785078D01*
X36598496Y-8780600D01*
X36582676Y-8764780D01*
X36476179Y-8658283D01*
X36442696Y-8596963D01*
X36447680Y-8527271D01*
X36489551Y-8471337D01*
X36520529Y-8454422D01*
X36652086Y-8405354D01*
X36652093Y-8405350D01*
X36767187Y-8319190D01*
X36767190Y-8319187D01*
X36853350Y-8204093D01*
X36853354Y-8204086D01*
X36903596Y-8069379D01*
X36903598Y-8069372D01*
X36909999Y-8009844D01*
X36910000Y-8009827D01*
X36910000Y-7362000D01*
X36004560Y-7362000D01*
X36035245Y-7308853D01*
X36070000Y-7179143D01*
X36070000Y-7044857D01*
X36035245Y-6915147D01*
X36004560Y-6862000D01*
X36910000Y-6862000D01*
X36910000Y-6214172D01*
X36909999Y-6214155D01*
X36903598Y-6154627D01*
X36903596Y-6154620D01*
X36853354Y-6019913D01*
X36853350Y-6019906D01*
X36767190Y-5904812D01*
X36767187Y-5904809D01*
X36652093Y-5818649D01*
X36652088Y-5818646D01*
X36520528Y-5769577D01*
X36464595Y-5727705D01*
X36440178Y-5662241D01*
X36455030Y-5593968D01*
X36476175Y-5565720D01*
X36598495Y-5443401D01*
X36734035Y-5249830D01*
X36813229Y-5079999D01*
X92814922Y-5079999D01*
X92814922Y-5080000D01*
X92835219Y-5467287D01*
X92895886Y-5850323D01*
X92895887Y-5850330D01*
X92996262Y-6224936D01*
X93135244Y-6586994D01*
X93311310Y-6932543D01*
X93522523Y-7257783D01*
X93522525Y-7257785D01*
X93731096Y-7515348D01*
X95225747Y-6020697D01*
X95299588Y-6122330D01*
X95477670Y-6300412D01*
X95579301Y-6374251D01*
X94084650Y-7868902D01*
X94342214Y-8077475D01*
X94342216Y-8077476D01*
X94667456Y-8288689D01*
X95013005Y-8464755D01*
X95375063Y-8603737D01*
X95749669Y-8704112D01*
X95749676Y-8704113D01*
X96132712Y-8764780D01*
X96519999Y-8785078D01*
X96520001Y-8785078D01*
X96907287Y-8764780D01*
X97290323Y-8704113D01*
X97290330Y-8704112D01*
X97664936Y-8603737D01*
X98026994Y-8464755D01*
X98372543Y-8288689D01*
X98697771Y-8077484D01*
X98697784Y-8077474D01*
X98955348Y-7868902D01*
X97460698Y-6374252D01*
X97562330Y-6300412D01*
X97740412Y-6122330D01*
X97814252Y-6020698D01*
X99308902Y-7515348D01*
X99517474Y-7257784D01*
X99517484Y-7257771D01*
X99728689Y-6932543D01*
X99904755Y-6586994D01*
X100043737Y-6224936D01*
X100144112Y-5850330D01*
X100144113Y-5850323D01*
X100204780Y-5467287D01*
X100225078Y-5080000D01*
X100225078Y-5079999D01*
X100204780Y-4692712D01*
X100144113Y-4309676D01*
X100144112Y-4309669D01*
X100043737Y-3935063D01*
X99904755Y-3573005D01*
X99728689Y-3227456D01*
X99517476Y-2902216D01*
X99517475Y-2902214D01*
X99308902Y-2644650D01*
X97814251Y-4139301D01*
X97740412Y-4037670D01*
X97562330Y-3859588D01*
X97460698Y-3785748D01*
X98955349Y-2291096D01*
X98697785Y-2082525D01*
X98697783Y-2082523D01*
X98372543Y-1871310D01*
X98026994Y-1695244D01*
X97664936Y-1556262D01*
X97290330Y-1455887D01*
X97290323Y-1455886D01*
X96907287Y-1395219D01*
X96520001Y-1374922D01*
X96519999Y-1374922D01*
X96132712Y-1395219D01*
X95749676Y-1455886D01*
X95749669Y-1455887D01*
X95375063Y-1556262D01*
X95013005Y-1695244D01*
X94667456Y-1871310D01*
X94342206Y-2082531D01*
X94084649Y-2291095D01*
X94084649Y-2291096D01*
X95579301Y-3785748D01*
X95477670Y-3859588D01*
X95299588Y-4037670D01*
X95225748Y-4139301D01*
X93731096Y-2644649D01*
X93731095Y-2644649D01*
X93522531Y-2902206D01*
X93311310Y-3227456D01*
X93135244Y-3573005D01*
X92996262Y-3935063D01*
X92895887Y-4309669D01*
X92895886Y-4309676D01*
X92835219Y-4692712D01*
X92814922Y-5079999D01*
X36813229Y-5079999D01*
X36833903Y-5035663D01*
X36895063Y-4807408D01*
X36915659Y-4572000D01*
X36895063Y-4336592D01*
X36833903Y-4108337D01*
X36734035Y-3894171D01*
X36640566Y-3760682D01*
X36598494Y-3700597D01*
X36431402Y-3533506D01*
X36431396Y-3533501D01*
X36245842Y-3403575D01*
X36202217Y-3348998D01*
X36195023Y-3279500D01*
X36226546Y-3217145D01*
X36245842Y-3200425D01*
X36268026Y-3184891D01*
X36431401Y-3070495D01*
X36598495Y-2903401D01*
X36734035Y-2709830D01*
X36833903Y-2495663D01*
X36895063Y-2267408D01*
X36915659Y-2032000D01*
X36895063Y-1796592D01*
X36833903Y-1568337D01*
X36734035Y-1354171D01*
X36640566Y-1220682D01*
X36598494Y-1160597D01*
X36431402Y-993506D01*
X36431395Y-993501D01*
X36237834Y-857967D01*
X36237830Y-857965D01*
X36237828Y-857964D01*
X36023663Y-758097D01*
X36023659Y-758096D01*
X36023655Y-758094D01*
X35972079Y-744275D01*
X35912418Y-707910D01*
X35881889Y-645063D01*
X35890184Y-575688D01*
X35934669Y-521810D01*
X36001221Y-500535D01*
X36004172Y-500500D01*
X100975500Y-500500D01*
X101042539Y-520185D01*
G37*
%TD.AperFunction*%
%TA.AperFunction,Conductor*%
G36*
X16566934Y-18400185D02*
G01*
X16612689Y-18452989D01*
X16622633Y-18522147D01*
X16593608Y-18585703D01*
X16574209Y-18603764D01*
X16572812Y-18604809D01*
X16572809Y-18604812D01*
X16486649Y-18719906D01*
X16486645Y-18719913D01*
X16436403Y-18854620D01*
X16436401Y-18854627D01*
X16430000Y-18914155D01*
X16430000Y-19562000D01*
X17335440Y-19562000D01*
X17304755Y-19615147D01*
X17270000Y-19744857D01*
X17270000Y-19879143D01*
X17304755Y-20008853D01*
X17335440Y-20062000D01*
X16430000Y-20062000D01*
X16430000Y-20709844D01*
X16436401Y-20769372D01*
X16436403Y-20769379D01*
X16486645Y-20904086D01*
X16486649Y-20904093D01*
X16572809Y-21019187D01*
X16572812Y-21019190D01*
X16687906Y-21105350D01*
X16687913Y-21105354D01*
X16819470Y-21154421D01*
X16875403Y-21196292D01*
X16899821Y-21261756D01*
X16884970Y-21330029D01*
X16863819Y-21358284D01*
X16741503Y-21480600D01*
X16605965Y-21674170D01*
X16605962Y-21674175D01*
X16603289Y-21679909D01*
X16557115Y-21732346D01*
X16490909Y-21751500D01*
X5674670Y-21751500D01*
X5674654Y-21751499D01*
X5667058Y-21751499D01*
X5508943Y-21751499D01*
X5432579Y-21771961D01*
X5356214Y-21792423D01*
X5356209Y-21792426D01*
X5219290Y-21871475D01*
X5219282Y-21871481D01*
X2082181Y-25008583D01*
X2020858Y-25042068D01*
X1951166Y-25037084D01*
X1895233Y-24995212D01*
X1870816Y-24929748D01*
X1870500Y-24920902D01*
X1870500Y-21890097D01*
X1890185Y-21823058D01*
X1906819Y-21802416D01*
X5292417Y-18416819D01*
X5353740Y-18383334D01*
X5380098Y-18380500D01*
X16499895Y-18380500D01*
X16566934Y-18400185D01*
G37*
%TD.AperFunction*%
%TA.AperFunction,Conductor*%
G36*
X17402867Y-520185D02*
G01*
X17448622Y-572989D01*
X17458566Y-642147D01*
X17429541Y-705703D01*
X17370763Y-743477D01*
X17367921Y-744275D01*
X17316344Y-758094D01*
X17316335Y-758098D01*
X17102171Y-857964D01*
X17102169Y-857965D01*
X16908597Y-993505D01*
X16741505Y-1160597D01*
X16605965Y-1354169D01*
X16605964Y-1354171D01*
X16506098Y-1568335D01*
X16506094Y-1568344D01*
X16444938Y-1796586D01*
X16444936Y-1796596D01*
X16424341Y-2031999D01*
X16424341Y-2032000D01*
X16444936Y-2267403D01*
X16444938Y-2267413D01*
X16506094Y-2495655D01*
X16506096Y-2495659D01*
X16506097Y-2495663D01*
X16510000Y-2504032D01*
X16605965Y-2709830D01*
X16605967Y-2709834D01*
X16741501Y-2903395D01*
X16741506Y-2903402D01*
X16908597Y-3070493D01*
X16908603Y-3070498D01*
X17094158Y-3200425D01*
X17137783Y-3255002D01*
X17144977Y-3324500D01*
X17113454Y-3386855D01*
X17094158Y-3403575D01*
X16908597Y-3533505D01*
X16741505Y-3700597D01*
X16605965Y-3894169D01*
X16605964Y-3894171D01*
X16506098Y-4108335D01*
X16506094Y-4108344D01*
X16444938Y-4336586D01*
X16444936Y-4336596D01*
X16424341Y-4571999D01*
X16424341Y-4572000D01*
X16444936Y-4807403D01*
X16444938Y-4807413D01*
X16506094Y-5035655D01*
X16506096Y-5035659D01*
X16506097Y-5035663D01*
X16526772Y-5080000D01*
X16605965Y-5249830D01*
X16605967Y-5249834D01*
X16714281Y-5404521D01*
X16741501Y-5443396D01*
X16741506Y-5443402D01*
X16863818Y-5565714D01*
X16897303Y-5627037D01*
X16892319Y-5696729D01*
X16850447Y-5752662D01*
X16819471Y-5769577D01*
X16687912Y-5818646D01*
X16687906Y-5818649D01*
X16572812Y-5904809D01*
X16572809Y-5904812D01*
X16486649Y-6019906D01*
X16486645Y-6019913D01*
X16436403Y-6154620D01*
X16436401Y-6154627D01*
X16430000Y-6214155D01*
X16430000Y-6862000D01*
X17335440Y-6862000D01*
X17304755Y-6915147D01*
X17270000Y-7044857D01*
X17270000Y-7179143D01*
X17304755Y-7308853D01*
X17335440Y-7362000D01*
X16430000Y-7362000D01*
X16430000Y-8009844D01*
X16436401Y-8069372D01*
X16436403Y-8069379D01*
X16486645Y-8204086D01*
X16486649Y-8204093D01*
X16572809Y-8319187D01*
X16572812Y-8319190D01*
X16687906Y-8405350D01*
X16687913Y-8405354D01*
X16819470Y-8454421D01*
X16875403Y-8496292D01*
X16899821Y-8561756D01*
X16884970Y-8630029D01*
X16863819Y-8658284D01*
X16741503Y-8780600D01*
X16605965Y-8974169D01*
X16605964Y-8974171D01*
X16506098Y-9188335D01*
X16506094Y-9188344D01*
X16444938Y-9416586D01*
X16444936Y-9416596D01*
X16424341Y-9651999D01*
X16424341Y-9652000D01*
X16444936Y-9887403D01*
X16444938Y-9887413D01*
X16506094Y-10115655D01*
X16506096Y-10115659D01*
X16506097Y-10115663D01*
X16546392Y-10202075D01*
X16605965Y-10329830D01*
X16605967Y-10329834D01*
X16741501Y-10523395D01*
X16741506Y-10523402D01*
X16908597Y-10690493D01*
X16908603Y-10690498D01*
X17094158Y-10820425D01*
X17137783Y-10875002D01*
X17144977Y-10944500D01*
X17113454Y-11006855D01*
X17094158Y-11023575D01*
X16908597Y-11153505D01*
X16741505Y-11320597D01*
X16605965Y-11514169D01*
X16605964Y-11514171D01*
X16506098Y-11728335D01*
X16506094Y-11728344D01*
X16444938Y-11956586D01*
X16444936Y-11956596D01*
X16424341Y-12191999D01*
X16424341Y-12192000D01*
X16444936Y-12427403D01*
X16444938Y-12427413D01*
X16506094Y-12655655D01*
X16506096Y-12655659D01*
X16506097Y-12655663D01*
X16547450Y-12744344D01*
X16605965Y-12869830D01*
X16605967Y-12869834D01*
X16741501Y-13063395D01*
X16741506Y-13063402D01*
X16908597Y-13230493D01*
X16908603Y-13230498D01*
X17094158Y-13360425D01*
X17137783Y-13415002D01*
X17144977Y-13484500D01*
X17113454Y-13546855D01*
X17094158Y-13563575D01*
X16908597Y-13693505D01*
X16741505Y-13860597D01*
X16605965Y-14054169D01*
X16605964Y-14054171D01*
X16506098Y-14268335D01*
X16506094Y-14268344D01*
X16444938Y-14496586D01*
X16444936Y-14496596D01*
X16424341Y-14731999D01*
X16424341Y-14732000D01*
X16444936Y-14967403D01*
X16444938Y-14967413D01*
X16506094Y-15195655D01*
X16506096Y-15195659D01*
X16506097Y-15195663D01*
X16544802Y-15278666D01*
X16605965Y-15409830D01*
X16605967Y-15409834D01*
X16741501Y-15603395D01*
X16741506Y-15603402D01*
X16908597Y-15770493D01*
X16908603Y-15770498D01*
X17094158Y-15900425D01*
X17137783Y-15955002D01*
X17144977Y-16024500D01*
X17113454Y-16086855D01*
X17094158Y-16103575D01*
X16908597Y-16233505D01*
X16741505Y-16400597D01*
X16605965Y-16594169D01*
X16605964Y-16594171D01*
X16506098Y-16808335D01*
X16506094Y-16808344D01*
X16444938Y-17036586D01*
X16444936Y-17036595D01*
X16442337Y-17066309D01*
X16416884Y-17131377D01*
X16360293Y-17172355D01*
X16318809Y-17179500D01*
X5166670Y-17179500D01*
X5166654Y-17179499D01*
X5159058Y-17179499D01*
X5000943Y-17179499D01*
X4924579Y-17199961D01*
X4848214Y-17220423D01*
X4848209Y-17220426D01*
X4711290Y-17299475D01*
X4711282Y-17299481D01*
X789481Y-21221282D01*
X789480Y-21221284D01*
X744270Y-21299592D01*
X739361Y-21308094D01*
X739359Y-21308097D01*
X731886Y-21321040D01*
X681318Y-21369255D01*
X612711Y-21382476D01*
X547846Y-21356507D01*
X507319Y-21299592D01*
X500500Y-21259038D01*
X500500Y-5079999D01*
X1374922Y-5079999D01*
X1374922Y-5080000D01*
X1395219Y-5467287D01*
X1455886Y-5850323D01*
X1455887Y-5850330D01*
X1556262Y-6224936D01*
X1695244Y-6586994D01*
X1871310Y-6932543D01*
X2082523Y-7257783D01*
X2082525Y-7257785D01*
X2291096Y-7515348D01*
X3785747Y-6020697D01*
X3859588Y-6122330D01*
X4037670Y-6300412D01*
X4139301Y-6374251D01*
X2644650Y-7868902D01*
X2902214Y-8077475D01*
X2902216Y-8077476D01*
X3227456Y-8288689D01*
X3573005Y-8464755D01*
X3935063Y-8603737D01*
X4309669Y-8704112D01*
X4309676Y-8704113D01*
X4692712Y-8764780D01*
X5079999Y-8785078D01*
X5080001Y-8785078D01*
X5467287Y-8764780D01*
X5850323Y-8704113D01*
X5850330Y-8704112D01*
X6224936Y-8603737D01*
X6586994Y-8464755D01*
X6932543Y-8288689D01*
X7257771Y-8077484D01*
X7257784Y-8077474D01*
X7515348Y-7868902D01*
X6020698Y-6374252D01*
X6122330Y-6300412D01*
X6300412Y-6122330D01*
X6374252Y-6020698D01*
X7868902Y-7515348D01*
X8077474Y-7257784D01*
X8077484Y-7257771D01*
X8288689Y-6932543D01*
X8464755Y-6586994D01*
X8603737Y-6224936D01*
X8704112Y-5850330D01*
X8704113Y-5850323D01*
X8764780Y-5467287D01*
X8785078Y-5080000D01*
X8785078Y-5079999D01*
X8764780Y-4692712D01*
X8704113Y-4309676D01*
X8704112Y-4309669D01*
X8603737Y-3935063D01*
X8464755Y-3573005D01*
X8288689Y-3227456D01*
X8077476Y-2902216D01*
X8077475Y-2902214D01*
X7868902Y-2644650D01*
X6374251Y-4139301D01*
X6300412Y-4037670D01*
X6122330Y-3859588D01*
X6020698Y-3785748D01*
X7515349Y-2291096D01*
X7257785Y-2082525D01*
X7257783Y-2082523D01*
X6932543Y-1871310D01*
X6586994Y-1695244D01*
X6224936Y-1556262D01*
X5850330Y-1455887D01*
X5850323Y-1455886D01*
X5467287Y-1395219D01*
X5080001Y-1374922D01*
X5079999Y-1374922D01*
X4692712Y-1395219D01*
X4309676Y-1455886D01*
X4309669Y-1455887D01*
X3935063Y-1556262D01*
X3573005Y-1695244D01*
X3227456Y-1871310D01*
X2902206Y-2082531D01*
X2644649Y-2291095D01*
X2644649Y-2291096D01*
X4139301Y-3785748D01*
X4037670Y-3859588D01*
X3859588Y-4037670D01*
X3785748Y-4139301D01*
X2291096Y-2644649D01*
X2291095Y-2644649D01*
X2082531Y-2902206D01*
X1871310Y-3227456D01*
X1695244Y-3573005D01*
X1556262Y-3935063D01*
X1455887Y-4309669D01*
X1455886Y-4309676D01*
X1395219Y-4692712D01*
X1374922Y-5079999D01*
X500500Y-5079999D01*
X500500Y-624500D01*
X520185Y-557461D01*
X572989Y-511706D01*
X624500Y-500500D01*
X17335828Y-500500D01*
X17402867Y-520185D01*
G37*
%TD.AperFunction*%
%TA.AperFunction,Conductor*%
G36*
X52468242Y-14508672D02*
G01*
X52523990Y-14523609D01*
X52596592Y-14543063D01*
X52773034Y-14558500D01*
X52831999Y-14563659D01*
X52832000Y-14563659D01*
X52832001Y-14563659D01*
X52859843Y-14561223D01*
X52928343Y-14574989D01*
X52978526Y-14623604D01*
X52994460Y-14691633D01*
X52971085Y-14757477D01*
X52958332Y-14772432D01*
X47405584Y-20325181D01*
X47344261Y-20358666D01*
X47317903Y-20361500D01*
X37034000Y-20361500D01*
X36966961Y-20341815D01*
X36921206Y-20289011D01*
X36910000Y-20237500D01*
X36910000Y-20062000D01*
X36004560Y-20062000D01*
X36035245Y-20008853D01*
X36070000Y-19879143D01*
X36070000Y-19744857D01*
X36035245Y-19615147D01*
X36004560Y-19562000D01*
X36910000Y-19562000D01*
X36910000Y-19146500D01*
X36929685Y-19079461D01*
X36982489Y-19033706D01*
X37034000Y-19022500D01*
X47531331Y-19022500D01*
X47531347Y-19022501D01*
X47538943Y-19022501D01*
X47697054Y-19022501D01*
X47697057Y-19022501D01*
X47849785Y-18981577D01*
X47931880Y-18934179D01*
X47986716Y-18902520D01*
X48098520Y-18790716D01*
X48098520Y-18790714D01*
X48108724Y-18780511D01*
X48108727Y-18780506D01*
X52348470Y-14540764D01*
X52409791Y-14507281D01*
X52468242Y-14508672D01*
G37*
%TD.AperFunction*%
%TA.AperFunction,Conductor*%
G36*
X49826075Y-10475007D02*
G01*
X49792000Y-10602174D01*
X49792000Y-10733826D01*
X49826075Y-10860993D01*
X49858988Y-10918000D01*
X48185012Y-10918000D01*
X48217925Y-10860993D01*
X48252000Y-10733826D01*
X48252000Y-10602174D01*
X48217925Y-10475007D01*
X48185012Y-10418000D01*
X49858988Y-10418000D01*
X49826075Y-10475007D01*
G37*
%TD.AperFunction*%
%TA.AperFunction,Conductor*%
G36*
X52366075Y-10475007D02*
G01*
X52332000Y-10602174D01*
X52332000Y-10733826D01*
X52366075Y-10860993D01*
X52398988Y-10918000D01*
X50725012Y-10918000D01*
X50757925Y-10860993D01*
X50792000Y-10733826D01*
X50792000Y-10602174D01*
X50757925Y-10475007D01*
X50725012Y-10418000D01*
X52398988Y-10418000D01*
X52366075Y-10475007D01*
G37*
%TD.AperFunction*%
%TA.AperFunction,Conductor*%
G36*
X54906075Y-10475007D02*
G01*
X54872000Y-10602174D01*
X54872000Y-10733826D01*
X54906075Y-10860993D01*
X54938988Y-10918000D01*
X53265012Y-10918000D01*
X53297925Y-10860993D01*
X53332000Y-10733826D01*
X53332000Y-10602174D01*
X53297925Y-10475007D01*
X53265012Y-10418000D01*
X54938988Y-10418000D01*
X54906075Y-10475007D01*
G37*
%TD.AperFunction*%
%TA.AperFunction,Conductor*%
G36*
X57446075Y-10475007D02*
G01*
X57412000Y-10602174D01*
X57412000Y-10733826D01*
X57446075Y-10860993D01*
X57478988Y-10918000D01*
X55805012Y-10918000D01*
X55837925Y-10860993D01*
X55872000Y-10733826D01*
X55872000Y-10602174D01*
X55837925Y-10475007D01*
X55805012Y-10418000D01*
X57478988Y-10418000D01*
X57446075Y-10475007D01*
G37*
%TD.AperFunction*%
%TA.AperFunction,Conductor*%
G36*
X59986075Y-10475007D02*
G01*
X59952000Y-10602174D01*
X59952000Y-10733826D01*
X59986075Y-10860993D01*
X60018988Y-10918000D01*
X58345012Y-10918000D01*
X58377925Y-10860993D01*
X58412000Y-10733826D01*
X58412000Y-10602174D01*
X58377925Y-10475007D01*
X58345012Y-10418000D01*
X60018988Y-10418000D01*
X59986075Y-10475007D01*
G37*
%TD.AperFunction*%
%TD*%
M02*
