%TF.GenerationSoftware,KiCad,Pcbnew,8.0.7-8.0.7-0~ubuntu22.04.1*%
%TF.CreationDate,2025-01-12T13:00:57-08:00*%
%TF.ProjectId,multichannelheaterdriver_mcu,6d756c74-6963-4686-916e-6e656c686561,rev?*%
%TF.SameCoordinates,Original*%
%TF.FileFunction,Copper,L1,Top*%
%TF.FilePolarity,Positive*%
%FSLAX46Y46*%
G04 Gerber Fmt 4.6, Leading zero omitted, Abs format (unit mm)*
G04 Created by KiCad (PCBNEW 8.0.7-8.0.7-0~ubuntu22.04.1) date 2025-01-12 13:00:57*
%MOMM*%
%LPD*%
G01*
G04 APERTURE LIST*
G04 Aperture macros list*
%AMRoundRect*
0 Rectangle with rounded corners*
0 $1 Rounding radius*
0 $2 $3 $4 $5 $6 $7 $8 $9 X,Y pos of 4 corners*
0 Add a 4 corners polygon primitive as box body*
4,1,4,$2,$3,$4,$5,$6,$7,$8,$9,$2,$3,0*
0 Add four circle primitives for the rounded corners*
1,1,$1+$1,$2,$3*
1,1,$1+$1,$4,$5*
1,1,$1+$1,$6,$7*
1,1,$1+$1,$8,$9*
0 Add four rect primitives between the rounded corners*
20,1,$1+$1,$2,$3,$4,$5,0*
20,1,$1+$1,$4,$5,$6,$7,0*
20,1,$1+$1,$6,$7,$8,$9,0*
20,1,$1+$1,$8,$9,$2,$3,0*%
G04 Aperture macros list end*
%TA.AperFunction,SMDPad,CuDef*%
%ADD10RoundRect,0.243750X0.456250X-0.243750X0.456250X0.243750X-0.456250X0.243750X-0.456250X-0.243750X0*%
%TD*%
%TA.AperFunction,ComponentPad*%
%ADD11C,2.100000*%
%TD*%
%TA.AperFunction,ComponentPad*%
%ADD12C,1.750000*%
%TD*%
%TA.AperFunction,SMDPad,CuDef*%
%ADD13RoundRect,0.250000X0.475000X-0.250000X0.475000X0.250000X-0.475000X0.250000X-0.475000X-0.250000X0*%
%TD*%
%TA.AperFunction,SMDPad,CuDef*%
%ADD14RoundRect,0.250000X0.450000X-0.262500X0.450000X0.262500X-0.450000X0.262500X-0.450000X-0.262500X0*%
%TD*%
%TA.AperFunction,SMDPad,CuDef*%
%ADD15RoundRect,0.250000X-0.450000X0.262500X-0.450000X-0.262500X0.450000X-0.262500X0.450000X0.262500X0*%
%TD*%
%TA.AperFunction,ComponentPad*%
%ADD16R,1.700000X1.700000*%
%TD*%
%TA.AperFunction,ComponentPad*%
%ADD17O,1.700000X1.700000*%
%TD*%
%TA.AperFunction,ComponentPad*%
%ADD18C,6.400000*%
%TD*%
%TA.AperFunction,SMDPad,CuDef*%
%ADD19R,3.500000X1.700000*%
%TD*%
%TA.AperFunction,SMDPad,CuDef*%
%ADD20R,1.700000X3.500000*%
%TD*%
%TA.AperFunction,SMDPad,CuDef*%
%ADD21RoundRect,0.250000X0.300000X0.300000X-0.300000X0.300000X-0.300000X-0.300000X0.300000X-0.300000X0*%
%TD*%
%TA.AperFunction,ViaPad*%
%ADD22C,0.600000*%
%TD*%
%TA.AperFunction,Conductor*%
%ADD23C,0.500000*%
%TD*%
%TA.AperFunction,Conductor*%
%ADD24C,0.200000*%
%TD*%
G04 APERTURE END LIST*
D10*
%TO.P,D4,1,K*%
%TO.N,GND*%
X100332500Y-83752500D03*
%TO.P,D4,2,A*%
%TO.N,Net-(D4-A)*%
X100332500Y-81877500D03*
%TD*%
D11*
%TO.P,SW2,*%
%TO.N,*%
X95937500Y-32670000D03*
X95937500Y-39680000D03*
D12*
%TO.P,SW2,1,A*%
%TO.N,/SW2*%
X98427500Y-33920000D03*
%TO.P,SW2,2,B*%
%TO.N,+3V3*%
X98427500Y-38420000D03*
%TD*%
D13*
%TO.P,C2,1*%
%TO.N,+5V*%
X12446000Y-65339000D03*
%TO.P,C2,2*%
%TO.N,GND*%
X12446000Y-63439000D03*
%TD*%
D14*
%TO.P,R7,1*%
%TO.N,Net-(U1-GPIO19)*%
X98298000Y-62738000D03*
%TO.P,R7,2*%
%TO.N,Net-(D5-A)*%
X98298000Y-60913000D03*
%TD*%
D15*
%TO.P,R5,1*%
%TO.N,/SW2*%
X91440000Y-35179000D03*
%TO.P,R5,2*%
%TO.N,GND*%
X91440000Y-37004000D03*
%TD*%
D10*
%TO.P,D5,1,K*%
%TO.N,GND*%
X100332500Y-62797500D03*
%TO.P,D5,2,A*%
%TO.N,Net-(D5-A)*%
X100332500Y-60922500D03*
%TD*%
D16*
%TO.P,J1,1,Pin_1*%
%TO.N,/~{RESET}*%
X5080000Y-50800000D03*
D17*
%TO.P,J1,2,Pin_2*%
%TO.N,/SDO*%
X5080000Y-53340000D03*
%TO.P,J1,3,Pin_3*%
%TO.N,/SDI*%
X5080000Y-55880000D03*
%TO.P,J1,4,Pin_4*%
%TO.N,/SCLK*%
X5080000Y-58420000D03*
%TO.P,J1,5,Pin_5*%
%TO.N,/~{CS}*%
X5080000Y-60960000D03*
%TO.P,J1,6,Pin_6*%
%TO.N,GND*%
X5080000Y-63500000D03*
%TO.P,J1,7,Pin_7*%
%TO.N,unconnected-(J1-Pin_7-Pad7)*%
X5080000Y-66040000D03*
%TO.P,J1,8,Pin_8*%
%TO.N,+5V*%
X5080000Y-68580000D03*
%TO.P,J1,9,Pin_9*%
%TO.N,/GPIO0{slash}~{ALARMIN}*%
X5080000Y-71120000D03*
%TO.P,J1,10,Pin_10*%
%TO.N,/GPIO1{slash}~{ALARMOUT}*%
X5080000Y-73660000D03*
%TO.P,J1,11,Pin_11*%
%TO.N,/GPIO2{slash}~{ADCTRIG}*%
X5080000Y-76200000D03*
%TO.P,J1,12,Pin_12*%
%TO.N,/GPIO3{slash}~{DAV}*%
X5080000Y-78740000D03*
%TD*%
D15*
%TO.P,R6,1*%
%TO.N,/SW3*%
X91567000Y-50649500D03*
%TO.P,R6,2*%
%TO.N,GND*%
X91567000Y-52474500D03*
%TD*%
D11*
%TO.P,SW3,*%
%TO.N,*%
X95937500Y-47910000D03*
X95937500Y-54920000D03*
D12*
%TO.P,SW3,1,A*%
%TO.N,/SW3*%
X98427500Y-49160000D03*
%TO.P,SW3,2,B*%
%TO.N,+3V3*%
X98427500Y-53660000D03*
%TD*%
D18*
%TO.P,H2,1,1*%
%TO.N,GND*%
X5080000Y-96520000D03*
%TD*%
D13*
%TO.P,C1,1*%
%TO.N,+5V*%
X10160000Y-65405000D03*
%TO.P,C1,2*%
%TO.N,GND*%
X10160000Y-63505000D03*
%TD*%
D11*
%TO.P,SW1,*%
%TO.N,*%
X95937500Y-18020000D03*
X95937500Y-25030000D03*
D12*
%TO.P,SW1,1,A*%
%TO.N,/SW1*%
X98427500Y-19270000D03*
%TO.P,SW1,2,B*%
%TO.N,+3V3*%
X98427500Y-23770000D03*
%TD*%
D16*
%TO.P,J3,1,Pin_1*%
%TO.N,/ADC0*%
X71882000Y-13208000D03*
D17*
%TO.P,J3,2,Pin_2*%
%TO.N,GND*%
X71882000Y-10668000D03*
%TO.P,J3,3,Pin_3*%
%TO.N,/ADC1*%
X74422000Y-13208000D03*
%TO.P,J3,4,Pin_4*%
%TO.N,GND*%
X74422000Y-10668000D03*
%TO.P,J3,5,Pin_5*%
%TO.N,/ADC2*%
X76962000Y-13208000D03*
%TO.P,J3,6,Pin_6*%
%TO.N,GND*%
X76962000Y-10668000D03*
%TD*%
D10*
%TO.P,D2,1,K*%
%TO.N,GND*%
X100332500Y-69782500D03*
%TO.P,D2,2,A*%
%TO.N,Net-(D2-A)*%
X100332500Y-67907500D03*
%TD*%
D16*
%TO.P,J2,1,Pin_1*%
%TO.N,/SPI1_SCK_I2C1_SDA_GP10*%
X47752000Y-13208000D03*
D17*
%TO.P,J2,2,Pin_2*%
%TO.N,GND*%
X47752000Y-10668000D03*
%TO.P,J2,3,Pin_3*%
%TO.N,/SPI1_TX_I2C1_SCL_GP11*%
X50292000Y-13208000D03*
%TO.P,J2,4,Pin_4*%
%TO.N,GND*%
X50292000Y-10668000D03*
%TO.P,J2,5,Pin_5*%
%TO.N,/UART0_TX_SPI1_RX_I2C0_SDA_GP12*%
X52832000Y-13208000D03*
%TO.P,J2,6,Pin_6*%
%TO.N,GND*%
X52832000Y-10668000D03*
%TO.P,J2,7,Pin_7*%
%TO.N,/UART0_RX_SPI1_CS_I2C0_SCL_GP13*%
X55372000Y-13208000D03*
%TO.P,J2,8,Pin_8*%
%TO.N,GND*%
X55372000Y-10668000D03*
%TO.P,J2,9,Pin_9*%
%TO.N,/SPI1_SCK_I2C1_SDA_GP14*%
X57912000Y-13208000D03*
%TO.P,J2,10,Pin_10*%
%TO.N,GND*%
X57912000Y-10668000D03*
%TO.P,J2,11,Pin_11*%
%TO.N,/SPI1_TX_I2C1_SCL_GP15*%
X60452000Y-13208000D03*
%TO.P,J2,12,Pin_12*%
%TO.N,GND*%
X60452000Y-10668000D03*
%TD*%
%TO.P,U1,1,GPIO0*%
%TO.N,/~{RESET}*%
X17780000Y-2032000D03*
D19*
X16880000Y-2032000D03*
D17*
%TO.P,U1,2,GPIO1*%
%TO.N,/~{CS}*%
X17780000Y-4572000D03*
D19*
X16880000Y-4572000D03*
D16*
%TO.P,U1,3,GND*%
%TO.N,GND*%
X17780000Y-7112000D03*
D19*
X16880000Y-7112000D03*
D17*
%TO.P,U1,4,GPIO2*%
%TO.N,/SCLK*%
X17780000Y-9652000D03*
D19*
X16880000Y-9652000D03*
D17*
%TO.P,U1,5,GPIO3*%
%TO.N,/SDI*%
X17780000Y-12192000D03*
D19*
X16880000Y-12192000D03*
D17*
%TO.P,U1,6,GPIO4*%
%TO.N,/SDO*%
X17780000Y-14732000D03*
D19*
X16880000Y-14732000D03*
D17*
%TO.P,U1,7,GPIO5*%
%TO.N,/GPIO0{slash}~{ALARMIN}*%
X17780000Y-17272000D03*
D19*
X16880000Y-17272000D03*
D16*
%TO.P,U1,8,GND*%
%TO.N,GND*%
X17780000Y-19812000D03*
D19*
X16880000Y-19812000D03*
D17*
%TO.P,U1,9,GPIO6*%
%TO.N,/GPIO1{slash}~{ALARMOUT}*%
X17780000Y-22352000D03*
D19*
X16880000Y-22352000D03*
D17*
%TO.P,U1,10,GPIO7*%
%TO.N,/GPIO2{slash}~{ADCTRIG}*%
X17780000Y-24892000D03*
D19*
X16880000Y-24892000D03*
D17*
%TO.P,U1,11,GPIO8*%
%TO.N,/GPIO3{slash}~{DAV}*%
X17780000Y-27432000D03*
D19*
X16880000Y-27432000D03*
D17*
%TO.P,U1,12,GPIO9*%
%TO.N,unconnected-(U1-GPIO9-Pad12)_1*%
X17780000Y-29972000D03*
D19*
%TO.N,unconnected-(U1-GPIO9-Pad12)*%
X16880000Y-29972000D03*
D16*
%TO.P,U1,13,GND*%
%TO.N,GND*%
X17780000Y-32512000D03*
D19*
X16880000Y-32512000D03*
D17*
%TO.P,U1,14,GPIO10*%
%TO.N,/SPI1_SCK_I2C1_SDA_GP10*%
X17780000Y-35052000D03*
D19*
X16880000Y-35052000D03*
D17*
%TO.P,U1,15,GPIO11*%
%TO.N,/SPI1_TX_I2C1_SCL_GP11*%
X17780000Y-37592000D03*
D19*
X16880000Y-37592000D03*
D17*
%TO.P,U1,16,GPIO12*%
%TO.N,/UART0_TX_SPI1_RX_I2C0_SDA_GP12*%
X17780000Y-40132000D03*
D19*
X16880000Y-40132000D03*
D17*
%TO.P,U1,17,GPIO13*%
%TO.N,/UART0_RX_SPI1_CS_I2C0_SCL_GP13*%
X17780000Y-42672000D03*
D19*
X16880000Y-42672000D03*
D16*
%TO.P,U1,18,GND*%
%TO.N,GND*%
X17780000Y-45212000D03*
D19*
X16880000Y-45212000D03*
D17*
%TO.P,U1,19,GPIO14*%
%TO.N,/SPI1_SCK_I2C1_SDA_GP14*%
X17780000Y-47752000D03*
D19*
X16880000Y-47752000D03*
D17*
%TO.P,U1,20,GPIO15*%
%TO.N,/SPI1_TX_I2C1_SCL_GP15*%
X17780000Y-50292000D03*
D19*
X16880000Y-50292000D03*
D17*
%TO.P,U1,21,GPIO16*%
%TO.N,Net-(U1-GPIO16)*%
X35560000Y-50292000D03*
D19*
X36460000Y-50292000D03*
D17*
%TO.P,U1,22,GPIO17*%
%TO.N,Net-(U1-GPIO17)*%
X35560000Y-47752000D03*
D19*
X36460000Y-47752000D03*
D16*
%TO.P,U1,23,GND*%
%TO.N,GND*%
X35560000Y-45212000D03*
D19*
X36460000Y-45212000D03*
D17*
%TO.P,U1,24,GPIO18*%
%TO.N,Net-(U1-GPIO18)*%
X35560000Y-42672000D03*
D19*
X36460000Y-42672000D03*
D17*
%TO.P,U1,25,GPIO19*%
%TO.N,Net-(U1-GPIO19)*%
X35560000Y-40132000D03*
D19*
X36460000Y-40132000D03*
D17*
%TO.P,U1,26,GPIO20*%
%TO.N,/SW3*%
X35560000Y-37592000D03*
D19*
X36460000Y-37592000D03*
D17*
%TO.P,U1,27,GPIO21*%
%TO.N,/SW2*%
X35560000Y-35052000D03*
D19*
X36460000Y-35052000D03*
D16*
%TO.P,U1,28,GND*%
%TO.N,GND*%
X35560000Y-32512000D03*
D19*
X36460000Y-32512000D03*
D17*
%TO.P,U1,29,GPIO22*%
%TO.N,/SW1*%
X35560000Y-29972000D03*
D19*
X36460000Y-29972000D03*
D17*
%TO.P,U1,30,RUN*%
%TO.N,unconnected-(U1-RUN-Pad30)_1*%
X35560000Y-27432000D03*
D19*
%TO.N,unconnected-(U1-RUN-Pad30)*%
X36460000Y-27432000D03*
D17*
%TO.P,U1,31,GPIO26_ADC0*%
%TO.N,/ADC0*%
X35560000Y-24892000D03*
D19*
X36460000Y-24892000D03*
D17*
%TO.P,U1,32,GPIO27_ADC1*%
%TO.N,/ADC1*%
X35560000Y-22352000D03*
D19*
X36460000Y-22352000D03*
D16*
%TO.P,U1,33,AGND*%
%TO.N,GND*%
X35560000Y-19812000D03*
D19*
X36460000Y-19812000D03*
D17*
%TO.P,U1,34,GPIO28_ADC2*%
%TO.N,/ADC2*%
X35560000Y-17272000D03*
D19*
X36460000Y-17272000D03*
D17*
%TO.P,U1,35,ADC_VREF*%
%TO.N,unconnected-(U1-ADC_VREF-Pad35)_1*%
X35560000Y-14732000D03*
D19*
%TO.N,unconnected-(U1-ADC_VREF-Pad35)*%
X36460000Y-14732000D03*
D17*
%TO.P,U1,36,3V3*%
%TO.N,+3V3*%
X35560000Y-12192000D03*
D19*
X36460000Y-12192000D03*
D17*
%TO.P,U1,37,3V3_EN*%
%TO.N,unconnected-(U1-3V3_EN-Pad37)_1*%
X35560000Y-9652000D03*
D19*
%TO.N,unconnected-(U1-3V3_EN-Pad37)*%
X36460000Y-9652000D03*
D16*
%TO.P,U1,38,GND*%
%TO.N,GND*%
X35560000Y-7112000D03*
D19*
X36460000Y-7112000D03*
D17*
%TO.P,U1,39,VSYS*%
%TO.N,Net-(D1-K)*%
X35560000Y-4572000D03*
D19*
X36460000Y-4572000D03*
D17*
%TO.P,U1,40,VBUS*%
%TO.N,unconnected-(U1-VBUS-Pad40)_1*%
X35560000Y-2032000D03*
D19*
%TO.N,unconnected-(U1-VBUS-Pad40)*%
X36460000Y-2032000D03*
D17*
%TO.P,U1,41,SWCLK*%
%TO.N,unconnected-(U1-SWCLK-Pad41)*%
X24130000Y-50062000D03*
D20*
%TO.N,unconnected-(U1-SWCLK-Pad41)_1*%
X24130000Y-50962000D03*
D16*
%TO.P,U1,42,GND*%
%TO.N,unconnected-(U1-GND-Pad42)_1*%
X26670000Y-50062000D03*
D20*
%TO.N,unconnected-(U1-GND-Pad42)*%
X26670000Y-50962000D03*
D17*
%TO.P,U1,43,SWDIO*%
%TO.N,unconnected-(U1-SWDIO-Pad43)_1*%
X29210000Y-50062000D03*
D20*
%TO.N,unconnected-(U1-SWDIO-Pad43)*%
X29210000Y-50962000D03*
%TD*%
D18*
%TO.P,H3,1,1*%
%TO.N,GND*%
X96520000Y-5080000D03*
%TD*%
D14*
%TO.P,R3,1*%
%TO.N,Net-(U1-GPIO16)*%
X98298000Y-83716500D03*
%TO.P,R3,2*%
%TO.N,Net-(D4-A)*%
X98298000Y-81891500D03*
%TD*%
D18*
%TO.P,H1,1,1*%
%TO.N,GND*%
X5080000Y-5080000D03*
%TD*%
D15*
%TO.P,R4,1*%
%TO.N,/SW1*%
X91440000Y-20550500D03*
%TO.P,R4,2*%
%TO.N,GND*%
X91440000Y-22375500D03*
%TD*%
D21*
%TO.P,D1,1,K*%
%TO.N,Net-(D1-K)*%
X12830000Y-68580000D03*
%TO.P,D1,2,A*%
%TO.N,+5V*%
X10030000Y-68580000D03*
%TD*%
D14*
%TO.P,R1,1*%
%TO.N,Net-(U1-GPIO18)*%
X98298000Y-69746500D03*
%TO.P,R1,2*%
%TO.N,Net-(D2-A)*%
X98298000Y-67921500D03*
%TD*%
D10*
%TO.P,D3,1,K*%
%TO.N,GND*%
X100332500Y-76767500D03*
%TO.P,D3,2,A*%
%TO.N,Net-(D3-A)*%
X100332500Y-74892500D03*
%TD*%
D14*
%TO.P,R2,1*%
%TO.N,Net-(U1-GPIO17)*%
X98298000Y-76708000D03*
%TO.P,R2,2*%
%TO.N,Net-(D3-A)*%
X98298000Y-74883000D03*
%TD*%
D18*
%TO.P,H4,1,1*%
%TO.N,GND*%
X96520000Y-96520000D03*
%TD*%
D22*
%TO.N,GND*%
X2540000Y-22860000D03*
X99568000Y-71374000D03*
X99314000Y-78486000D03*
X4318000Y-33528000D03*
X91440000Y-23876000D03*
X99568000Y-64262000D03*
X2540000Y-17780000D03*
X91694000Y-53594000D03*
X91440000Y-38862000D03*
X99568000Y-85090000D03*
%TD*%
D23*
%TO.N,+5V*%
X10030000Y-68580000D02*
X5080000Y-68580000D01*
X10160000Y-65405000D02*
X12380000Y-65405000D01*
X12380000Y-65405000D02*
X12446000Y-65339000D01*
X10160000Y-65405000D02*
X10160000Y-68450000D01*
X10160000Y-68450000D02*
X10030000Y-68580000D01*
%TO.N,GND*%
X100332500Y-69782500D02*
X100332500Y-70609500D01*
X2540000Y-22860000D02*
X2540000Y-31750000D01*
X2540000Y-17780000D02*
X2540000Y-22860000D01*
X100332500Y-84325500D02*
X99568000Y-85090000D01*
X100332500Y-63497500D02*
X99568000Y-64262000D01*
X100332500Y-77467500D02*
X99314000Y-78486000D01*
X100332500Y-62797500D02*
X100332500Y-63497500D01*
X91567000Y-52474500D02*
X91567000Y-53467000D01*
X91440000Y-37004000D02*
X91440000Y-38862000D01*
X33528000Y-21844000D02*
X33528000Y-30480000D01*
X100332500Y-76767500D02*
X100332500Y-77467500D01*
X2540000Y-31750000D02*
X4318000Y-33528000D01*
X33528000Y-30480000D02*
X35560000Y-32512000D01*
X100332500Y-70609500D02*
X99568000Y-71374000D01*
X5080000Y-63500000D02*
X12385000Y-63500000D01*
X35560000Y-19812000D02*
X33528000Y-21844000D01*
X100332500Y-83752500D02*
X100332500Y-84325500D01*
X91567000Y-53467000D02*
X91694000Y-53594000D01*
X91440000Y-22375500D02*
X91440000Y-23876000D01*
X12385000Y-63500000D02*
X12446000Y-63439000D01*
%TO.N,Net-(D1-K)*%
X23114000Y-15748000D02*
X26416000Y-15748000D01*
X31496000Y-10668000D02*
X31496000Y-8636000D01*
X26416000Y-15748000D02*
X31496000Y-10668000D01*
X12830000Y-68580000D02*
X21590000Y-59820000D01*
X21590000Y-59820000D02*
X21590000Y-17272000D01*
X31496000Y-8636000D02*
X35560000Y-4572000D01*
X21590000Y-17272000D02*
X23114000Y-15748000D01*
D24*
%TO.N,Net-(D2-A)*%
X98298000Y-67921500D02*
X100318500Y-67921500D01*
X100318500Y-67921500D02*
X100332500Y-67907500D01*
%TO.N,Net-(D3-A)*%
X100323000Y-74883000D02*
X100332500Y-74892500D01*
X98298000Y-74883000D02*
X100323000Y-74883000D01*
%TO.N,Net-(D4-A)*%
X98298000Y-81891500D02*
X100318500Y-81891500D01*
X100318500Y-81891500D02*
X100332500Y-81877500D01*
%TO.N,Net-(D5-A)*%
X100323000Y-60913000D02*
X100332500Y-60922500D01*
X98298000Y-60913000D02*
X100323000Y-60913000D01*
%TO.N,/SDO*%
X6230000Y-51950000D02*
X6230000Y-49650000D01*
X5480000Y-19920000D02*
X10668000Y-14732000D01*
X5480000Y-48900000D02*
X5480000Y-19920000D01*
X5080000Y-53340000D02*
X5080000Y-51950000D01*
X10668000Y-14732000D02*
X17780000Y-14732000D01*
X5080000Y-51950000D02*
X6230000Y-51950000D01*
X6230000Y-49650000D02*
X5480000Y-48900000D01*
%TO.N,/~{RESET}*%
X5080000Y-50800000D02*
X5080000Y-13172000D01*
X5080000Y-13172000D02*
X16220000Y-2032000D01*
X16220000Y-2032000D02*
X17780000Y-2032000D01*
%TO.N,/SCLK*%
X6350000Y-22860000D02*
X10788000Y-18422000D01*
X6350000Y-48260000D02*
X6350000Y-22860000D01*
X7030000Y-48940000D02*
X6350000Y-48260000D01*
X19450000Y-11322000D02*
X17780000Y-9652000D01*
X10788000Y-18422000D02*
X18930000Y-18422000D01*
X19450000Y-17902000D02*
X19450000Y-11322000D01*
X7030000Y-56470000D02*
X7030000Y-48940000D01*
X5080000Y-58420000D02*
X7030000Y-56470000D01*
X18930000Y-18422000D02*
X19450000Y-17902000D01*
%TO.N,/~{CS}*%
X7430000Y-58610000D02*
X7430000Y-48774315D01*
X18930000Y-20962000D02*
X20320000Y-19572000D01*
X5080000Y-60960000D02*
X7430000Y-58610000D01*
X6750000Y-24130000D02*
X9918000Y-20962000D01*
X7430000Y-48774315D02*
X6750000Y-48094315D01*
X6750000Y-48094315D02*
X6750000Y-24130000D01*
X20320000Y-7112000D02*
X17780000Y-4572000D01*
X20320000Y-19572000D02*
X20320000Y-7112000D01*
X9918000Y-20962000D02*
X18930000Y-20962000D01*
%TO.N,/SDI*%
X12058000Y-15882000D02*
X18930000Y-15882000D01*
X6630000Y-54330000D02*
X6630000Y-49484314D01*
X19050000Y-15762000D02*
X19050000Y-12192000D01*
X5880000Y-48734314D02*
X5880000Y-22060000D01*
X5080000Y-55880000D02*
X6630000Y-54330000D01*
X6630000Y-49484314D02*
X5880000Y-48734314D01*
X5880000Y-22060000D02*
X12058000Y-15882000D01*
X19050000Y-12192000D02*
X17780000Y-12192000D01*
X18930000Y-15882000D02*
X19050000Y-15762000D01*
%TO.N,/ADC1*%
X73272000Y-12058000D02*
X70732000Y-12058000D01*
X74422000Y-13208000D02*
X73272000Y-12058000D01*
X60438000Y-22352000D02*
X35560000Y-22352000D01*
X70732000Y-12058000D02*
X60438000Y-22352000D01*
%TO.N,/ADC0*%
X60198000Y-24892000D02*
X35560000Y-24892000D01*
X71882000Y-13208000D02*
X60198000Y-24892000D01*
%TO.N,/ADC2*%
X73032000Y-11144346D02*
X73032000Y-10191654D01*
X76962000Y-13208000D02*
X75812000Y-12058000D01*
X70746000Y-9518000D02*
X62992000Y-17272000D01*
X73945654Y-12058000D02*
X73032000Y-11144346D01*
X73032000Y-10191654D02*
X72358346Y-9518000D01*
X62992000Y-17272000D02*
X35560000Y-17272000D01*
X72358346Y-9518000D02*
X70746000Y-9518000D01*
X75812000Y-12058000D02*
X73945654Y-12058000D01*
%TO.N,Net-(U1-GPIO18)*%
X35560000Y-42672000D02*
X64516000Y-42672000D01*
X64516000Y-42672000D02*
X91590500Y-69746500D01*
X91590500Y-69746500D02*
X98298000Y-69746500D01*
%TO.N,Net-(U1-GPIO17)*%
X35560000Y-47752000D02*
X62484000Y-47752000D01*
X91440000Y-76708000D02*
X98298000Y-76708000D01*
X62484000Y-47752000D02*
X91440000Y-76708000D01*
%TO.N,Net-(U1-GPIO16)*%
X60960000Y-50292000D02*
X94384500Y-83716500D01*
X94384500Y-83716500D02*
X98298000Y-83716500D01*
X35560000Y-50292000D02*
X60960000Y-50292000D01*
%TO.N,/SW1*%
X82018500Y-29972000D02*
X91440000Y-20550500D01*
X97147000Y-20550500D02*
X91440000Y-20550500D01*
X98427500Y-19270000D02*
X97147000Y-20550500D01*
X35560000Y-29972000D02*
X82018500Y-29972000D01*
%TO.N,/SW2*%
X91440000Y-35179000D02*
X97168500Y-35179000D01*
X97168500Y-35179000D02*
X98427500Y-33920000D01*
X35560000Y-35052000D02*
X38100000Y-35052000D01*
X38100000Y-35052000D02*
X38227000Y-35179000D01*
X38227000Y-35179000D02*
X91440000Y-35179000D01*
%TO.N,/SW3*%
X78509500Y-37592000D02*
X91567000Y-50649500D01*
X91567000Y-50649500D02*
X96938000Y-50649500D01*
X96938000Y-50649500D02*
X98427500Y-49160000D01*
X35560000Y-37592000D02*
X78509500Y-37592000D01*
%TO.N,Net-(U1-GPIO19)*%
X90932000Y-62738000D02*
X98298000Y-62738000D01*
X68326000Y-40132000D02*
X90932000Y-62738000D01*
X35560000Y-40132000D02*
X68326000Y-40132000D01*
D23*
%TO.N,+3V3*%
X98427500Y-38420000D02*
X99822000Y-37025500D01*
X99822000Y-52265500D02*
X98427500Y-53660000D01*
X99822000Y-22098000D02*
X99822000Y-22375500D01*
X85857333Y-4826000D02*
X99822000Y-18790667D01*
X99822000Y-18790667D02*
X99822000Y-22098000D01*
X99822000Y-36830000D02*
X99822000Y-52265500D01*
X99822000Y-37025500D02*
X99822000Y-36830000D01*
X99822000Y-22375500D02*
X98427500Y-23770000D01*
X40132000Y-12192000D02*
X47498000Y-4826000D01*
X35560000Y-12192000D02*
X40132000Y-12192000D01*
X99822000Y-22098000D02*
X99822000Y-36830000D01*
X47498000Y-4826000D02*
X85857333Y-4826000D01*
%TD*%
M02*
