M48
; DRILL file {KiCad 8.0.7-8.0.7-0~ubuntu22.04.1} date 2025-01-12T13:00:54-0800
; FORMAT={-:-/ absolute / inch / decimal}
; #@! TF.CreationDate,2025-01-12T13:00:54-08:00
; #@! TF.GenerationSoftware,Kicad,Pcbnew,8.0.7-8.0.7-0~ubuntu22.04.1
; #@! TF.FileFunction,Plated,1,2,PTH
FMAT,2
INCH
; #@! TA.AperFunction,Plated,PTH,ViaDrill
T1C0.0118
; #@! TA.AperFunction,Plated,PTH,ComponentDrill
T2C0.0390
; #@! TA.AperFunction,Plated,PTH,ComponentDrill
T3C0.0394
; #@! TA.AperFunction,Plated,PTH,ComponentDrill
T4C0.0402
; #@! TA.AperFunction,Plated,PTH,ComponentDrill
T5C0.0512
; #@! TA.AperFunction,Plated,PTH,ComponentDrill
T6C0.1260
%
G90
G05
T1
X0.1Y-0.7
X0.1Y-0.9
X0.17Y-1.32
X3.6Y-0.94
X3.6Y-1.53
X3.61Y-2.11
X3.91Y-3.09
X3.92Y-2.53
X3.92Y-2.81
X3.92Y-3.35
T2
X3.8751Y-0.7587
X3.8751Y-0.9358
X3.8751Y-1.3354
X3.8751Y-1.5126
X3.8751Y-1.9354
X3.8751Y-2.1126
T3
X0.2Y-2.0
X0.2Y-2.1
X0.2Y-2.2
X0.2Y-2.3
X0.2Y-2.4
X0.2Y-2.5
X0.2Y-2.6
X0.2Y-2.7
X0.2Y-2.8
X0.2Y-2.9
X0.2Y-3.0
X0.2Y-3.1
X1.88Y-0.42
X1.88Y-0.52
X1.98Y-0.42
X1.98Y-0.52
X2.08Y-0.42
X2.08Y-0.52
X2.18Y-0.42
X2.18Y-0.52
X2.28Y-0.42
X2.28Y-0.52
X2.38Y-0.42
X2.38Y-0.52
X2.83Y-0.42
X2.83Y-0.52
X2.93Y-0.42
X2.93Y-0.52
X3.03Y-0.42
X3.03Y-0.52
T4
X0.7Y-0.08
X0.7Y-0.18
X0.7Y-0.28
X0.7Y-0.38
X0.7Y-0.48
X0.7Y-0.58
X0.7Y-0.68
X0.7Y-0.78
X0.7Y-0.88
X0.7Y-0.98
X0.7Y-1.08
X0.7Y-1.18
X0.7Y-1.28
X0.7Y-1.38
X0.7Y-1.48
X0.7Y-1.58
X0.7Y-1.68
X0.7Y-1.78
X0.7Y-1.88
X0.7Y-1.98
X0.95Y-1.9709
X1.05Y-1.9709
X1.15Y-1.9709
X1.4Y-0.08
X1.4Y-0.18
X1.4Y-0.28
X1.4Y-0.38
X1.4Y-0.48
X1.4Y-0.58
X1.4Y-0.68
X1.4Y-0.78
X1.4Y-0.88
X1.4Y-0.98
X1.4Y-1.08
X1.4Y-1.18
X1.4Y-1.28
X1.4Y-1.38
X1.4Y-1.48
X1.4Y-1.58
X1.4Y-1.68
X1.4Y-1.78
X1.4Y-1.88
X1.4Y-1.98
T5
X3.7771Y-0.7094
X3.7771Y-0.9854
X3.7771Y-1.2862
X3.7771Y-1.5622
X3.7771Y-1.8862
X3.7771Y-2.1622
T6
X0.2Y-0.2
X0.2Y-3.8
X3.8Y-0.2
X3.8Y-3.8
M30
