%TF.GenerationSoftware,KiCad,Pcbnew,8.0.7-8.0.7-0~ubuntu22.04.1*%
%TF.CreationDate,2025-01-12T13:00:57-08:00*%
%TF.ProjectId,multichannelheaterdriver_mcu,6d756c74-6963-4686-916e-6e656c686561,rev?*%
%TF.SameCoordinates,Original*%
%TF.FileFunction,Soldermask,Bot*%
%TF.FilePolarity,Negative*%
%FSLAX46Y46*%
G04 Gerber Fmt 4.6, Leading zero omitted, Abs format (unit mm)*
G04 Created by KiCad (PCBNEW 8.0.7-8.0.7-0~ubuntu22.04.1) date 2025-01-12 13:00:57*
%MOMM*%
%LPD*%
G01*
G04 APERTURE LIST*
%ADD10C,2.100000*%
%ADD11C,1.750000*%
%ADD12R,1.700000X1.700000*%
%ADD13O,1.700000X1.700000*%
%ADD14C,6.400000*%
%ADD15O,1.800000X1.800000*%
%ADD16O,1.500000X1.500000*%
G04 APERTURE END LIST*
D10*
%TO.C,SW2*%
X95937500Y-32670000D03*
X95937500Y-39680000D03*
D11*
X98427500Y-33920000D03*
X98427500Y-38420000D03*
%TD*%
D12*
%TO.C,J1*%
X5080000Y-50800000D03*
D13*
X5080000Y-53340000D03*
X5080000Y-55880000D03*
X5080000Y-58420000D03*
X5080000Y-60960000D03*
X5080000Y-63500000D03*
X5080000Y-66040000D03*
X5080000Y-68580000D03*
X5080000Y-71120000D03*
X5080000Y-73660000D03*
X5080000Y-76200000D03*
X5080000Y-78740000D03*
%TD*%
D10*
%TO.C,SW3*%
X95937500Y-47910000D03*
X95937500Y-54920000D03*
D11*
X98427500Y-49160000D03*
X98427500Y-53660000D03*
%TD*%
D14*
%TO.C,H2*%
X5080000Y-96520000D03*
%TD*%
D10*
%TO.C,SW1*%
X95937500Y-18020000D03*
X95937500Y-25030000D03*
D11*
X98427500Y-19270000D03*
X98427500Y-23770000D03*
%TD*%
D12*
%TO.C,J3*%
X71882000Y-13208000D03*
D13*
X71882000Y-10668000D03*
X74422000Y-13208000D03*
X74422000Y-10668000D03*
X76962000Y-13208000D03*
X76962000Y-10668000D03*
%TD*%
D12*
%TO.C,J2*%
X47752000Y-13208000D03*
D13*
X47752000Y-10668000D03*
X50292000Y-13208000D03*
X50292000Y-10668000D03*
X52832000Y-13208000D03*
X52832000Y-10668000D03*
X55372000Y-13208000D03*
X55372000Y-10668000D03*
X57912000Y-13208000D03*
X57912000Y-10668000D03*
X60452000Y-13208000D03*
X60452000Y-10668000D03*
%TD*%
D15*
%TO.C,U1*%
X23945000Y-2162000D03*
D16*
X24245000Y-5192000D03*
X29095000Y-5192000D03*
D15*
X29395000Y-2162000D03*
D13*
X17780000Y-2032000D03*
X17780000Y-4572000D03*
D12*
X17780000Y-7112000D03*
D13*
X17780000Y-9652000D03*
X17780000Y-12192000D03*
X17780000Y-14732000D03*
X17780000Y-17272000D03*
D12*
X17780000Y-19812000D03*
D13*
X17780000Y-22352000D03*
X17780000Y-24892000D03*
X17780000Y-27432000D03*
X17780000Y-29972000D03*
D12*
X17780000Y-32512000D03*
D13*
X17780000Y-35052000D03*
X17780000Y-37592000D03*
X17780000Y-40132000D03*
X17780000Y-42672000D03*
D12*
X17780000Y-45212000D03*
D13*
X17780000Y-47752000D03*
X17780000Y-50292000D03*
X35560000Y-50292000D03*
X35560000Y-47752000D03*
D12*
X35560000Y-45212000D03*
D13*
X35560000Y-42672000D03*
X35560000Y-40132000D03*
X35560000Y-37592000D03*
X35560000Y-35052000D03*
D12*
X35560000Y-32512000D03*
D13*
X35560000Y-29972000D03*
X35560000Y-27432000D03*
X35560000Y-24892000D03*
X35560000Y-22352000D03*
D12*
X35560000Y-19812000D03*
D13*
X35560000Y-17272000D03*
X35560000Y-14732000D03*
X35560000Y-12192000D03*
X35560000Y-9652000D03*
D12*
X35560000Y-7112000D03*
D13*
X35560000Y-4572000D03*
X35560000Y-2032000D03*
X24130000Y-50062000D03*
D12*
X26670000Y-50062000D03*
D13*
X29210000Y-50062000D03*
%TD*%
D14*
%TO.C,H3*%
X96520000Y-5080000D03*
%TD*%
%TO.C,H1*%
X5080000Y-5080000D03*
%TD*%
%TO.C,H4*%
X96520000Y-96520000D03*
%TD*%
M02*
