%TF.GenerationSoftware,KiCad,Pcbnew,8.0.7-8.0.7-0~ubuntu22.04.1*%
%TF.CreationDate,2025-01-12T13:10:07-08:00*%
%TF.ProjectId,multichannelheaterdriver_amc7836,6d756c74-6963-4686-916e-6e656c686561,rev?*%
%TF.SameCoordinates,Original*%
%TF.FileFunction,Copper,L6,Bot*%
%TF.FilePolarity,Positive*%
%FSLAX46Y46*%
G04 Gerber Fmt 4.6, Leading zero omitted, Abs format (unit mm)*
G04 Created by KiCad (PCBNEW 8.0.7-8.0.7-0~ubuntu22.04.1) date 2025-01-12 13:10:07*
%MOMM*%
%LPD*%
G01*
G04 APERTURE LIST*
%TA.AperFunction,ComponentPad*%
%ADD10C,0.400000*%
%TD*%
%TA.AperFunction,ComponentPad*%
%ADD11R,1.700000X1.700000*%
%TD*%
%TA.AperFunction,ComponentPad*%
%ADD12O,1.700000X1.700000*%
%TD*%
%TA.AperFunction,ComponentPad*%
%ADD13R,2.200000X2.200000*%
%TD*%
%TA.AperFunction,ComponentPad*%
%ADD14O,2.200000X2.200000*%
%TD*%
%TA.AperFunction,ComponentPad*%
%ADD15C,6.400000*%
%TD*%
%TA.AperFunction,ComponentPad*%
%ADD16R,1.600000X1.600000*%
%TD*%
%TA.AperFunction,ComponentPad*%
%ADD17C,1.600000*%
%TD*%
%TA.AperFunction,ComponentPad*%
%ADD18R,4.000000X2.000000*%
%TD*%
%TA.AperFunction,ComponentPad*%
%ADD19O,3.300000X2.000000*%
%TD*%
%TA.AperFunction,ComponentPad*%
%ADD20O,2.000000X3.500000*%
%TD*%
%TA.AperFunction,ViaPad*%
%ADD21C,0.600000*%
%TD*%
%TA.AperFunction,Conductor*%
%ADD22C,0.500000*%
%TD*%
%TA.AperFunction,Conductor*%
%ADD23C,1.000000*%
%TD*%
%TA.AperFunction,Conductor*%
%ADD24C,0.200000*%
%TD*%
G04 APERTURE END LIST*
D10*
%TO.P,U1,65,THERMAL_PAD*%
%TO.N,GND*%
X45630000Y-59040000D03*
X45630000Y-60340000D03*
X45630000Y-61640000D03*
X45630000Y-62940000D03*
X45630000Y-64240000D03*
X45630000Y-65540000D03*
X46930000Y-59040000D03*
X46930000Y-60340000D03*
X46930000Y-61640000D03*
X46930000Y-62940000D03*
X46930000Y-64240000D03*
X46930000Y-65540000D03*
X48230000Y-59040000D03*
X48230000Y-60340000D03*
X48230000Y-61640000D03*
X48230000Y-62940000D03*
X48230000Y-64240000D03*
X48230000Y-65540000D03*
X49530000Y-59040000D03*
X49530000Y-60340000D03*
X49530000Y-61640000D03*
X49530000Y-62940000D03*
X49530000Y-64240000D03*
X49530000Y-65540000D03*
X50830000Y-59040000D03*
X50830000Y-60340000D03*
X50830000Y-61640000D03*
X50830000Y-62940000D03*
X50830000Y-64240000D03*
X50830000Y-65540000D03*
X52130000Y-59040000D03*
X52130000Y-60340000D03*
X52130000Y-61640000D03*
X52130000Y-62940000D03*
X52130000Y-64240000D03*
X52130000Y-65540000D03*
%TD*%
D11*
%TO.P,J5,1,Pin_1*%
%TO.N,GND*%
X12700000Y-97790000D03*
D12*
%TO.P,J5,2,Pin_2*%
%TO.N,+36V*%
X12700000Y-95250000D03*
%TO.P,J5,3,Pin_3*%
%TO.N,GND*%
X15240000Y-97790000D03*
%TO.P,J5,4,Pin_4*%
%TO.N,+10V*%
X15240000Y-95250000D03*
%TO.P,J5,5,Pin_5*%
%TO.N,GND*%
X17780000Y-97790000D03*
%TO.P,J5,6,Pin_6*%
%TO.N,+5V*%
X17780000Y-95250000D03*
%TO.P,J5,7,Pin_7*%
%TO.N,GND*%
X20320000Y-97790000D03*
%TO.P,J5,8,Pin_8*%
%TO.N,+3V3*%
X20320000Y-95250000D03*
%TD*%
D13*
%TO.P,D5,1,K*%
%TO.N,+36V*%
X12446000Y-25400000D03*
D14*
%TO.P,D5,2,A*%
%TO.N,Net-(D5-A)*%
X12446000Y-15240000D03*
%TD*%
D15*
%TO.P,H1,1,1*%
%TO.N,GND*%
X5080000Y-5080000D03*
%TD*%
D16*
%TO.P,C7,1*%
%TO.N,Net-(SW1-B)*%
X21550000Y-19050000D03*
D17*
%TO.P,C7,2*%
%TO.N,GND*%
X19050000Y-19050000D03*
%TD*%
D11*
%TO.P,J4,1,Pin_1*%
%TO.N,GND*%
X97790000Y-90170000D03*
D12*
%TO.P,J4,2,Pin_2*%
%TO.N,/ADC15*%
X95250000Y-90170000D03*
%TO.P,J4,3,Pin_3*%
%TO.N,GND*%
X97790000Y-87630000D03*
%TO.P,J4,4,Pin_4*%
%TO.N,/DAC15*%
X95250000Y-87630000D03*
%TO.P,J4,5,Pin_5*%
%TO.N,GND*%
X97790000Y-85090000D03*
%TO.P,J4,6,Pin_6*%
%TO.N,/ADC14*%
X95250000Y-85090000D03*
%TO.P,J4,7,Pin_7*%
%TO.N,GND*%
X97790000Y-82550000D03*
%TO.P,J4,8,Pin_8*%
%TO.N,/DAC14*%
X95250000Y-82550000D03*
%TO.P,J4,9,Pin_9*%
%TO.N,GND*%
X97790000Y-80010000D03*
%TO.P,J4,10,Pin_10*%
%TO.N,/ADC13*%
X95250000Y-80010000D03*
%TO.P,J4,11,Pin_11*%
%TO.N,GND*%
X97790000Y-77470000D03*
%TO.P,J4,12,Pin_12*%
%TO.N,/DAC13*%
X95250000Y-77470000D03*
%TO.P,J4,13,Pin_13*%
%TO.N,GND*%
X97790000Y-74930000D03*
%TO.P,J4,14,Pin_14*%
%TO.N,/ADC12*%
X95250000Y-74930000D03*
%TO.P,J4,15,Pin_15*%
%TO.N,GND*%
X97790000Y-72390000D03*
%TO.P,J4,16,Pin_16*%
%TO.N,/DAC12*%
X95250000Y-72390000D03*
%TO.P,J4,17,Pin_17*%
%TO.N,GND*%
X97790000Y-69850000D03*
%TO.P,J4,18,Pin_18*%
%TO.N,/ADC11*%
X95250000Y-69850000D03*
%TO.P,J4,19,Pin_19*%
%TO.N,GND*%
X97790000Y-67310000D03*
%TO.P,J4,20,Pin_20*%
%TO.N,/DAC11*%
X95250000Y-67310000D03*
%TO.P,J4,21,Pin_21*%
%TO.N,GND*%
X97790000Y-64770000D03*
%TO.P,J4,22,Pin_22*%
%TO.N,/ADC10*%
X95250000Y-64770000D03*
%TO.P,J4,23,Pin_23*%
%TO.N,GND*%
X97790000Y-62230000D03*
%TO.P,J4,24,Pin_24*%
%TO.N,/DAC10*%
X95250000Y-62230000D03*
%TO.P,J4,25,Pin_25*%
%TO.N,GND*%
X97790000Y-59690000D03*
%TO.P,J4,26,Pin_26*%
%TO.N,/ADC9*%
X95250000Y-59690000D03*
%TO.P,J4,27,Pin_27*%
%TO.N,GND*%
X97790000Y-57150000D03*
%TO.P,J4,28,Pin_28*%
%TO.N,/DAC9*%
X95250000Y-57150000D03*
%TO.P,J4,29,Pin_29*%
%TO.N,GND*%
X97790000Y-54610000D03*
%TO.P,J4,30,Pin_30*%
%TO.N,/ADC8*%
X95250000Y-54610000D03*
%TO.P,J4,31,Pin_31*%
%TO.N,GND*%
X97790000Y-52070000D03*
%TO.P,J4,32,Pin_32*%
%TO.N,/DAC8*%
X95250000Y-52070000D03*
%TO.P,J4,33,Pin_33*%
%TO.N,GND*%
X97790000Y-49530000D03*
%TO.P,J4,34,Pin_34*%
%TO.N,/ADC7*%
X95250000Y-49530000D03*
%TO.P,J4,35,Pin_35*%
%TO.N,GND*%
X97790000Y-46990000D03*
%TO.P,J4,36,Pin_36*%
%TO.N,/DAC7*%
X95250000Y-46990000D03*
%TO.P,J4,37,Pin_37*%
%TO.N,GND*%
X97790000Y-44450000D03*
%TO.P,J4,38,Pin_38*%
%TO.N,/ADC6*%
X95250000Y-44450000D03*
%TO.P,J4,39,Pin_39*%
%TO.N,GND*%
X97790000Y-41910000D03*
%TO.P,J4,40,Pin_40*%
%TO.N,/DAC6*%
X95250000Y-41910000D03*
%TO.P,J4,41,Pin_41*%
%TO.N,GND*%
X97790000Y-39370000D03*
%TO.P,J4,42,Pin_42*%
%TO.N,/ADC5*%
X95250000Y-39370000D03*
%TO.P,J4,43,Pin_43*%
%TO.N,GND*%
X97790000Y-36830000D03*
%TO.P,J4,44,Pin_44*%
%TO.N,/DAC5*%
X95250000Y-36830000D03*
%TO.P,J4,45,Pin_45*%
%TO.N,GND*%
X97790000Y-34290000D03*
%TO.P,J4,46,Pin_46*%
%TO.N,/ADC4*%
X95250000Y-34290000D03*
%TO.P,J4,47,Pin_47*%
%TO.N,GND*%
X97790000Y-31750000D03*
%TO.P,J4,48,Pin_48*%
%TO.N,/DAC4*%
X95250000Y-31750000D03*
%TO.P,J4,49,Pin_49*%
%TO.N,GND*%
X97790000Y-29210000D03*
%TO.P,J4,50,Pin_50*%
%TO.N,/ADC3*%
X95250000Y-29210000D03*
%TO.P,J4,51,Pin_51*%
%TO.N,GND*%
X97790000Y-26670000D03*
%TO.P,J4,52,Pin_52*%
%TO.N,/DAC3*%
X95250000Y-26670000D03*
%TO.P,J4,53,Pin_53*%
%TO.N,GND*%
X97790000Y-24130000D03*
%TO.P,J4,54,Pin_54*%
%TO.N,/ADC2*%
X95250000Y-24130000D03*
%TO.P,J4,55,Pin_55*%
%TO.N,GND*%
X97790000Y-21590000D03*
%TO.P,J4,56,Pin_56*%
%TO.N,/DAC2*%
X95250000Y-21590000D03*
%TO.P,J4,57,Pin_57*%
%TO.N,GND*%
X97790000Y-19050000D03*
%TO.P,J4,58,Pin_58*%
%TO.N,/ADC1*%
X95250000Y-19050000D03*
%TO.P,J4,59,Pin_59*%
%TO.N,GND*%
X97790000Y-16510000D03*
%TO.P,J4,60,Pin_60*%
%TO.N,/DAC1*%
X95250000Y-16510000D03*
%TO.P,J4,61,Pin_61*%
%TO.N,GND*%
X97790000Y-13970000D03*
%TO.P,J4,62,Pin_62*%
%TO.N,/ADC0*%
X95250000Y-13970000D03*
%TO.P,J4,63,Pin_63*%
%TO.N,GND*%
X97790000Y-11430000D03*
%TO.P,J4,64,Pin_64*%
%TO.N,/DAC0*%
X95250000Y-11430000D03*
%TD*%
D15*
%TO.P,H4,1,1*%
%TO.N,GND*%
X96520000Y-96520000D03*
%TD*%
D11*
%TO.P,J2,1,Pin_1*%
%TO.N,Net-(J2-Pin_1)*%
X5080000Y-50800000D03*
D12*
%TO.P,J2,2,Pin_2*%
%TO.N,Net-(J2-Pin_2)*%
X5080000Y-53340000D03*
%TO.P,J2,3,Pin_3*%
%TO.N,Net-(J2-Pin_3)*%
X5080000Y-55880000D03*
%TO.P,J2,4,Pin_4*%
%TO.N,Net-(J2-Pin_4)*%
X5080000Y-58420000D03*
%TO.P,J2,5,Pin_5*%
%TO.N,Net-(J2-Pin_5)*%
X5080000Y-60960000D03*
%TO.P,J2,6,Pin_6*%
%TO.N,GND*%
X5080000Y-63500000D03*
%TO.P,J2,7,Pin_7*%
%TO.N,+3V3*%
X5080000Y-66040000D03*
%TO.P,J2,8,Pin_8*%
%TO.N,+5V*%
X5080000Y-68580000D03*
%TO.P,J2,9,Pin_9*%
%TO.N,Net-(J2-Pin_9)*%
X5080000Y-71120000D03*
%TO.P,J2,10,Pin_10*%
%TO.N,Net-(J2-Pin_10)*%
X5080000Y-73660000D03*
%TO.P,J2,11,Pin_11*%
%TO.N,Net-(J2-Pin_11)*%
X5080000Y-76200000D03*
%TO.P,J2,12,Pin_12*%
%TO.N,Net-(J2-Pin_12)*%
X5080000Y-78740000D03*
%TD*%
D15*
%TO.P,H3,1,1*%
%TO.N,GND*%
X96520000Y-5080000D03*
%TD*%
D11*
%TO.P,J1,1,Pin_1*%
%TO.N,Net-(J1-Pin_1)*%
X66040000Y-12700000D03*
D12*
%TO.P,J1,2,Pin_2*%
%TO.N,GND*%
X66040000Y-10160000D03*
%TO.P,J1,3,Pin_3*%
%TO.N,Net-(J1-Pin_3)*%
X68580000Y-12700000D03*
%TO.P,J1,4,Pin_4*%
%TO.N,GND*%
X68580000Y-10160000D03*
%TO.P,J1,5,Pin_5*%
%TO.N,Net-(J1-Pin_5)*%
X71120000Y-12700000D03*
%TO.P,J1,6,Pin_6*%
%TO.N,GND*%
X71120000Y-10160000D03*
%TO.P,J1,7,Pin_7*%
%TO.N,Net-(J1-Pin_7)*%
X73660000Y-12700000D03*
%TO.P,J1,8,Pin_8*%
%TO.N,GND*%
X73660000Y-10160000D03*
%TD*%
D15*
%TO.P,H2,1,1*%
%TO.N,GND*%
X5080000Y-96520000D03*
%TD*%
D11*
%TO.P,J3,1,Pin_1*%
%TO.N,Net-(J3-Pin_1)*%
X54420000Y-12700000D03*
D12*
%TO.P,J3,2,Pin_2*%
%TO.N,GND*%
X54420000Y-10160000D03*
%TO.P,J3,3,Pin_3*%
%TO.N,Net-(J3-Pin_3)*%
X56960000Y-12700000D03*
%TO.P,J3,4,Pin_4*%
%TO.N,GND*%
X56960000Y-10160000D03*
%TO.P,J3,5,Pin_5*%
%TO.N,Net-(J3-Pin_5)*%
X59500000Y-12700000D03*
%TO.P,J3,6,Pin_6*%
%TO.N,GND*%
X59500000Y-10160000D03*
%TD*%
D18*
%TO.P,J7,1*%
%TO.N,Net-(D5-A)*%
X20320000Y-12700000D03*
D19*
%TO.P,J7,2*%
%TO.N,GND*%
X20320000Y-6700000D03*
D20*
%TO.P,J7,MP,MountPin*%
X24820000Y-5700000D03*
X15820000Y-5700000D03*
%TD*%
D16*
%TO.P,C8,1*%
%TO.N,+36V*%
X12446000Y-29758000D03*
D17*
%TO.P,C8,2*%
%TO.N,GND*%
X12446000Y-32258000D03*
%TD*%
D11*
%TO.P,SW1,1,A*%
%TO.N,Net-(SW1-A)*%
X34285000Y-10160000D03*
D12*
%TO.P,SW1,2,B*%
%TO.N,Net-(SW1-B)*%
X36825000Y-10160000D03*
%TD*%
D21*
%TO.N,GND*%
X39370000Y-36830000D03*
X21590000Y-36830000D03*
X19050000Y-30480000D03*
X58420000Y-57658000D03*
X22100000Y-30480000D03*
X43180000Y-55290000D03*
X45974000Y-74422000D03*
X39370000Y-27940000D03*
X22098000Y-24638000D03*
X2540000Y-17780000D03*
X47030000Y-54356000D03*
X2540000Y-35560000D03*
X27940000Y-22860000D03*
X26670000Y-29210000D03*
X44704000Y-51816000D03*
X50759704Y-55251112D03*
X49784000Y-53848000D03*
X20575000Y-28805000D03*
X20320000Y-38100000D03*
X31750000Y-26670000D03*
X43942000Y-69088000D03*
X19050000Y-24638000D03*
X26670000Y-36830000D03*
X2540000Y-25400000D03*
X48768000Y-70358000D03*
X50800000Y-48260000D03*
X31750000Y-38100000D03*
%TO.N,+5V*%
X34290000Y-27940000D03*
X5080000Y-25400000D03*
X44450000Y-53340000D03*
X55880000Y-53340000D03*
%TO.N,+3V3*%
X25908000Y-34036000D03*
X5588000Y-35052000D03*
%TO.N,+10V*%
X44450000Y-74422000D03*
X38895000Y-35085000D03*
X38100000Y-25720000D03*
X48260000Y-48260000D03*
X38100000Y-15240000D03*
X3810000Y-17780000D03*
%TO.N,+36V*%
X12700000Y-43180000D03*
%TO.N,Net-(J3-Pin_1)*%
X61468000Y-64808003D03*
%TO.N,Net-(J3-Pin_5)*%
X61468000Y-63140000D03*
%TO.N,Net-(J3-Pin_3)*%
X61468000Y-64008000D03*
%TO.N,Net-(J1-Pin_1)*%
X40040000Y-63678528D03*
%TO.N,/DAC7*%
X38735000Y-74930000D03*
%TO.N,/DAC8*%
X53340000Y-48260000D03*
%TO.N,/DAC12*%
X47625000Y-50800000D03*
%TO.N,/DAC2*%
X35560000Y-71755000D03*
%TO.N,/DAC0*%
X34290000Y-70485000D03*
%TO.N,/DAC1*%
X34925000Y-71120000D03*
%TO.N,/DAC10*%
X52070000Y-49530000D03*
%TO.N,/DAC13*%
X46990000Y-51435000D03*
%TO.N,/DAC5*%
X37465000Y-73660000D03*
%TO.N,/DAC6*%
X38100000Y-74295000D03*
%TO.N,/DAC3*%
X36195000Y-72390000D03*
%TO.N,/DAC9*%
X52705000Y-48895000D03*
%TO.N,/DAC14*%
X46355000Y-52070000D03*
%TO.N,/DAC11*%
X51435000Y-50165000D03*
%TO.N,/DAC15*%
X45720000Y-52705000D03*
%TO.N,/DAC4*%
X36830000Y-73025000D03*
%TO.N,/36V_mon*%
X58928000Y-65186000D03*
X19050000Y-43180000D03*
%TO.N,/10V_mon*%
X36830000Y-43180000D03*
X57023000Y-64786000D03*
%TO.N,Net-(J1-Pin_3)*%
X40674135Y-64166254D03*
%TO.N,Net-(J1-Pin_7)*%
X40640000Y-65405000D03*
%TO.N,Net-(J1-Pin_5)*%
X41302359Y-64661571D03*
%TO.N,Net-(SW1-B)*%
X27940000Y-17780000D03*
%TD*%
D22*
%TO.N,+3V3*%
X5588000Y-34116000D02*
X5588000Y-35052000D01*
X25908000Y-28448000D02*
X24638000Y-27178000D01*
X2032000Y-38608000D02*
X5588000Y-35052000D01*
X24638000Y-27178000D02*
X14224000Y-27178000D01*
X14224000Y-27178000D02*
X13462000Y-27940000D01*
X5080000Y-66040000D02*
X3810000Y-66040000D01*
X13462000Y-27940000D02*
X11764000Y-27940000D01*
X25908000Y-34036000D02*
X25908000Y-28448000D01*
X2032000Y-64262000D02*
X2032000Y-38608000D01*
X3810000Y-66040000D02*
X2032000Y-64262000D01*
X11764000Y-27940000D02*
X5588000Y-34116000D01*
D23*
%TO.N,+36V*%
X12700000Y-95250000D02*
X12700000Y-43180000D01*
D24*
%TO.N,Net-(J3-Pin_1)*%
X61468000Y-64808003D02*
X61267997Y-64608000D01*
X54420000Y-57808529D02*
X54420000Y-12700000D01*
X61267997Y-64608000D02*
X61219471Y-64608000D01*
X61219471Y-64608000D02*
X54420000Y-57808529D01*
%TO.N,Net-(J3-Pin_5)*%
X59500000Y-61172000D02*
X59500000Y-12700000D01*
X61468000Y-63140000D02*
X59500000Y-61172000D01*
%TO.N,Net-(J3-Pin_3)*%
X61468000Y-64008000D02*
X56960000Y-59500000D01*
X56960000Y-59500000D02*
X56960000Y-12700000D01*
%TO.N,Net-(J1-Pin_1)*%
X40005000Y-63643528D02*
X40005000Y-24130000D01*
X40005000Y-24130000D02*
X42545000Y-21590000D01*
X42545000Y-16510000D02*
X52070000Y-6985000D01*
X42545000Y-21590000D02*
X42545000Y-16510000D01*
X40040000Y-63678528D02*
X40005000Y-63643528D01*
X60325000Y-6985000D02*
X66040000Y-12700000D01*
X52070000Y-6985000D02*
X60325000Y-6985000D01*
%TO.N,/36V_mon*%
X51670000Y-71520000D02*
X43014314Y-71520000D01*
X43014314Y-71520000D02*
X19050000Y-47555686D01*
X58928000Y-65186000D02*
X58004000Y-65186000D01*
X19050000Y-47555686D02*
X19050000Y-43180000D01*
X58004000Y-65186000D02*
X51670000Y-71520000D01*
%TO.N,/10V_mon*%
X57023000Y-64786000D02*
X57023000Y-64897000D01*
X36830000Y-64770000D02*
X36830000Y-43180000D01*
X43180000Y-71120000D02*
X36830000Y-64770000D01*
X50800000Y-71120000D02*
X43180000Y-71120000D01*
X57023000Y-64897000D02*
X50800000Y-71120000D01*
%TO.N,Net-(J1-Pin_3)*%
X64300000Y-11525686D02*
X64300000Y-14135000D01*
X66510000Y-16345000D02*
X67969974Y-16345000D01*
X40640000Y-64132119D02*
X40640000Y-24060686D01*
X64300000Y-14135000D02*
X66510000Y-16345000D01*
X42945000Y-21755686D02*
X42945000Y-16675686D01*
X40674135Y-64166254D02*
X40640000Y-64132119D01*
X40640000Y-24060686D02*
X42945000Y-21755686D01*
X52235686Y-7385000D02*
X60159314Y-7385000D01*
X67969974Y-16345000D02*
X68580000Y-15734974D01*
X68580000Y-15734974D02*
X68580000Y-12700000D01*
X42945000Y-16675686D02*
X52235686Y-7385000D01*
X60159314Y-7385000D02*
X64300000Y-11525686D01*
%TO.N,Net-(J1-Pin_7)*%
X63500000Y-14605000D02*
X66040000Y-17145000D01*
X41910000Y-23922058D02*
X43745000Y-22087058D01*
X66040000Y-17145000D02*
X69215000Y-17145000D01*
X40640000Y-65405000D02*
X41407459Y-65405000D01*
X43745000Y-22087058D02*
X43745000Y-17007058D01*
X43745000Y-17007058D02*
X52567058Y-8185000D01*
X69215000Y-17145000D02*
X73660000Y-12700000D01*
X41407459Y-65405000D02*
X41910000Y-64902459D01*
X52567058Y-8185000D02*
X59827942Y-8185000D01*
X41910000Y-64902459D02*
X41910000Y-23922058D01*
X63500000Y-11857058D02*
X63500000Y-14605000D01*
X59827942Y-8185000D02*
X63500000Y-11857058D01*
%TO.N,Net-(J1-Pin_5)*%
X63900000Y-14370000D02*
X66275000Y-16745000D01*
X52401372Y-7785000D02*
X59993628Y-7785000D01*
X43345000Y-21921372D02*
X43345000Y-16841372D01*
X68135660Y-16745000D02*
X71120000Y-13760660D01*
X59993628Y-7785000D02*
X63900000Y-11691372D01*
X63900000Y-11691372D02*
X63900000Y-14370000D01*
X66275000Y-16745000D02*
X68135660Y-16745000D01*
X41302359Y-64661571D02*
X41275000Y-64634212D01*
X43345000Y-16841372D02*
X52401372Y-7785000D01*
X71120000Y-13760660D02*
X71120000Y-12700000D01*
X41275000Y-23991372D02*
X43345000Y-21921372D01*
X41275000Y-64634212D02*
X41275000Y-23991372D01*
%TO.N,Net-(SW1-B)*%
X25400000Y-19050000D02*
X21550000Y-19050000D01*
X26670000Y-17780000D02*
X25400000Y-19050000D01*
X27940000Y-17780000D02*
X26670000Y-17780000D01*
%TD*%
M02*
