M48
; DRILL file {KiCad 8.0.7-8.0.7-0~ubuntu22.04.1} date 2025-01-12T13:10:03-0800
; FORMAT={-:-/ absolute / inch / decimal}
; #@! TF.CreationDate,2025-01-12T13:10:03-08:00
; #@! TF.GenerationSoftware,Kicad,Pcbnew,8.0.7-8.0.7-0~ubuntu22.04.1
; #@! TF.FileFunction,Plated,1,6,PTH
FMAT,2
INCH
; #@! TA.AperFunction,Plated,PTH,ViaDrill
T1C0.0118
; #@! TA.AperFunction,Plated,PTH,ComponentDrill
T2C0.0118
; #@! TA.AperFunction,Plated,PTH,ComponentDrill
T3C0.0315
; #@! TA.AperFunction,Plated,PTH,ComponentDrill
T4C0.0394
; #@! TA.AperFunction,Plated,PTH,ComponentDrill
T5C0.0433
; #@! TA.AperFunction,Plated,PTH,ComponentDrill
T6C0.1260
%
G90
G05
T1
X0.1Y-0.7
X0.1Y-1.0
X0.1Y-1.4
X0.15Y-0.7
X0.2Y-1.0
X0.22Y-1.38
X0.5Y-1.7
X0.75Y-0.97
X0.75Y-1.2
X0.75Y-1.7
X0.8Y-1.5
X0.81Y-1.1341
X0.85Y-1.45
X0.87Y-0.97
X0.8701Y-1.2
X1.02Y-1.34
X1.05Y-1.15
X1.05Y-1.45
X1.1Y-0.7
X1.1Y-0.9
X1.25Y-1.05
X1.25Y-1.5
X1.35Y-1.1
X1.35Y-2.775
X1.375Y-2.8
X1.4Y-2.825
X1.425Y-2.85
X1.45Y-1.7
X1.45Y-2.875
X1.475Y-2.9
X1.5Y-0.6
X1.5Y-1.0126
X1.5Y-2.925
X1.525Y-2.95
X1.5313Y-1.3813
X1.55Y-1.1
X1.55Y-1.45
X1.5764Y-2.507
X1.6Y-2.575
X1.6013Y-2.5262
X1.6261Y-2.5457
X1.7Y-2.1768
X1.73Y-2.72
X1.75Y-2.1
X1.75Y-2.93
X1.76Y-2.04
X1.8Y-2.075
X1.81Y-2.93
X1.825Y-2.05
X1.85Y-2.025
X1.8516Y-2.14
X1.875Y-2.0
X1.9Y-1.9
X1.92Y-2.77
X1.96Y-2.12
X1.9984Y-2.1752
X2.0Y-1.9
X2.025Y-1.975
X2.05Y-1.95
X2.075Y-1.925
X2.1Y-1.9
X2.2Y-2.1
X2.245Y-2.5506
X2.3Y-2.27
X2.32Y-2.5664
X2.42Y-2.4858
X2.42Y-2.52
X2.42Y-2.5515
T2
X1.7965Y-2.3244
X1.7965Y-2.3756
X1.7965Y-2.4268
X1.7965Y-2.478
X1.7965Y-2.5291
X1.7965Y-2.5803
X1.8476Y-2.3244
X1.8476Y-2.3756
X1.8476Y-2.4268
X1.8476Y-2.478
X1.8476Y-2.5291
X1.8476Y-2.5803
X1.8988Y-2.3244
X1.8988Y-2.3756
X1.8988Y-2.4268
X1.8988Y-2.478
X1.8988Y-2.5291
X1.8988Y-2.5803
X1.95Y-2.3244
X1.95Y-2.3756
X1.95Y-2.4268
X1.95Y-2.478
X1.95Y-2.5291
X1.95Y-2.5803
X2.0012Y-2.3244
X2.0012Y-2.3756
X2.0012Y-2.4268
X2.0012Y-2.478
X2.0012Y-2.5291
X2.0012Y-2.5803
X2.0524Y-2.3244
X2.0524Y-2.3756
X2.0524Y-2.4268
X2.0524Y-2.478
X2.0524Y-2.5291
X2.0524Y-2.5803
T3
X0.49Y-1.1716
X0.49Y-1.27
X0.75Y-0.75
X0.8484Y-0.75
T4
X0.2Y-2.0
X0.2Y-2.1
X0.2Y-2.2
X0.2Y-2.3
X0.2Y-2.4
X0.2Y-2.5
X0.2Y-2.6
X0.2Y-2.7
X0.2Y-2.8
X0.2Y-2.9
X0.2Y-3.0
X0.2Y-3.1
X0.5Y-3.75
X0.5Y-3.85
X0.6Y-3.75
X0.6Y-3.85
X0.7Y-3.75
X0.7Y-3.85
X0.8Y-3.75
X0.8Y-3.85
X1.3498Y-0.4
X1.4498Y-0.4
X2.1425Y-0.4
X2.1425Y-0.5
X2.2425Y-0.4
X2.2425Y-0.5
X2.3425Y-0.4
X2.3425Y-0.5
X2.6Y-0.4
X2.6Y-0.5
X2.7Y-0.4
X2.7Y-0.5
X2.8Y-0.4
X2.8Y-0.5
X2.9Y-0.4
X2.9Y-0.5
X3.75Y-0.45
X3.75Y-0.55
X3.75Y-0.65
X3.75Y-0.75
X3.75Y-0.85
X3.75Y-0.95
X3.75Y-1.05
X3.75Y-1.15
X3.75Y-1.25
X3.75Y-1.35
X3.75Y-1.45
X3.75Y-1.55
X3.75Y-1.65
X3.75Y-1.75
X3.75Y-1.85
X3.75Y-1.95
X3.75Y-2.05
X3.75Y-2.15
X3.75Y-2.25
X3.75Y-2.35
X3.75Y-2.45
X3.75Y-2.55
X3.75Y-2.65
X3.75Y-2.75
X3.75Y-2.85
X3.75Y-2.95
X3.75Y-3.05
X3.75Y-3.15
X3.75Y-3.25
X3.75Y-3.35
X3.75Y-3.45
X3.75Y-3.55
X3.85Y-0.45
X3.85Y-0.55
X3.85Y-0.65
X3.85Y-0.75
X3.85Y-0.85
X3.85Y-0.95
X3.85Y-1.05
X3.85Y-1.15
X3.85Y-1.25
X3.85Y-1.35
X3.85Y-1.45
X3.85Y-1.55
X3.85Y-1.65
X3.85Y-1.75
X3.85Y-1.85
X3.85Y-1.95
X3.85Y-2.05
X3.85Y-2.15
X3.85Y-2.25
X3.85Y-2.35
X3.85Y-2.45
X3.85Y-2.55
X3.85Y-2.65
X3.85Y-2.75
X3.85Y-2.85
X3.85Y-2.95
X3.85Y-3.05
X3.85Y-3.15
X3.85Y-3.25
X3.85Y-3.35
X3.85Y-3.45
X3.85Y-3.55
T5
X0.49Y-0.6
X0.49Y-1.0
T6
X0.2Y-0.2
X0.2Y-3.8
X3.8Y-0.2
X3.8Y-3.8
T4
G00X0.6228Y-0.2539
M15
G01X0.6228Y-0.1949
M16
G05
G00X0.8256Y-0.2638
M15
G01X0.7744Y-0.2638
M16
G05
G00X0.8394Y-0.5
M15
G01X0.7606Y-0.5
M16
G05
G00X0.9772Y-0.2539
M15
G01X0.9772Y-0.1949
M16
G05
M30
