%TF.GenerationSoftware,KiCad,Pcbnew,8.0.7-8.0.7-0~ubuntu22.04.1*%
%TF.CreationDate,2025-01-12T13:10:07-08:00*%
%TF.ProjectId,multichannelheaterdriver_amc7836,6d756c74-6963-4686-916e-6e656c686561,rev?*%
%TF.SameCoordinates,Original*%
%TF.FileFunction,Soldermask,Bot*%
%TF.FilePolarity,Negative*%
%FSLAX46Y46*%
G04 Gerber Fmt 4.6, Leading zero omitted, Abs format (unit mm)*
G04 Created by KiCad (PCBNEW 8.0.7-8.0.7-0~ubuntu22.04.1) date 2025-01-12 13:10:07*
%MOMM*%
%LPD*%
G01*
G04 APERTURE LIST*
%ADD10R,1.700000X1.700000*%
%ADD11O,1.700000X1.700000*%
%ADD12R,2.200000X2.200000*%
%ADD13O,2.200000X2.200000*%
%ADD14C,6.400000*%
%ADD15R,1.600000X1.600000*%
%ADD16C,1.600000*%
%ADD17R,4.000000X2.000000*%
%ADD18O,3.300000X2.000000*%
%ADD19O,2.000000X3.500000*%
G04 APERTURE END LIST*
D10*
%TO.C,J5*%
X12700000Y-97790000D03*
D11*
X12700000Y-95250000D03*
X15240000Y-97790000D03*
X15240000Y-95250000D03*
X17780000Y-97790000D03*
X17780000Y-95250000D03*
X20320000Y-97790000D03*
X20320000Y-95250000D03*
%TD*%
D12*
%TO.C,D5*%
X12446000Y-25400000D03*
D13*
X12446000Y-15240000D03*
%TD*%
D14*
%TO.C,H1*%
X5080000Y-5080000D03*
%TD*%
D15*
%TO.C,C7*%
X21550000Y-19050000D03*
D16*
X19050000Y-19050000D03*
%TD*%
D10*
%TO.C,J4*%
X97790000Y-90170000D03*
D11*
X95250000Y-90170000D03*
X97790000Y-87630000D03*
X95250000Y-87630000D03*
X97790000Y-85090000D03*
X95250000Y-85090000D03*
X97790000Y-82550000D03*
X95250000Y-82550000D03*
X97790000Y-80010000D03*
X95250000Y-80010000D03*
X97790000Y-77470000D03*
X95250000Y-77470000D03*
X97790000Y-74930000D03*
X95250000Y-74930000D03*
X97790000Y-72390000D03*
X95250000Y-72390000D03*
X97790000Y-69850000D03*
X95250000Y-69850000D03*
X97790000Y-67310000D03*
X95250000Y-67310000D03*
X97790000Y-64770000D03*
X95250000Y-64770000D03*
X97790000Y-62230000D03*
X95250000Y-62230000D03*
X97790000Y-59690000D03*
X95250000Y-59690000D03*
X97790000Y-57150000D03*
X95250000Y-57150000D03*
X97790000Y-54610000D03*
X95250000Y-54610000D03*
X97790000Y-52070000D03*
X95250000Y-52070000D03*
X97790000Y-49530000D03*
X95250000Y-49530000D03*
X97790000Y-46990000D03*
X95250000Y-46990000D03*
X97790000Y-44450000D03*
X95250000Y-44450000D03*
X97790000Y-41910000D03*
X95250000Y-41910000D03*
X97790000Y-39370000D03*
X95250000Y-39370000D03*
X97790000Y-36830000D03*
X95250000Y-36830000D03*
X97790000Y-34290000D03*
X95250000Y-34290000D03*
X97790000Y-31750000D03*
X95250000Y-31750000D03*
X97790000Y-29210000D03*
X95250000Y-29210000D03*
X97790000Y-26670000D03*
X95250000Y-26670000D03*
X97790000Y-24130000D03*
X95250000Y-24130000D03*
X97790000Y-21590000D03*
X95250000Y-21590000D03*
X97790000Y-19050000D03*
X95250000Y-19050000D03*
X97790000Y-16510000D03*
X95250000Y-16510000D03*
X97790000Y-13970000D03*
X95250000Y-13970000D03*
X97790000Y-11430000D03*
X95250000Y-11430000D03*
%TD*%
D14*
%TO.C,H4*%
X96520000Y-96520000D03*
%TD*%
D10*
%TO.C,J2*%
X5080000Y-50800000D03*
D11*
X5080000Y-53340000D03*
X5080000Y-55880000D03*
X5080000Y-58420000D03*
X5080000Y-60960000D03*
X5080000Y-63500000D03*
X5080000Y-66040000D03*
X5080000Y-68580000D03*
X5080000Y-71120000D03*
X5080000Y-73660000D03*
X5080000Y-76200000D03*
X5080000Y-78740000D03*
%TD*%
D14*
%TO.C,H3*%
X96520000Y-5080000D03*
%TD*%
D10*
%TO.C,J1*%
X66040000Y-12700000D03*
D11*
X66040000Y-10160000D03*
X68580000Y-12700000D03*
X68580000Y-10160000D03*
X71120000Y-12700000D03*
X71120000Y-10160000D03*
X73660000Y-12700000D03*
X73660000Y-10160000D03*
%TD*%
D14*
%TO.C,H2*%
X5080000Y-96520000D03*
%TD*%
D10*
%TO.C,J3*%
X54420000Y-12700000D03*
D11*
X54420000Y-10160000D03*
X56960000Y-12700000D03*
X56960000Y-10160000D03*
X59500000Y-12700000D03*
X59500000Y-10160000D03*
%TD*%
D16*
%TO.C,J7*%
X20320000Y-3700000D03*
D17*
X20320000Y-12700000D03*
D18*
X20320000Y-6700000D03*
D19*
X24820000Y-5700000D03*
X15820000Y-5700000D03*
%TD*%
D15*
%TO.C,C8*%
X12446000Y-29758000D03*
D16*
X12446000Y-32258000D03*
%TD*%
D10*
%TO.C,SW1*%
X34285000Y-10160000D03*
D11*
X36825000Y-10160000D03*
%TD*%
M02*
