%TF.GenerationSoftware,KiCad,Pcbnew,8.0.7-8.0.7-0~ubuntu22.04.1*%
%TF.CreationDate,2025-01-13T14:39:21-08:00*%
%TF.ProjectId,multichannelheaterdriver_frontend,6d756c74-6963-4686-916e-6e656c686561,rev?*%
%TF.SameCoordinates,Original*%
%TF.FileFunction,Legend,Bot*%
%TF.FilePolarity,Positive*%
%FSLAX46Y46*%
G04 Gerber Fmt 4.6, Leading zero omitted, Abs format (unit mm)*
G04 Created by KiCad (PCBNEW 8.0.7-8.0.7-0~ubuntu22.04.1) date 2025-01-13 14:39:21*
%MOMM*%
%LPD*%
G01*
G04 APERTURE LIST*
%ADD10C,0.100000*%
%ADD11C,0.150000*%
G04 APERTURE END LIST*
D10*
X97790000Y-91440000D02*
X97790000Y-91948000D01*
X97790000Y-93218000D02*
X96520000Y-91948000D01*
X99060000Y-91948000D01*
X97790000Y-93218000D01*
G36*
X97790000Y-93218000D02*
G01*
X96520000Y-91948000D01*
X99060000Y-91948000D01*
X97790000Y-93218000D01*
G37*
D11*
X92970112Y-12449847D02*
X92970112Y-11449847D01*
X92970112Y-11449847D02*
X92732017Y-11449847D01*
X92732017Y-11449847D02*
X92589160Y-11497466D01*
X92589160Y-11497466D02*
X92493922Y-11592704D01*
X92493922Y-11592704D02*
X92446303Y-11687942D01*
X92446303Y-11687942D02*
X92398684Y-11878418D01*
X92398684Y-11878418D02*
X92398684Y-12021275D01*
X92398684Y-12021275D02*
X92446303Y-12211751D01*
X92446303Y-12211751D02*
X92493922Y-12306989D01*
X92493922Y-12306989D02*
X92589160Y-12402228D01*
X92589160Y-12402228D02*
X92732017Y-12449847D01*
X92732017Y-12449847D02*
X92970112Y-12449847D01*
X92017731Y-12164132D02*
X91541541Y-12164132D01*
X92112969Y-12449847D02*
X91779636Y-11449847D01*
X91779636Y-11449847D02*
X91446303Y-12449847D01*
X90541541Y-12354608D02*
X90589160Y-12402228D01*
X90589160Y-12402228D02*
X90732017Y-12449847D01*
X90732017Y-12449847D02*
X90827255Y-12449847D01*
X90827255Y-12449847D02*
X90970112Y-12402228D01*
X90970112Y-12402228D02*
X91065350Y-12306989D01*
X91065350Y-12306989D02*
X91112969Y-12211751D01*
X91112969Y-12211751D02*
X91160588Y-12021275D01*
X91160588Y-12021275D02*
X91160588Y-11878418D01*
X91160588Y-11878418D02*
X91112969Y-11687942D01*
X91112969Y-11687942D02*
X91065350Y-11592704D01*
X91065350Y-11592704D02*
X90970112Y-11497466D01*
X90970112Y-11497466D02*
X90827255Y-11449847D01*
X90827255Y-11449847D02*
X90732017Y-11449847D01*
X90732017Y-11449847D02*
X90589160Y-11497466D01*
X90589160Y-11497466D02*
X90541541Y-11545085D01*
X89922493Y-11449847D02*
X89827255Y-11449847D01*
X89827255Y-11449847D02*
X89732017Y-11497466D01*
X89732017Y-11497466D02*
X89684398Y-11545085D01*
X89684398Y-11545085D02*
X89636779Y-11640323D01*
X89636779Y-11640323D02*
X89589160Y-11830799D01*
X89589160Y-11830799D02*
X89589160Y-12068894D01*
X89589160Y-12068894D02*
X89636779Y-12259370D01*
X89636779Y-12259370D02*
X89684398Y-12354608D01*
X89684398Y-12354608D02*
X89732017Y-12402228D01*
X89732017Y-12402228D02*
X89827255Y-12449847D01*
X89827255Y-12449847D02*
X89922493Y-12449847D01*
X89922493Y-12449847D02*
X90017731Y-12402228D01*
X90017731Y-12402228D02*
X90065350Y-12354608D01*
X90065350Y-12354608D02*
X90112969Y-12259370D01*
X90112969Y-12259370D02*
X90160588Y-12068894D01*
X90160588Y-12068894D02*
X90160588Y-11830799D01*
X90160588Y-11830799D02*
X90112969Y-11640323D01*
X90112969Y-11640323D02*
X90065350Y-11545085D01*
X90065350Y-11545085D02*
X90017731Y-11497466D01*
X90017731Y-11497466D02*
X89922493Y-11449847D01*
X93017731Y-13774076D02*
X92541541Y-13774076D01*
X93112969Y-14059791D02*
X92779636Y-13059791D01*
X92779636Y-13059791D02*
X92446303Y-14059791D01*
X92112969Y-14059791D02*
X92112969Y-13059791D01*
X92112969Y-13059791D02*
X91874874Y-13059791D01*
X91874874Y-13059791D02*
X91732017Y-13107410D01*
X91732017Y-13107410D02*
X91636779Y-13202648D01*
X91636779Y-13202648D02*
X91589160Y-13297886D01*
X91589160Y-13297886D02*
X91541541Y-13488362D01*
X91541541Y-13488362D02*
X91541541Y-13631219D01*
X91541541Y-13631219D02*
X91589160Y-13821695D01*
X91589160Y-13821695D02*
X91636779Y-13916933D01*
X91636779Y-13916933D02*
X91732017Y-14012172D01*
X91732017Y-14012172D02*
X91874874Y-14059791D01*
X91874874Y-14059791D02*
X92112969Y-14059791D01*
X90541541Y-13964552D02*
X90589160Y-14012172D01*
X90589160Y-14012172D02*
X90732017Y-14059791D01*
X90732017Y-14059791D02*
X90827255Y-14059791D01*
X90827255Y-14059791D02*
X90970112Y-14012172D01*
X90970112Y-14012172D02*
X91065350Y-13916933D01*
X91065350Y-13916933D02*
X91112969Y-13821695D01*
X91112969Y-13821695D02*
X91160588Y-13631219D01*
X91160588Y-13631219D02*
X91160588Y-13488362D01*
X91160588Y-13488362D02*
X91112969Y-13297886D01*
X91112969Y-13297886D02*
X91065350Y-13202648D01*
X91065350Y-13202648D02*
X90970112Y-13107410D01*
X90970112Y-13107410D02*
X90827255Y-13059791D01*
X90827255Y-13059791D02*
X90732017Y-13059791D01*
X90732017Y-13059791D02*
X90589160Y-13107410D01*
X90589160Y-13107410D02*
X90541541Y-13155029D01*
X89922493Y-13059791D02*
X89827255Y-13059791D01*
X89827255Y-13059791D02*
X89732017Y-13107410D01*
X89732017Y-13107410D02*
X89684398Y-13155029D01*
X89684398Y-13155029D02*
X89636779Y-13250267D01*
X89636779Y-13250267D02*
X89589160Y-13440743D01*
X89589160Y-13440743D02*
X89589160Y-13678838D01*
X89589160Y-13678838D02*
X89636779Y-13869314D01*
X89636779Y-13869314D02*
X89684398Y-13964552D01*
X89684398Y-13964552D02*
X89732017Y-14012172D01*
X89732017Y-14012172D02*
X89827255Y-14059791D01*
X89827255Y-14059791D02*
X89922493Y-14059791D01*
X89922493Y-14059791D02*
X90017731Y-14012172D01*
X90017731Y-14012172D02*
X90065350Y-13964552D01*
X90065350Y-13964552D02*
X90112969Y-13869314D01*
X90112969Y-13869314D02*
X90160588Y-13678838D01*
X90160588Y-13678838D02*
X90160588Y-13440743D01*
X90160588Y-13440743D02*
X90112969Y-13250267D01*
X90112969Y-13250267D02*
X90065350Y-13155029D01*
X90065350Y-13155029D02*
X90017731Y-13107410D01*
X90017731Y-13107410D02*
X89922493Y-13059791D01*
X92570112Y-27589847D02*
X92570112Y-26589847D01*
X92570112Y-26589847D02*
X92332017Y-26589847D01*
X92332017Y-26589847D02*
X92189160Y-26637466D01*
X92189160Y-26637466D02*
X92093922Y-26732704D01*
X92093922Y-26732704D02*
X92046303Y-26827942D01*
X92046303Y-26827942D02*
X91998684Y-27018418D01*
X91998684Y-27018418D02*
X91998684Y-27161275D01*
X91998684Y-27161275D02*
X92046303Y-27351751D01*
X92046303Y-27351751D02*
X92093922Y-27446989D01*
X92093922Y-27446989D02*
X92189160Y-27542228D01*
X92189160Y-27542228D02*
X92332017Y-27589847D01*
X92332017Y-27589847D02*
X92570112Y-27589847D01*
X91617731Y-27304132D02*
X91141541Y-27304132D01*
X91712969Y-27589847D02*
X91379636Y-26589847D01*
X91379636Y-26589847D02*
X91046303Y-27589847D01*
X90141541Y-27494608D02*
X90189160Y-27542228D01*
X90189160Y-27542228D02*
X90332017Y-27589847D01*
X90332017Y-27589847D02*
X90427255Y-27589847D01*
X90427255Y-27589847D02*
X90570112Y-27542228D01*
X90570112Y-27542228D02*
X90665350Y-27446989D01*
X90665350Y-27446989D02*
X90712969Y-27351751D01*
X90712969Y-27351751D02*
X90760588Y-27161275D01*
X90760588Y-27161275D02*
X90760588Y-27018418D01*
X90760588Y-27018418D02*
X90712969Y-26827942D01*
X90712969Y-26827942D02*
X90665350Y-26732704D01*
X90665350Y-26732704D02*
X90570112Y-26637466D01*
X90570112Y-26637466D02*
X90427255Y-26589847D01*
X90427255Y-26589847D02*
X90332017Y-26589847D01*
X90332017Y-26589847D02*
X90189160Y-26637466D01*
X90189160Y-26637466D02*
X90141541Y-26685085D01*
X89808207Y-26589847D02*
X89189160Y-26589847D01*
X89189160Y-26589847D02*
X89522493Y-26970799D01*
X89522493Y-26970799D02*
X89379636Y-26970799D01*
X89379636Y-26970799D02*
X89284398Y-27018418D01*
X89284398Y-27018418D02*
X89236779Y-27066037D01*
X89236779Y-27066037D02*
X89189160Y-27161275D01*
X89189160Y-27161275D02*
X89189160Y-27399370D01*
X89189160Y-27399370D02*
X89236779Y-27494608D01*
X89236779Y-27494608D02*
X89284398Y-27542228D01*
X89284398Y-27542228D02*
X89379636Y-27589847D01*
X89379636Y-27589847D02*
X89665350Y-27589847D01*
X89665350Y-27589847D02*
X89760588Y-27542228D01*
X89760588Y-27542228D02*
X89808207Y-27494608D01*
X92617731Y-28914076D02*
X92141541Y-28914076D01*
X92712969Y-29199791D02*
X92379636Y-28199791D01*
X92379636Y-28199791D02*
X92046303Y-29199791D01*
X91712969Y-29199791D02*
X91712969Y-28199791D01*
X91712969Y-28199791D02*
X91474874Y-28199791D01*
X91474874Y-28199791D02*
X91332017Y-28247410D01*
X91332017Y-28247410D02*
X91236779Y-28342648D01*
X91236779Y-28342648D02*
X91189160Y-28437886D01*
X91189160Y-28437886D02*
X91141541Y-28628362D01*
X91141541Y-28628362D02*
X91141541Y-28771219D01*
X91141541Y-28771219D02*
X91189160Y-28961695D01*
X91189160Y-28961695D02*
X91236779Y-29056933D01*
X91236779Y-29056933D02*
X91332017Y-29152172D01*
X91332017Y-29152172D02*
X91474874Y-29199791D01*
X91474874Y-29199791D02*
X91712969Y-29199791D01*
X90141541Y-29104552D02*
X90189160Y-29152172D01*
X90189160Y-29152172D02*
X90332017Y-29199791D01*
X90332017Y-29199791D02*
X90427255Y-29199791D01*
X90427255Y-29199791D02*
X90570112Y-29152172D01*
X90570112Y-29152172D02*
X90665350Y-29056933D01*
X90665350Y-29056933D02*
X90712969Y-28961695D01*
X90712969Y-28961695D02*
X90760588Y-28771219D01*
X90760588Y-28771219D02*
X90760588Y-28628362D01*
X90760588Y-28628362D02*
X90712969Y-28437886D01*
X90712969Y-28437886D02*
X90665350Y-28342648D01*
X90665350Y-28342648D02*
X90570112Y-28247410D01*
X90570112Y-28247410D02*
X90427255Y-28199791D01*
X90427255Y-28199791D02*
X90332017Y-28199791D01*
X90332017Y-28199791D02*
X90189160Y-28247410D01*
X90189160Y-28247410D02*
X90141541Y-28295029D01*
X89808207Y-28199791D02*
X89189160Y-28199791D01*
X89189160Y-28199791D02*
X89522493Y-28580743D01*
X89522493Y-28580743D02*
X89379636Y-28580743D01*
X89379636Y-28580743D02*
X89284398Y-28628362D01*
X89284398Y-28628362D02*
X89236779Y-28675981D01*
X89236779Y-28675981D02*
X89189160Y-28771219D01*
X89189160Y-28771219D02*
X89189160Y-29009314D01*
X89189160Y-29009314D02*
X89236779Y-29104552D01*
X89236779Y-29104552D02*
X89284398Y-29152172D01*
X89284398Y-29152172D02*
X89379636Y-29199791D01*
X89379636Y-29199791D02*
X89665350Y-29199791D01*
X89665350Y-29199791D02*
X89760588Y-29152172D01*
X89760588Y-29152172D02*
X89808207Y-29104552D01*
X92570112Y-17429847D02*
X92570112Y-16429847D01*
X92570112Y-16429847D02*
X92332017Y-16429847D01*
X92332017Y-16429847D02*
X92189160Y-16477466D01*
X92189160Y-16477466D02*
X92093922Y-16572704D01*
X92093922Y-16572704D02*
X92046303Y-16667942D01*
X92046303Y-16667942D02*
X91998684Y-16858418D01*
X91998684Y-16858418D02*
X91998684Y-17001275D01*
X91998684Y-17001275D02*
X92046303Y-17191751D01*
X92046303Y-17191751D02*
X92093922Y-17286989D01*
X92093922Y-17286989D02*
X92189160Y-17382228D01*
X92189160Y-17382228D02*
X92332017Y-17429847D01*
X92332017Y-17429847D02*
X92570112Y-17429847D01*
X91617731Y-17144132D02*
X91141541Y-17144132D01*
X91712969Y-17429847D02*
X91379636Y-16429847D01*
X91379636Y-16429847D02*
X91046303Y-17429847D01*
X90141541Y-17334608D02*
X90189160Y-17382228D01*
X90189160Y-17382228D02*
X90332017Y-17429847D01*
X90332017Y-17429847D02*
X90427255Y-17429847D01*
X90427255Y-17429847D02*
X90570112Y-17382228D01*
X90570112Y-17382228D02*
X90665350Y-17286989D01*
X90665350Y-17286989D02*
X90712969Y-17191751D01*
X90712969Y-17191751D02*
X90760588Y-17001275D01*
X90760588Y-17001275D02*
X90760588Y-16858418D01*
X90760588Y-16858418D02*
X90712969Y-16667942D01*
X90712969Y-16667942D02*
X90665350Y-16572704D01*
X90665350Y-16572704D02*
X90570112Y-16477466D01*
X90570112Y-16477466D02*
X90427255Y-16429847D01*
X90427255Y-16429847D02*
X90332017Y-16429847D01*
X90332017Y-16429847D02*
X90189160Y-16477466D01*
X90189160Y-16477466D02*
X90141541Y-16525085D01*
X89189160Y-17429847D02*
X89760588Y-17429847D01*
X89474874Y-17429847D02*
X89474874Y-16429847D01*
X89474874Y-16429847D02*
X89570112Y-16572704D01*
X89570112Y-16572704D02*
X89665350Y-16667942D01*
X89665350Y-16667942D02*
X89760588Y-16715561D01*
X92617731Y-18754076D02*
X92141541Y-18754076D01*
X92712969Y-19039791D02*
X92379636Y-18039791D01*
X92379636Y-18039791D02*
X92046303Y-19039791D01*
X91712969Y-19039791D02*
X91712969Y-18039791D01*
X91712969Y-18039791D02*
X91474874Y-18039791D01*
X91474874Y-18039791D02*
X91332017Y-18087410D01*
X91332017Y-18087410D02*
X91236779Y-18182648D01*
X91236779Y-18182648D02*
X91189160Y-18277886D01*
X91189160Y-18277886D02*
X91141541Y-18468362D01*
X91141541Y-18468362D02*
X91141541Y-18611219D01*
X91141541Y-18611219D02*
X91189160Y-18801695D01*
X91189160Y-18801695D02*
X91236779Y-18896933D01*
X91236779Y-18896933D02*
X91332017Y-18992172D01*
X91332017Y-18992172D02*
X91474874Y-19039791D01*
X91474874Y-19039791D02*
X91712969Y-19039791D01*
X90141541Y-18944552D02*
X90189160Y-18992172D01*
X90189160Y-18992172D02*
X90332017Y-19039791D01*
X90332017Y-19039791D02*
X90427255Y-19039791D01*
X90427255Y-19039791D02*
X90570112Y-18992172D01*
X90570112Y-18992172D02*
X90665350Y-18896933D01*
X90665350Y-18896933D02*
X90712969Y-18801695D01*
X90712969Y-18801695D02*
X90760588Y-18611219D01*
X90760588Y-18611219D02*
X90760588Y-18468362D01*
X90760588Y-18468362D02*
X90712969Y-18277886D01*
X90712969Y-18277886D02*
X90665350Y-18182648D01*
X90665350Y-18182648D02*
X90570112Y-18087410D01*
X90570112Y-18087410D02*
X90427255Y-18039791D01*
X90427255Y-18039791D02*
X90332017Y-18039791D01*
X90332017Y-18039791D02*
X90189160Y-18087410D01*
X90189160Y-18087410D02*
X90141541Y-18135029D01*
X89189160Y-19039791D02*
X89760588Y-19039791D01*
X89474874Y-19039791D02*
X89474874Y-18039791D01*
X89474874Y-18039791D02*
X89570112Y-18182648D01*
X89570112Y-18182648D02*
X89665350Y-18277886D01*
X89665350Y-18277886D02*
X89760588Y-18325505D01*
X92610587Y-73209847D02*
X92610587Y-72209847D01*
X92610587Y-72209847D02*
X92372492Y-72209847D01*
X92372492Y-72209847D02*
X92229635Y-72257466D01*
X92229635Y-72257466D02*
X92134397Y-72352704D01*
X92134397Y-72352704D02*
X92086778Y-72447942D01*
X92086778Y-72447942D02*
X92039159Y-72638418D01*
X92039159Y-72638418D02*
X92039159Y-72781275D01*
X92039159Y-72781275D02*
X92086778Y-72971751D01*
X92086778Y-72971751D02*
X92134397Y-73066989D01*
X92134397Y-73066989D02*
X92229635Y-73162228D01*
X92229635Y-73162228D02*
X92372492Y-73209847D01*
X92372492Y-73209847D02*
X92610587Y-73209847D01*
X91658206Y-72924132D02*
X91182016Y-72924132D01*
X91753444Y-73209847D02*
X91420111Y-72209847D01*
X91420111Y-72209847D02*
X91086778Y-73209847D01*
X90182016Y-73114608D02*
X90229635Y-73162228D01*
X90229635Y-73162228D02*
X90372492Y-73209847D01*
X90372492Y-73209847D02*
X90467730Y-73209847D01*
X90467730Y-73209847D02*
X90610587Y-73162228D01*
X90610587Y-73162228D02*
X90705825Y-73066989D01*
X90705825Y-73066989D02*
X90753444Y-72971751D01*
X90753444Y-72971751D02*
X90801063Y-72781275D01*
X90801063Y-72781275D02*
X90801063Y-72638418D01*
X90801063Y-72638418D02*
X90753444Y-72447942D01*
X90753444Y-72447942D02*
X90705825Y-72352704D01*
X90705825Y-72352704D02*
X90610587Y-72257466D01*
X90610587Y-72257466D02*
X90467730Y-72209847D01*
X90467730Y-72209847D02*
X90372492Y-72209847D01*
X90372492Y-72209847D02*
X90229635Y-72257466D01*
X90229635Y-72257466D02*
X90182016Y-72305085D01*
X89229635Y-73209847D02*
X89801063Y-73209847D01*
X89515349Y-73209847D02*
X89515349Y-72209847D01*
X89515349Y-72209847D02*
X89610587Y-72352704D01*
X89610587Y-72352704D02*
X89705825Y-72447942D01*
X89705825Y-72447942D02*
X89801063Y-72495561D01*
X88848682Y-72305085D02*
X88801063Y-72257466D01*
X88801063Y-72257466D02*
X88705825Y-72209847D01*
X88705825Y-72209847D02*
X88467730Y-72209847D01*
X88467730Y-72209847D02*
X88372492Y-72257466D01*
X88372492Y-72257466D02*
X88324873Y-72305085D01*
X88324873Y-72305085D02*
X88277254Y-72400323D01*
X88277254Y-72400323D02*
X88277254Y-72495561D01*
X88277254Y-72495561D02*
X88324873Y-72638418D01*
X88324873Y-72638418D02*
X88896301Y-73209847D01*
X88896301Y-73209847D02*
X88277254Y-73209847D01*
X92658206Y-74534076D02*
X92182016Y-74534076D01*
X92753444Y-74819791D02*
X92420111Y-73819791D01*
X92420111Y-73819791D02*
X92086778Y-74819791D01*
X91753444Y-74819791D02*
X91753444Y-73819791D01*
X91753444Y-73819791D02*
X91515349Y-73819791D01*
X91515349Y-73819791D02*
X91372492Y-73867410D01*
X91372492Y-73867410D02*
X91277254Y-73962648D01*
X91277254Y-73962648D02*
X91229635Y-74057886D01*
X91229635Y-74057886D02*
X91182016Y-74248362D01*
X91182016Y-74248362D02*
X91182016Y-74391219D01*
X91182016Y-74391219D02*
X91229635Y-74581695D01*
X91229635Y-74581695D02*
X91277254Y-74676933D01*
X91277254Y-74676933D02*
X91372492Y-74772172D01*
X91372492Y-74772172D02*
X91515349Y-74819791D01*
X91515349Y-74819791D02*
X91753444Y-74819791D01*
X90182016Y-74724552D02*
X90229635Y-74772172D01*
X90229635Y-74772172D02*
X90372492Y-74819791D01*
X90372492Y-74819791D02*
X90467730Y-74819791D01*
X90467730Y-74819791D02*
X90610587Y-74772172D01*
X90610587Y-74772172D02*
X90705825Y-74676933D01*
X90705825Y-74676933D02*
X90753444Y-74581695D01*
X90753444Y-74581695D02*
X90801063Y-74391219D01*
X90801063Y-74391219D02*
X90801063Y-74248362D01*
X90801063Y-74248362D02*
X90753444Y-74057886D01*
X90753444Y-74057886D02*
X90705825Y-73962648D01*
X90705825Y-73962648D02*
X90610587Y-73867410D01*
X90610587Y-73867410D02*
X90467730Y-73819791D01*
X90467730Y-73819791D02*
X90372492Y-73819791D01*
X90372492Y-73819791D02*
X90229635Y-73867410D01*
X90229635Y-73867410D02*
X90182016Y-73915029D01*
X89229635Y-74819791D02*
X89801063Y-74819791D01*
X89515349Y-74819791D02*
X89515349Y-73819791D01*
X89515349Y-73819791D02*
X89610587Y-73962648D01*
X89610587Y-73962648D02*
X89705825Y-74057886D01*
X89705825Y-74057886D02*
X89801063Y-74105505D01*
X88848682Y-73915029D02*
X88801063Y-73867410D01*
X88801063Y-73867410D02*
X88705825Y-73819791D01*
X88705825Y-73819791D02*
X88467730Y-73819791D01*
X88467730Y-73819791D02*
X88372492Y-73867410D01*
X88372492Y-73867410D02*
X88324873Y-73915029D01*
X88324873Y-73915029D02*
X88277254Y-74010267D01*
X88277254Y-74010267D02*
X88277254Y-74105505D01*
X88277254Y-74105505D02*
X88324873Y-74248362D01*
X88324873Y-74248362D02*
X88896301Y-74819791D01*
X88896301Y-74819791D02*
X88277254Y-74819791D01*
X92610587Y-83369847D02*
X92610587Y-82369847D01*
X92610587Y-82369847D02*
X92372492Y-82369847D01*
X92372492Y-82369847D02*
X92229635Y-82417466D01*
X92229635Y-82417466D02*
X92134397Y-82512704D01*
X92134397Y-82512704D02*
X92086778Y-82607942D01*
X92086778Y-82607942D02*
X92039159Y-82798418D01*
X92039159Y-82798418D02*
X92039159Y-82941275D01*
X92039159Y-82941275D02*
X92086778Y-83131751D01*
X92086778Y-83131751D02*
X92134397Y-83226989D01*
X92134397Y-83226989D02*
X92229635Y-83322228D01*
X92229635Y-83322228D02*
X92372492Y-83369847D01*
X92372492Y-83369847D02*
X92610587Y-83369847D01*
X91658206Y-83084132D02*
X91182016Y-83084132D01*
X91753444Y-83369847D02*
X91420111Y-82369847D01*
X91420111Y-82369847D02*
X91086778Y-83369847D01*
X90182016Y-83274608D02*
X90229635Y-83322228D01*
X90229635Y-83322228D02*
X90372492Y-83369847D01*
X90372492Y-83369847D02*
X90467730Y-83369847D01*
X90467730Y-83369847D02*
X90610587Y-83322228D01*
X90610587Y-83322228D02*
X90705825Y-83226989D01*
X90705825Y-83226989D02*
X90753444Y-83131751D01*
X90753444Y-83131751D02*
X90801063Y-82941275D01*
X90801063Y-82941275D02*
X90801063Y-82798418D01*
X90801063Y-82798418D02*
X90753444Y-82607942D01*
X90753444Y-82607942D02*
X90705825Y-82512704D01*
X90705825Y-82512704D02*
X90610587Y-82417466D01*
X90610587Y-82417466D02*
X90467730Y-82369847D01*
X90467730Y-82369847D02*
X90372492Y-82369847D01*
X90372492Y-82369847D02*
X90229635Y-82417466D01*
X90229635Y-82417466D02*
X90182016Y-82465085D01*
X89229635Y-83369847D02*
X89801063Y-83369847D01*
X89515349Y-83369847D02*
X89515349Y-82369847D01*
X89515349Y-82369847D02*
X89610587Y-82512704D01*
X89610587Y-82512704D02*
X89705825Y-82607942D01*
X89705825Y-82607942D02*
X89801063Y-82655561D01*
X88372492Y-82703180D02*
X88372492Y-83369847D01*
X88610587Y-82322228D02*
X88848682Y-83036513D01*
X88848682Y-83036513D02*
X88229635Y-83036513D01*
X92658206Y-84694076D02*
X92182016Y-84694076D01*
X92753444Y-84979791D02*
X92420111Y-83979791D01*
X92420111Y-83979791D02*
X92086778Y-84979791D01*
X91753444Y-84979791D02*
X91753444Y-83979791D01*
X91753444Y-83979791D02*
X91515349Y-83979791D01*
X91515349Y-83979791D02*
X91372492Y-84027410D01*
X91372492Y-84027410D02*
X91277254Y-84122648D01*
X91277254Y-84122648D02*
X91229635Y-84217886D01*
X91229635Y-84217886D02*
X91182016Y-84408362D01*
X91182016Y-84408362D02*
X91182016Y-84551219D01*
X91182016Y-84551219D02*
X91229635Y-84741695D01*
X91229635Y-84741695D02*
X91277254Y-84836933D01*
X91277254Y-84836933D02*
X91372492Y-84932172D01*
X91372492Y-84932172D02*
X91515349Y-84979791D01*
X91515349Y-84979791D02*
X91753444Y-84979791D01*
X90182016Y-84884552D02*
X90229635Y-84932172D01*
X90229635Y-84932172D02*
X90372492Y-84979791D01*
X90372492Y-84979791D02*
X90467730Y-84979791D01*
X90467730Y-84979791D02*
X90610587Y-84932172D01*
X90610587Y-84932172D02*
X90705825Y-84836933D01*
X90705825Y-84836933D02*
X90753444Y-84741695D01*
X90753444Y-84741695D02*
X90801063Y-84551219D01*
X90801063Y-84551219D02*
X90801063Y-84408362D01*
X90801063Y-84408362D02*
X90753444Y-84217886D01*
X90753444Y-84217886D02*
X90705825Y-84122648D01*
X90705825Y-84122648D02*
X90610587Y-84027410D01*
X90610587Y-84027410D02*
X90467730Y-83979791D01*
X90467730Y-83979791D02*
X90372492Y-83979791D01*
X90372492Y-83979791D02*
X90229635Y-84027410D01*
X90229635Y-84027410D02*
X90182016Y-84075029D01*
X89229635Y-84979791D02*
X89801063Y-84979791D01*
X89515349Y-84979791D02*
X89515349Y-83979791D01*
X89515349Y-83979791D02*
X89610587Y-84122648D01*
X89610587Y-84122648D02*
X89705825Y-84217886D01*
X89705825Y-84217886D02*
X89801063Y-84265505D01*
X88372492Y-84313124D02*
X88372492Y-84979791D01*
X88610587Y-83932172D02*
X88848682Y-84646457D01*
X88848682Y-84646457D02*
X88229635Y-84646457D01*
X92610587Y-68129847D02*
X92610587Y-67129847D01*
X92610587Y-67129847D02*
X92372492Y-67129847D01*
X92372492Y-67129847D02*
X92229635Y-67177466D01*
X92229635Y-67177466D02*
X92134397Y-67272704D01*
X92134397Y-67272704D02*
X92086778Y-67367942D01*
X92086778Y-67367942D02*
X92039159Y-67558418D01*
X92039159Y-67558418D02*
X92039159Y-67701275D01*
X92039159Y-67701275D02*
X92086778Y-67891751D01*
X92086778Y-67891751D02*
X92134397Y-67986989D01*
X92134397Y-67986989D02*
X92229635Y-68082228D01*
X92229635Y-68082228D02*
X92372492Y-68129847D01*
X92372492Y-68129847D02*
X92610587Y-68129847D01*
X91658206Y-67844132D02*
X91182016Y-67844132D01*
X91753444Y-68129847D02*
X91420111Y-67129847D01*
X91420111Y-67129847D02*
X91086778Y-68129847D01*
X90182016Y-68034608D02*
X90229635Y-68082228D01*
X90229635Y-68082228D02*
X90372492Y-68129847D01*
X90372492Y-68129847D02*
X90467730Y-68129847D01*
X90467730Y-68129847D02*
X90610587Y-68082228D01*
X90610587Y-68082228D02*
X90705825Y-67986989D01*
X90705825Y-67986989D02*
X90753444Y-67891751D01*
X90753444Y-67891751D02*
X90801063Y-67701275D01*
X90801063Y-67701275D02*
X90801063Y-67558418D01*
X90801063Y-67558418D02*
X90753444Y-67367942D01*
X90753444Y-67367942D02*
X90705825Y-67272704D01*
X90705825Y-67272704D02*
X90610587Y-67177466D01*
X90610587Y-67177466D02*
X90467730Y-67129847D01*
X90467730Y-67129847D02*
X90372492Y-67129847D01*
X90372492Y-67129847D02*
X90229635Y-67177466D01*
X90229635Y-67177466D02*
X90182016Y-67225085D01*
X89229635Y-68129847D02*
X89801063Y-68129847D01*
X89515349Y-68129847D02*
X89515349Y-67129847D01*
X89515349Y-67129847D02*
X89610587Y-67272704D01*
X89610587Y-67272704D02*
X89705825Y-67367942D01*
X89705825Y-67367942D02*
X89801063Y-67415561D01*
X88277254Y-68129847D02*
X88848682Y-68129847D01*
X88562968Y-68129847D02*
X88562968Y-67129847D01*
X88562968Y-67129847D02*
X88658206Y-67272704D01*
X88658206Y-67272704D02*
X88753444Y-67367942D01*
X88753444Y-67367942D02*
X88848682Y-67415561D01*
X92658206Y-69454076D02*
X92182016Y-69454076D01*
X92753444Y-69739791D02*
X92420111Y-68739791D01*
X92420111Y-68739791D02*
X92086778Y-69739791D01*
X91753444Y-69739791D02*
X91753444Y-68739791D01*
X91753444Y-68739791D02*
X91515349Y-68739791D01*
X91515349Y-68739791D02*
X91372492Y-68787410D01*
X91372492Y-68787410D02*
X91277254Y-68882648D01*
X91277254Y-68882648D02*
X91229635Y-68977886D01*
X91229635Y-68977886D02*
X91182016Y-69168362D01*
X91182016Y-69168362D02*
X91182016Y-69311219D01*
X91182016Y-69311219D02*
X91229635Y-69501695D01*
X91229635Y-69501695D02*
X91277254Y-69596933D01*
X91277254Y-69596933D02*
X91372492Y-69692172D01*
X91372492Y-69692172D02*
X91515349Y-69739791D01*
X91515349Y-69739791D02*
X91753444Y-69739791D01*
X90182016Y-69644552D02*
X90229635Y-69692172D01*
X90229635Y-69692172D02*
X90372492Y-69739791D01*
X90372492Y-69739791D02*
X90467730Y-69739791D01*
X90467730Y-69739791D02*
X90610587Y-69692172D01*
X90610587Y-69692172D02*
X90705825Y-69596933D01*
X90705825Y-69596933D02*
X90753444Y-69501695D01*
X90753444Y-69501695D02*
X90801063Y-69311219D01*
X90801063Y-69311219D02*
X90801063Y-69168362D01*
X90801063Y-69168362D02*
X90753444Y-68977886D01*
X90753444Y-68977886D02*
X90705825Y-68882648D01*
X90705825Y-68882648D02*
X90610587Y-68787410D01*
X90610587Y-68787410D02*
X90467730Y-68739791D01*
X90467730Y-68739791D02*
X90372492Y-68739791D01*
X90372492Y-68739791D02*
X90229635Y-68787410D01*
X90229635Y-68787410D02*
X90182016Y-68835029D01*
X89229635Y-69739791D02*
X89801063Y-69739791D01*
X89515349Y-69739791D02*
X89515349Y-68739791D01*
X89515349Y-68739791D02*
X89610587Y-68882648D01*
X89610587Y-68882648D02*
X89705825Y-68977886D01*
X89705825Y-68977886D02*
X89801063Y-69025505D01*
X88277254Y-69739791D02*
X88848682Y-69739791D01*
X88562968Y-69739791D02*
X88562968Y-68739791D01*
X88562968Y-68739791D02*
X88658206Y-68882648D01*
X88658206Y-68882648D02*
X88753444Y-68977886D01*
X88753444Y-68977886D02*
X88848682Y-69025505D01*
X92570112Y-58069847D02*
X92570112Y-57069847D01*
X92570112Y-57069847D02*
X92332017Y-57069847D01*
X92332017Y-57069847D02*
X92189160Y-57117466D01*
X92189160Y-57117466D02*
X92093922Y-57212704D01*
X92093922Y-57212704D02*
X92046303Y-57307942D01*
X92046303Y-57307942D02*
X91998684Y-57498418D01*
X91998684Y-57498418D02*
X91998684Y-57641275D01*
X91998684Y-57641275D02*
X92046303Y-57831751D01*
X92046303Y-57831751D02*
X92093922Y-57926989D01*
X92093922Y-57926989D02*
X92189160Y-58022228D01*
X92189160Y-58022228D02*
X92332017Y-58069847D01*
X92332017Y-58069847D02*
X92570112Y-58069847D01*
X91617731Y-57784132D02*
X91141541Y-57784132D01*
X91712969Y-58069847D02*
X91379636Y-57069847D01*
X91379636Y-57069847D02*
X91046303Y-58069847D01*
X90141541Y-57974608D02*
X90189160Y-58022228D01*
X90189160Y-58022228D02*
X90332017Y-58069847D01*
X90332017Y-58069847D02*
X90427255Y-58069847D01*
X90427255Y-58069847D02*
X90570112Y-58022228D01*
X90570112Y-58022228D02*
X90665350Y-57926989D01*
X90665350Y-57926989D02*
X90712969Y-57831751D01*
X90712969Y-57831751D02*
X90760588Y-57641275D01*
X90760588Y-57641275D02*
X90760588Y-57498418D01*
X90760588Y-57498418D02*
X90712969Y-57307942D01*
X90712969Y-57307942D02*
X90665350Y-57212704D01*
X90665350Y-57212704D02*
X90570112Y-57117466D01*
X90570112Y-57117466D02*
X90427255Y-57069847D01*
X90427255Y-57069847D02*
X90332017Y-57069847D01*
X90332017Y-57069847D02*
X90189160Y-57117466D01*
X90189160Y-57117466D02*
X90141541Y-57165085D01*
X89665350Y-58069847D02*
X89474874Y-58069847D01*
X89474874Y-58069847D02*
X89379636Y-58022228D01*
X89379636Y-58022228D02*
X89332017Y-57974608D01*
X89332017Y-57974608D02*
X89236779Y-57831751D01*
X89236779Y-57831751D02*
X89189160Y-57641275D01*
X89189160Y-57641275D02*
X89189160Y-57260323D01*
X89189160Y-57260323D02*
X89236779Y-57165085D01*
X89236779Y-57165085D02*
X89284398Y-57117466D01*
X89284398Y-57117466D02*
X89379636Y-57069847D01*
X89379636Y-57069847D02*
X89570112Y-57069847D01*
X89570112Y-57069847D02*
X89665350Y-57117466D01*
X89665350Y-57117466D02*
X89712969Y-57165085D01*
X89712969Y-57165085D02*
X89760588Y-57260323D01*
X89760588Y-57260323D02*
X89760588Y-57498418D01*
X89760588Y-57498418D02*
X89712969Y-57593656D01*
X89712969Y-57593656D02*
X89665350Y-57641275D01*
X89665350Y-57641275D02*
X89570112Y-57688894D01*
X89570112Y-57688894D02*
X89379636Y-57688894D01*
X89379636Y-57688894D02*
X89284398Y-57641275D01*
X89284398Y-57641275D02*
X89236779Y-57593656D01*
X89236779Y-57593656D02*
X89189160Y-57498418D01*
X92617731Y-59394076D02*
X92141541Y-59394076D01*
X92712969Y-59679791D02*
X92379636Y-58679791D01*
X92379636Y-58679791D02*
X92046303Y-59679791D01*
X91712969Y-59679791D02*
X91712969Y-58679791D01*
X91712969Y-58679791D02*
X91474874Y-58679791D01*
X91474874Y-58679791D02*
X91332017Y-58727410D01*
X91332017Y-58727410D02*
X91236779Y-58822648D01*
X91236779Y-58822648D02*
X91189160Y-58917886D01*
X91189160Y-58917886D02*
X91141541Y-59108362D01*
X91141541Y-59108362D02*
X91141541Y-59251219D01*
X91141541Y-59251219D02*
X91189160Y-59441695D01*
X91189160Y-59441695D02*
X91236779Y-59536933D01*
X91236779Y-59536933D02*
X91332017Y-59632172D01*
X91332017Y-59632172D02*
X91474874Y-59679791D01*
X91474874Y-59679791D02*
X91712969Y-59679791D01*
X90141541Y-59584552D02*
X90189160Y-59632172D01*
X90189160Y-59632172D02*
X90332017Y-59679791D01*
X90332017Y-59679791D02*
X90427255Y-59679791D01*
X90427255Y-59679791D02*
X90570112Y-59632172D01*
X90570112Y-59632172D02*
X90665350Y-59536933D01*
X90665350Y-59536933D02*
X90712969Y-59441695D01*
X90712969Y-59441695D02*
X90760588Y-59251219D01*
X90760588Y-59251219D02*
X90760588Y-59108362D01*
X90760588Y-59108362D02*
X90712969Y-58917886D01*
X90712969Y-58917886D02*
X90665350Y-58822648D01*
X90665350Y-58822648D02*
X90570112Y-58727410D01*
X90570112Y-58727410D02*
X90427255Y-58679791D01*
X90427255Y-58679791D02*
X90332017Y-58679791D01*
X90332017Y-58679791D02*
X90189160Y-58727410D01*
X90189160Y-58727410D02*
X90141541Y-58775029D01*
X89665350Y-59679791D02*
X89474874Y-59679791D01*
X89474874Y-59679791D02*
X89379636Y-59632172D01*
X89379636Y-59632172D02*
X89332017Y-59584552D01*
X89332017Y-59584552D02*
X89236779Y-59441695D01*
X89236779Y-59441695D02*
X89189160Y-59251219D01*
X89189160Y-59251219D02*
X89189160Y-58870267D01*
X89189160Y-58870267D02*
X89236779Y-58775029D01*
X89236779Y-58775029D02*
X89284398Y-58727410D01*
X89284398Y-58727410D02*
X89379636Y-58679791D01*
X89379636Y-58679791D02*
X89570112Y-58679791D01*
X89570112Y-58679791D02*
X89665350Y-58727410D01*
X89665350Y-58727410D02*
X89712969Y-58775029D01*
X89712969Y-58775029D02*
X89760588Y-58870267D01*
X89760588Y-58870267D02*
X89760588Y-59108362D01*
X89760588Y-59108362D02*
X89712969Y-59203600D01*
X89712969Y-59203600D02*
X89665350Y-59251219D01*
X89665350Y-59251219D02*
X89570112Y-59298838D01*
X89570112Y-59298838D02*
X89379636Y-59298838D01*
X89379636Y-59298838D02*
X89284398Y-59251219D01*
X89284398Y-59251219D02*
X89236779Y-59203600D01*
X89236779Y-59203600D02*
X89189160Y-59108362D01*
X92570112Y-22509847D02*
X92570112Y-21509847D01*
X92570112Y-21509847D02*
X92332017Y-21509847D01*
X92332017Y-21509847D02*
X92189160Y-21557466D01*
X92189160Y-21557466D02*
X92093922Y-21652704D01*
X92093922Y-21652704D02*
X92046303Y-21747942D01*
X92046303Y-21747942D02*
X91998684Y-21938418D01*
X91998684Y-21938418D02*
X91998684Y-22081275D01*
X91998684Y-22081275D02*
X92046303Y-22271751D01*
X92046303Y-22271751D02*
X92093922Y-22366989D01*
X92093922Y-22366989D02*
X92189160Y-22462228D01*
X92189160Y-22462228D02*
X92332017Y-22509847D01*
X92332017Y-22509847D02*
X92570112Y-22509847D01*
X91617731Y-22224132D02*
X91141541Y-22224132D01*
X91712969Y-22509847D02*
X91379636Y-21509847D01*
X91379636Y-21509847D02*
X91046303Y-22509847D01*
X90141541Y-22414608D02*
X90189160Y-22462228D01*
X90189160Y-22462228D02*
X90332017Y-22509847D01*
X90332017Y-22509847D02*
X90427255Y-22509847D01*
X90427255Y-22509847D02*
X90570112Y-22462228D01*
X90570112Y-22462228D02*
X90665350Y-22366989D01*
X90665350Y-22366989D02*
X90712969Y-22271751D01*
X90712969Y-22271751D02*
X90760588Y-22081275D01*
X90760588Y-22081275D02*
X90760588Y-21938418D01*
X90760588Y-21938418D02*
X90712969Y-21747942D01*
X90712969Y-21747942D02*
X90665350Y-21652704D01*
X90665350Y-21652704D02*
X90570112Y-21557466D01*
X90570112Y-21557466D02*
X90427255Y-21509847D01*
X90427255Y-21509847D02*
X90332017Y-21509847D01*
X90332017Y-21509847D02*
X90189160Y-21557466D01*
X90189160Y-21557466D02*
X90141541Y-21605085D01*
X89760588Y-21605085D02*
X89712969Y-21557466D01*
X89712969Y-21557466D02*
X89617731Y-21509847D01*
X89617731Y-21509847D02*
X89379636Y-21509847D01*
X89379636Y-21509847D02*
X89284398Y-21557466D01*
X89284398Y-21557466D02*
X89236779Y-21605085D01*
X89236779Y-21605085D02*
X89189160Y-21700323D01*
X89189160Y-21700323D02*
X89189160Y-21795561D01*
X89189160Y-21795561D02*
X89236779Y-21938418D01*
X89236779Y-21938418D02*
X89808207Y-22509847D01*
X89808207Y-22509847D02*
X89189160Y-22509847D01*
X92617731Y-23834076D02*
X92141541Y-23834076D01*
X92712969Y-24119791D02*
X92379636Y-23119791D01*
X92379636Y-23119791D02*
X92046303Y-24119791D01*
X91712969Y-24119791D02*
X91712969Y-23119791D01*
X91712969Y-23119791D02*
X91474874Y-23119791D01*
X91474874Y-23119791D02*
X91332017Y-23167410D01*
X91332017Y-23167410D02*
X91236779Y-23262648D01*
X91236779Y-23262648D02*
X91189160Y-23357886D01*
X91189160Y-23357886D02*
X91141541Y-23548362D01*
X91141541Y-23548362D02*
X91141541Y-23691219D01*
X91141541Y-23691219D02*
X91189160Y-23881695D01*
X91189160Y-23881695D02*
X91236779Y-23976933D01*
X91236779Y-23976933D02*
X91332017Y-24072172D01*
X91332017Y-24072172D02*
X91474874Y-24119791D01*
X91474874Y-24119791D02*
X91712969Y-24119791D01*
X90141541Y-24024552D02*
X90189160Y-24072172D01*
X90189160Y-24072172D02*
X90332017Y-24119791D01*
X90332017Y-24119791D02*
X90427255Y-24119791D01*
X90427255Y-24119791D02*
X90570112Y-24072172D01*
X90570112Y-24072172D02*
X90665350Y-23976933D01*
X90665350Y-23976933D02*
X90712969Y-23881695D01*
X90712969Y-23881695D02*
X90760588Y-23691219D01*
X90760588Y-23691219D02*
X90760588Y-23548362D01*
X90760588Y-23548362D02*
X90712969Y-23357886D01*
X90712969Y-23357886D02*
X90665350Y-23262648D01*
X90665350Y-23262648D02*
X90570112Y-23167410D01*
X90570112Y-23167410D02*
X90427255Y-23119791D01*
X90427255Y-23119791D02*
X90332017Y-23119791D01*
X90332017Y-23119791D02*
X90189160Y-23167410D01*
X90189160Y-23167410D02*
X90141541Y-23215029D01*
X89760588Y-23215029D02*
X89712969Y-23167410D01*
X89712969Y-23167410D02*
X89617731Y-23119791D01*
X89617731Y-23119791D02*
X89379636Y-23119791D01*
X89379636Y-23119791D02*
X89284398Y-23167410D01*
X89284398Y-23167410D02*
X89236779Y-23215029D01*
X89236779Y-23215029D02*
X89189160Y-23310267D01*
X89189160Y-23310267D02*
X89189160Y-23405505D01*
X89189160Y-23405505D02*
X89236779Y-23548362D01*
X89236779Y-23548362D02*
X89808207Y-24119791D01*
X89808207Y-24119791D02*
X89189160Y-24119791D01*
X92570112Y-42829847D02*
X92570112Y-41829847D01*
X92570112Y-41829847D02*
X92332017Y-41829847D01*
X92332017Y-41829847D02*
X92189160Y-41877466D01*
X92189160Y-41877466D02*
X92093922Y-41972704D01*
X92093922Y-41972704D02*
X92046303Y-42067942D01*
X92046303Y-42067942D02*
X91998684Y-42258418D01*
X91998684Y-42258418D02*
X91998684Y-42401275D01*
X91998684Y-42401275D02*
X92046303Y-42591751D01*
X92046303Y-42591751D02*
X92093922Y-42686989D01*
X92093922Y-42686989D02*
X92189160Y-42782228D01*
X92189160Y-42782228D02*
X92332017Y-42829847D01*
X92332017Y-42829847D02*
X92570112Y-42829847D01*
X91617731Y-42544132D02*
X91141541Y-42544132D01*
X91712969Y-42829847D02*
X91379636Y-41829847D01*
X91379636Y-41829847D02*
X91046303Y-42829847D01*
X90141541Y-42734608D02*
X90189160Y-42782228D01*
X90189160Y-42782228D02*
X90332017Y-42829847D01*
X90332017Y-42829847D02*
X90427255Y-42829847D01*
X90427255Y-42829847D02*
X90570112Y-42782228D01*
X90570112Y-42782228D02*
X90665350Y-42686989D01*
X90665350Y-42686989D02*
X90712969Y-42591751D01*
X90712969Y-42591751D02*
X90760588Y-42401275D01*
X90760588Y-42401275D02*
X90760588Y-42258418D01*
X90760588Y-42258418D02*
X90712969Y-42067942D01*
X90712969Y-42067942D02*
X90665350Y-41972704D01*
X90665350Y-41972704D02*
X90570112Y-41877466D01*
X90570112Y-41877466D02*
X90427255Y-41829847D01*
X90427255Y-41829847D02*
X90332017Y-41829847D01*
X90332017Y-41829847D02*
X90189160Y-41877466D01*
X90189160Y-41877466D02*
X90141541Y-41925085D01*
X89284398Y-41829847D02*
X89474874Y-41829847D01*
X89474874Y-41829847D02*
X89570112Y-41877466D01*
X89570112Y-41877466D02*
X89617731Y-41925085D01*
X89617731Y-41925085D02*
X89712969Y-42067942D01*
X89712969Y-42067942D02*
X89760588Y-42258418D01*
X89760588Y-42258418D02*
X89760588Y-42639370D01*
X89760588Y-42639370D02*
X89712969Y-42734608D01*
X89712969Y-42734608D02*
X89665350Y-42782228D01*
X89665350Y-42782228D02*
X89570112Y-42829847D01*
X89570112Y-42829847D02*
X89379636Y-42829847D01*
X89379636Y-42829847D02*
X89284398Y-42782228D01*
X89284398Y-42782228D02*
X89236779Y-42734608D01*
X89236779Y-42734608D02*
X89189160Y-42639370D01*
X89189160Y-42639370D02*
X89189160Y-42401275D01*
X89189160Y-42401275D02*
X89236779Y-42306037D01*
X89236779Y-42306037D02*
X89284398Y-42258418D01*
X89284398Y-42258418D02*
X89379636Y-42210799D01*
X89379636Y-42210799D02*
X89570112Y-42210799D01*
X89570112Y-42210799D02*
X89665350Y-42258418D01*
X89665350Y-42258418D02*
X89712969Y-42306037D01*
X89712969Y-42306037D02*
X89760588Y-42401275D01*
X92617731Y-44154076D02*
X92141541Y-44154076D01*
X92712969Y-44439791D02*
X92379636Y-43439791D01*
X92379636Y-43439791D02*
X92046303Y-44439791D01*
X91712969Y-44439791D02*
X91712969Y-43439791D01*
X91712969Y-43439791D02*
X91474874Y-43439791D01*
X91474874Y-43439791D02*
X91332017Y-43487410D01*
X91332017Y-43487410D02*
X91236779Y-43582648D01*
X91236779Y-43582648D02*
X91189160Y-43677886D01*
X91189160Y-43677886D02*
X91141541Y-43868362D01*
X91141541Y-43868362D02*
X91141541Y-44011219D01*
X91141541Y-44011219D02*
X91189160Y-44201695D01*
X91189160Y-44201695D02*
X91236779Y-44296933D01*
X91236779Y-44296933D02*
X91332017Y-44392172D01*
X91332017Y-44392172D02*
X91474874Y-44439791D01*
X91474874Y-44439791D02*
X91712969Y-44439791D01*
X90141541Y-44344552D02*
X90189160Y-44392172D01*
X90189160Y-44392172D02*
X90332017Y-44439791D01*
X90332017Y-44439791D02*
X90427255Y-44439791D01*
X90427255Y-44439791D02*
X90570112Y-44392172D01*
X90570112Y-44392172D02*
X90665350Y-44296933D01*
X90665350Y-44296933D02*
X90712969Y-44201695D01*
X90712969Y-44201695D02*
X90760588Y-44011219D01*
X90760588Y-44011219D02*
X90760588Y-43868362D01*
X90760588Y-43868362D02*
X90712969Y-43677886D01*
X90712969Y-43677886D02*
X90665350Y-43582648D01*
X90665350Y-43582648D02*
X90570112Y-43487410D01*
X90570112Y-43487410D02*
X90427255Y-43439791D01*
X90427255Y-43439791D02*
X90332017Y-43439791D01*
X90332017Y-43439791D02*
X90189160Y-43487410D01*
X90189160Y-43487410D02*
X90141541Y-43535029D01*
X89284398Y-43439791D02*
X89474874Y-43439791D01*
X89474874Y-43439791D02*
X89570112Y-43487410D01*
X89570112Y-43487410D02*
X89617731Y-43535029D01*
X89617731Y-43535029D02*
X89712969Y-43677886D01*
X89712969Y-43677886D02*
X89760588Y-43868362D01*
X89760588Y-43868362D02*
X89760588Y-44249314D01*
X89760588Y-44249314D02*
X89712969Y-44344552D01*
X89712969Y-44344552D02*
X89665350Y-44392172D01*
X89665350Y-44392172D02*
X89570112Y-44439791D01*
X89570112Y-44439791D02*
X89379636Y-44439791D01*
X89379636Y-44439791D02*
X89284398Y-44392172D01*
X89284398Y-44392172D02*
X89236779Y-44344552D01*
X89236779Y-44344552D02*
X89189160Y-44249314D01*
X89189160Y-44249314D02*
X89189160Y-44011219D01*
X89189160Y-44011219D02*
X89236779Y-43915981D01*
X89236779Y-43915981D02*
X89284398Y-43868362D01*
X89284398Y-43868362D02*
X89379636Y-43820743D01*
X89379636Y-43820743D02*
X89570112Y-43820743D01*
X89570112Y-43820743D02*
X89665350Y-43868362D01*
X89665350Y-43868362D02*
X89712969Y-43915981D01*
X89712969Y-43915981D02*
X89760588Y-44011219D01*
X92610587Y-78289847D02*
X92610587Y-77289847D01*
X92610587Y-77289847D02*
X92372492Y-77289847D01*
X92372492Y-77289847D02*
X92229635Y-77337466D01*
X92229635Y-77337466D02*
X92134397Y-77432704D01*
X92134397Y-77432704D02*
X92086778Y-77527942D01*
X92086778Y-77527942D02*
X92039159Y-77718418D01*
X92039159Y-77718418D02*
X92039159Y-77861275D01*
X92039159Y-77861275D02*
X92086778Y-78051751D01*
X92086778Y-78051751D02*
X92134397Y-78146989D01*
X92134397Y-78146989D02*
X92229635Y-78242228D01*
X92229635Y-78242228D02*
X92372492Y-78289847D01*
X92372492Y-78289847D02*
X92610587Y-78289847D01*
X91658206Y-78004132D02*
X91182016Y-78004132D01*
X91753444Y-78289847D02*
X91420111Y-77289847D01*
X91420111Y-77289847D02*
X91086778Y-78289847D01*
X90182016Y-78194608D02*
X90229635Y-78242228D01*
X90229635Y-78242228D02*
X90372492Y-78289847D01*
X90372492Y-78289847D02*
X90467730Y-78289847D01*
X90467730Y-78289847D02*
X90610587Y-78242228D01*
X90610587Y-78242228D02*
X90705825Y-78146989D01*
X90705825Y-78146989D02*
X90753444Y-78051751D01*
X90753444Y-78051751D02*
X90801063Y-77861275D01*
X90801063Y-77861275D02*
X90801063Y-77718418D01*
X90801063Y-77718418D02*
X90753444Y-77527942D01*
X90753444Y-77527942D02*
X90705825Y-77432704D01*
X90705825Y-77432704D02*
X90610587Y-77337466D01*
X90610587Y-77337466D02*
X90467730Y-77289847D01*
X90467730Y-77289847D02*
X90372492Y-77289847D01*
X90372492Y-77289847D02*
X90229635Y-77337466D01*
X90229635Y-77337466D02*
X90182016Y-77385085D01*
X89229635Y-78289847D02*
X89801063Y-78289847D01*
X89515349Y-78289847D02*
X89515349Y-77289847D01*
X89515349Y-77289847D02*
X89610587Y-77432704D01*
X89610587Y-77432704D02*
X89705825Y-77527942D01*
X89705825Y-77527942D02*
X89801063Y-77575561D01*
X88896301Y-77289847D02*
X88277254Y-77289847D01*
X88277254Y-77289847D02*
X88610587Y-77670799D01*
X88610587Y-77670799D02*
X88467730Y-77670799D01*
X88467730Y-77670799D02*
X88372492Y-77718418D01*
X88372492Y-77718418D02*
X88324873Y-77766037D01*
X88324873Y-77766037D02*
X88277254Y-77861275D01*
X88277254Y-77861275D02*
X88277254Y-78099370D01*
X88277254Y-78099370D02*
X88324873Y-78194608D01*
X88324873Y-78194608D02*
X88372492Y-78242228D01*
X88372492Y-78242228D02*
X88467730Y-78289847D01*
X88467730Y-78289847D02*
X88753444Y-78289847D01*
X88753444Y-78289847D02*
X88848682Y-78242228D01*
X88848682Y-78242228D02*
X88896301Y-78194608D01*
X92658206Y-79614076D02*
X92182016Y-79614076D01*
X92753444Y-79899791D02*
X92420111Y-78899791D01*
X92420111Y-78899791D02*
X92086778Y-79899791D01*
X91753444Y-79899791D02*
X91753444Y-78899791D01*
X91753444Y-78899791D02*
X91515349Y-78899791D01*
X91515349Y-78899791D02*
X91372492Y-78947410D01*
X91372492Y-78947410D02*
X91277254Y-79042648D01*
X91277254Y-79042648D02*
X91229635Y-79137886D01*
X91229635Y-79137886D02*
X91182016Y-79328362D01*
X91182016Y-79328362D02*
X91182016Y-79471219D01*
X91182016Y-79471219D02*
X91229635Y-79661695D01*
X91229635Y-79661695D02*
X91277254Y-79756933D01*
X91277254Y-79756933D02*
X91372492Y-79852172D01*
X91372492Y-79852172D02*
X91515349Y-79899791D01*
X91515349Y-79899791D02*
X91753444Y-79899791D01*
X90182016Y-79804552D02*
X90229635Y-79852172D01*
X90229635Y-79852172D02*
X90372492Y-79899791D01*
X90372492Y-79899791D02*
X90467730Y-79899791D01*
X90467730Y-79899791D02*
X90610587Y-79852172D01*
X90610587Y-79852172D02*
X90705825Y-79756933D01*
X90705825Y-79756933D02*
X90753444Y-79661695D01*
X90753444Y-79661695D02*
X90801063Y-79471219D01*
X90801063Y-79471219D02*
X90801063Y-79328362D01*
X90801063Y-79328362D02*
X90753444Y-79137886D01*
X90753444Y-79137886D02*
X90705825Y-79042648D01*
X90705825Y-79042648D02*
X90610587Y-78947410D01*
X90610587Y-78947410D02*
X90467730Y-78899791D01*
X90467730Y-78899791D02*
X90372492Y-78899791D01*
X90372492Y-78899791D02*
X90229635Y-78947410D01*
X90229635Y-78947410D02*
X90182016Y-78995029D01*
X89229635Y-79899791D02*
X89801063Y-79899791D01*
X89515349Y-79899791D02*
X89515349Y-78899791D01*
X89515349Y-78899791D02*
X89610587Y-79042648D01*
X89610587Y-79042648D02*
X89705825Y-79137886D01*
X89705825Y-79137886D02*
X89801063Y-79185505D01*
X88896301Y-78899791D02*
X88277254Y-78899791D01*
X88277254Y-78899791D02*
X88610587Y-79280743D01*
X88610587Y-79280743D02*
X88467730Y-79280743D01*
X88467730Y-79280743D02*
X88372492Y-79328362D01*
X88372492Y-79328362D02*
X88324873Y-79375981D01*
X88324873Y-79375981D02*
X88277254Y-79471219D01*
X88277254Y-79471219D02*
X88277254Y-79709314D01*
X88277254Y-79709314D02*
X88324873Y-79804552D01*
X88324873Y-79804552D02*
X88372492Y-79852172D01*
X88372492Y-79852172D02*
X88467730Y-79899791D01*
X88467730Y-79899791D02*
X88753444Y-79899791D01*
X88753444Y-79899791D02*
X88848682Y-79852172D01*
X88848682Y-79852172D02*
X88896301Y-79804552D01*
X92570112Y-32669847D02*
X92570112Y-31669847D01*
X92570112Y-31669847D02*
X92332017Y-31669847D01*
X92332017Y-31669847D02*
X92189160Y-31717466D01*
X92189160Y-31717466D02*
X92093922Y-31812704D01*
X92093922Y-31812704D02*
X92046303Y-31907942D01*
X92046303Y-31907942D02*
X91998684Y-32098418D01*
X91998684Y-32098418D02*
X91998684Y-32241275D01*
X91998684Y-32241275D02*
X92046303Y-32431751D01*
X92046303Y-32431751D02*
X92093922Y-32526989D01*
X92093922Y-32526989D02*
X92189160Y-32622228D01*
X92189160Y-32622228D02*
X92332017Y-32669847D01*
X92332017Y-32669847D02*
X92570112Y-32669847D01*
X91617731Y-32384132D02*
X91141541Y-32384132D01*
X91712969Y-32669847D02*
X91379636Y-31669847D01*
X91379636Y-31669847D02*
X91046303Y-32669847D01*
X90141541Y-32574608D02*
X90189160Y-32622228D01*
X90189160Y-32622228D02*
X90332017Y-32669847D01*
X90332017Y-32669847D02*
X90427255Y-32669847D01*
X90427255Y-32669847D02*
X90570112Y-32622228D01*
X90570112Y-32622228D02*
X90665350Y-32526989D01*
X90665350Y-32526989D02*
X90712969Y-32431751D01*
X90712969Y-32431751D02*
X90760588Y-32241275D01*
X90760588Y-32241275D02*
X90760588Y-32098418D01*
X90760588Y-32098418D02*
X90712969Y-31907942D01*
X90712969Y-31907942D02*
X90665350Y-31812704D01*
X90665350Y-31812704D02*
X90570112Y-31717466D01*
X90570112Y-31717466D02*
X90427255Y-31669847D01*
X90427255Y-31669847D02*
X90332017Y-31669847D01*
X90332017Y-31669847D02*
X90189160Y-31717466D01*
X90189160Y-31717466D02*
X90141541Y-31765085D01*
X89284398Y-32003180D02*
X89284398Y-32669847D01*
X89522493Y-31622228D02*
X89760588Y-32336513D01*
X89760588Y-32336513D02*
X89141541Y-32336513D01*
X92617731Y-33994076D02*
X92141541Y-33994076D01*
X92712969Y-34279791D02*
X92379636Y-33279791D01*
X92379636Y-33279791D02*
X92046303Y-34279791D01*
X91712969Y-34279791D02*
X91712969Y-33279791D01*
X91712969Y-33279791D02*
X91474874Y-33279791D01*
X91474874Y-33279791D02*
X91332017Y-33327410D01*
X91332017Y-33327410D02*
X91236779Y-33422648D01*
X91236779Y-33422648D02*
X91189160Y-33517886D01*
X91189160Y-33517886D02*
X91141541Y-33708362D01*
X91141541Y-33708362D02*
X91141541Y-33851219D01*
X91141541Y-33851219D02*
X91189160Y-34041695D01*
X91189160Y-34041695D02*
X91236779Y-34136933D01*
X91236779Y-34136933D02*
X91332017Y-34232172D01*
X91332017Y-34232172D02*
X91474874Y-34279791D01*
X91474874Y-34279791D02*
X91712969Y-34279791D01*
X90141541Y-34184552D02*
X90189160Y-34232172D01*
X90189160Y-34232172D02*
X90332017Y-34279791D01*
X90332017Y-34279791D02*
X90427255Y-34279791D01*
X90427255Y-34279791D02*
X90570112Y-34232172D01*
X90570112Y-34232172D02*
X90665350Y-34136933D01*
X90665350Y-34136933D02*
X90712969Y-34041695D01*
X90712969Y-34041695D02*
X90760588Y-33851219D01*
X90760588Y-33851219D02*
X90760588Y-33708362D01*
X90760588Y-33708362D02*
X90712969Y-33517886D01*
X90712969Y-33517886D02*
X90665350Y-33422648D01*
X90665350Y-33422648D02*
X90570112Y-33327410D01*
X90570112Y-33327410D02*
X90427255Y-33279791D01*
X90427255Y-33279791D02*
X90332017Y-33279791D01*
X90332017Y-33279791D02*
X90189160Y-33327410D01*
X90189160Y-33327410D02*
X90141541Y-33375029D01*
X89284398Y-33613124D02*
X89284398Y-34279791D01*
X89522493Y-33232172D02*
X89760588Y-33946457D01*
X89760588Y-33946457D02*
X89141541Y-33946457D01*
X92610587Y-63049847D02*
X92610587Y-62049847D01*
X92610587Y-62049847D02*
X92372492Y-62049847D01*
X92372492Y-62049847D02*
X92229635Y-62097466D01*
X92229635Y-62097466D02*
X92134397Y-62192704D01*
X92134397Y-62192704D02*
X92086778Y-62287942D01*
X92086778Y-62287942D02*
X92039159Y-62478418D01*
X92039159Y-62478418D02*
X92039159Y-62621275D01*
X92039159Y-62621275D02*
X92086778Y-62811751D01*
X92086778Y-62811751D02*
X92134397Y-62906989D01*
X92134397Y-62906989D02*
X92229635Y-63002228D01*
X92229635Y-63002228D02*
X92372492Y-63049847D01*
X92372492Y-63049847D02*
X92610587Y-63049847D01*
X91658206Y-62764132D02*
X91182016Y-62764132D01*
X91753444Y-63049847D02*
X91420111Y-62049847D01*
X91420111Y-62049847D02*
X91086778Y-63049847D01*
X90182016Y-62954608D02*
X90229635Y-63002228D01*
X90229635Y-63002228D02*
X90372492Y-63049847D01*
X90372492Y-63049847D02*
X90467730Y-63049847D01*
X90467730Y-63049847D02*
X90610587Y-63002228D01*
X90610587Y-63002228D02*
X90705825Y-62906989D01*
X90705825Y-62906989D02*
X90753444Y-62811751D01*
X90753444Y-62811751D02*
X90801063Y-62621275D01*
X90801063Y-62621275D02*
X90801063Y-62478418D01*
X90801063Y-62478418D02*
X90753444Y-62287942D01*
X90753444Y-62287942D02*
X90705825Y-62192704D01*
X90705825Y-62192704D02*
X90610587Y-62097466D01*
X90610587Y-62097466D02*
X90467730Y-62049847D01*
X90467730Y-62049847D02*
X90372492Y-62049847D01*
X90372492Y-62049847D02*
X90229635Y-62097466D01*
X90229635Y-62097466D02*
X90182016Y-62145085D01*
X89229635Y-63049847D02*
X89801063Y-63049847D01*
X89515349Y-63049847D02*
X89515349Y-62049847D01*
X89515349Y-62049847D02*
X89610587Y-62192704D01*
X89610587Y-62192704D02*
X89705825Y-62287942D01*
X89705825Y-62287942D02*
X89801063Y-62335561D01*
X88610587Y-62049847D02*
X88515349Y-62049847D01*
X88515349Y-62049847D02*
X88420111Y-62097466D01*
X88420111Y-62097466D02*
X88372492Y-62145085D01*
X88372492Y-62145085D02*
X88324873Y-62240323D01*
X88324873Y-62240323D02*
X88277254Y-62430799D01*
X88277254Y-62430799D02*
X88277254Y-62668894D01*
X88277254Y-62668894D02*
X88324873Y-62859370D01*
X88324873Y-62859370D02*
X88372492Y-62954608D01*
X88372492Y-62954608D02*
X88420111Y-63002228D01*
X88420111Y-63002228D02*
X88515349Y-63049847D01*
X88515349Y-63049847D02*
X88610587Y-63049847D01*
X88610587Y-63049847D02*
X88705825Y-63002228D01*
X88705825Y-63002228D02*
X88753444Y-62954608D01*
X88753444Y-62954608D02*
X88801063Y-62859370D01*
X88801063Y-62859370D02*
X88848682Y-62668894D01*
X88848682Y-62668894D02*
X88848682Y-62430799D01*
X88848682Y-62430799D02*
X88801063Y-62240323D01*
X88801063Y-62240323D02*
X88753444Y-62145085D01*
X88753444Y-62145085D02*
X88705825Y-62097466D01*
X88705825Y-62097466D02*
X88610587Y-62049847D01*
X92658206Y-64374076D02*
X92182016Y-64374076D01*
X92753444Y-64659791D02*
X92420111Y-63659791D01*
X92420111Y-63659791D02*
X92086778Y-64659791D01*
X91753444Y-64659791D02*
X91753444Y-63659791D01*
X91753444Y-63659791D02*
X91515349Y-63659791D01*
X91515349Y-63659791D02*
X91372492Y-63707410D01*
X91372492Y-63707410D02*
X91277254Y-63802648D01*
X91277254Y-63802648D02*
X91229635Y-63897886D01*
X91229635Y-63897886D02*
X91182016Y-64088362D01*
X91182016Y-64088362D02*
X91182016Y-64231219D01*
X91182016Y-64231219D02*
X91229635Y-64421695D01*
X91229635Y-64421695D02*
X91277254Y-64516933D01*
X91277254Y-64516933D02*
X91372492Y-64612172D01*
X91372492Y-64612172D02*
X91515349Y-64659791D01*
X91515349Y-64659791D02*
X91753444Y-64659791D01*
X90182016Y-64564552D02*
X90229635Y-64612172D01*
X90229635Y-64612172D02*
X90372492Y-64659791D01*
X90372492Y-64659791D02*
X90467730Y-64659791D01*
X90467730Y-64659791D02*
X90610587Y-64612172D01*
X90610587Y-64612172D02*
X90705825Y-64516933D01*
X90705825Y-64516933D02*
X90753444Y-64421695D01*
X90753444Y-64421695D02*
X90801063Y-64231219D01*
X90801063Y-64231219D02*
X90801063Y-64088362D01*
X90801063Y-64088362D02*
X90753444Y-63897886D01*
X90753444Y-63897886D02*
X90705825Y-63802648D01*
X90705825Y-63802648D02*
X90610587Y-63707410D01*
X90610587Y-63707410D02*
X90467730Y-63659791D01*
X90467730Y-63659791D02*
X90372492Y-63659791D01*
X90372492Y-63659791D02*
X90229635Y-63707410D01*
X90229635Y-63707410D02*
X90182016Y-63755029D01*
X89229635Y-64659791D02*
X89801063Y-64659791D01*
X89515349Y-64659791D02*
X89515349Y-63659791D01*
X89515349Y-63659791D02*
X89610587Y-63802648D01*
X89610587Y-63802648D02*
X89705825Y-63897886D01*
X89705825Y-63897886D02*
X89801063Y-63945505D01*
X88610587Y-63659791D02*
X88515349Y-63659791D01*
X88515349Y-63659791D02*
X88420111Y-63707410D01*
X88420111Y-63707410D02*
X88372492Y-63755029D01*
X88372492Y-63755029D02*
X88324873Y-63850267D01*
X88324873Y-63850267D02*
X88277254Y-64040743D01*
X88277254Y-64040743D02*
X88277254Y-64278838D01*
X88277254Y-64278838D02*
X88324873Y-64469314D01*
X88324873Y-64469314D02*
X88372492Y-64564552D01*
X88372492Y-64564552D02*
X88420111Y-64612172D01*
X88420111Y-64612172D02*
X88515349Y-64659791D01*
X88515349Y-64659791D02*
X88610587Y-64659791D01*
X88610587Y-64659791D02*
X88705825Y-64612172D01*
X88705825Y-64612172D02*
X88753444Y-64564552D01*
X88753444Y-64564552D02*
X88801063Y-64469314D01*
X88801063Y-64469314D02*
X88848682Y-64278838D01*
X88848682Y-64278838D02*
X88848682Y-64040743D01*
X88848682Y-64040743D02*
X88801063Y-63850267D01*
X88801063Y-63850267D02*
X88753444Y-63755029D01*
X88753444Y-63755029D02*
X88705825Y-63707410D01*
X88705825Y-63707410D02*
X88610587Y-63659791D01*
X92610587Y-88449847D02*
X92610587Y-87449847D01*
X92610587Y-87449847D02*
X92372492Y-87449847D01*
X92372492Y-87449847D02*
X92229635Y-87497466D01*
X92229635Y-87497466D02*
X92134397Y-87592704D01*
X92134397Y-87592704D02*
X92086778Y-87687942D01*
X92086778Y-87687942D02*
X92039159Y-87878418D01*
X92039159Y-87878418D02*
X92039159Y-88021275D01*
X92039159Y-88021275D02*
X92086778Y-88211751D01*
X92086778Y-88211751D02*
X92134397Y-88306989D01*
X92134397Y-88306989D02*
X92229635Y-88402228D01*
X92229635Y-88402228D02*
X92372492Y-88449847D01*
X92372492Y-88449847D02*
X92610587Y-88449847D01*
X91658206Y-88164132D02*
X91182016Y-88164132D01*
X91753444Y-88449847D02*
X91420111Y-87449847D01*
X91420111Y-87449847D02*
X91086778Y-88449847D01*
X90182016Y-88354608D02*
X90229635Y-88402228D01*
X90229635Y-88402228D02*
X90372492Y-88449847D01*
X90372492Y-88449847D02*
X90467730Y-88449847D01*
X90467730Y-88449847D02*
X90610587Y-88402228D01*
X90610587Y-88402228D02*
X90705825Y-88306989D01*
X90705825Y-88306989D02*
X90753444Y-88211751D01*
X90753444Y-88211751D02*
X90801063Y-88021275D01*
X90801063Y-88021275D02*
X90801063Y-87878418D01*
X90801063Y-87878418D02*
X90753444Y-87687942D01*
X90753444Y-87687942D02*
X90705825Y-87592704D01*
X90705825Y-87592704D02*
X90610587Y-87497466D01*
X90610587Y-87497466D02*
X90467730Y-87449847D01*
X90467730Y-87449847D02*
X90372492Y-87449847D01*
X90372492Y-87449847D02*
X90229635Y-87497466D01*
X90229635Y-87497466D02*
X90182016Y-87545085D01*
X89229635Y-88449847D02*
X89801063Y-88449847D01*
X89515349Y-88449847D02*
X89515349Y-87449847D01*
X89515349Y-87449847D02*
X89610587Y-87592704D01*
X89610587Y-87592704D02*
X89705825Y-87687942D01*
X89705825Y-87687942D02*
X89801063Y-87735561D01*
X88324873Y-87449847D02*
X88801063Y-87449847D01*
X88801063Y-87449847D02*
X88848682Y-87926037D01*
X88848682Y-87926037D02*
X88801063Y-87878418D01*
X88801063Y-87878418D02*
X88705825Y-87830799D01*
X88705825Y-87830799D02*
X88467730Y-87830799D01*
X88467730Y-87830799D02*
X88372492Y-87878418D01*
X88372492Y-87878418D02*
X88324873Y-87926037D01*
X88324873Y-87926037D02*
X88277254Y-88021275D01*
X88277254Y-88021275D02*
X88277254Y-88259370D01*
X88277254Y-88259370D02*
X88324873Y-88354608D01*
X88324873Y-88354608D02*
X88372492Y-88402228D01*
X88372492Y-88402228D02*
X88467730Y-88449847D01*
X88467730Y-88449847D02*
X88705825Y-88449847D01*
X88705825Y-88449847D02*
X88801063Y-88402228D01*
X88801063Y-88402228D02*
X88848682Y-88354608D01*
X92658206Y-89774076D02*
X92182016Y-89774076D01*
X92753444Y-90059791D02*
X92420111Y-89059791D01*
X92420111Y-89059791D02*
X92086778Y-90059791D01*
X91753444Y-90059791D02*
X91753444Y-89059791D01*
X91753444Y-89059791D02*
X91515349Y-89059791D01*
X91515349Y-89059791D02*
X91372492Y-89107410D01*
X91372492Y-89107410D02*
X91277254Y-89202648D01*
X91277254Y-89202648D02*
X91229635Y-89297886D01*
X91229635Y-89297886D02*
X91182016Y-89488362D01*
X91182016Y-89488362D02*
X91182016Y-89631219D01*
X91182016Y-89631219D02*
X91229635Y-89821695D01*
X91229635Y-89821695D02*
X91277254Y-89916933D01*
X91277254Y-89916933D02*
X91372492Y-90012172D01*
X91372492Y-90012172D02*
X91515349Y-90059791D01*
X91515349Y-90059791D02*
X91753444Y-90059791D01*
X90182016Y-89964552D02*
X90229635Y-90012172D01*
X90229635Y-90012172D02*
X90372492Y-90059791D01*
X90372492Y-90059791D02*
X90467730Y-90059791D01*
X90467730Y-90059791D02*
X90610587Y-90012172D01*
X90610587Y-90012172D02*
X90705825Y-89916933D01*
X90705825Y-89916933D02*
X90753444Y-89821695D01*
X90753444Y-89821695D02*
X90801063Y-89631219D01*
X90801063Y-89631219D02*
X90801063Y-89488362D01*
X90801063Y-89488362D02*
X90753444Y-89297886D01*
X90753444Y-89297886D02*
X90705825Y-89202648D01*
X90705825Y-89202648D02*
X90610587Y-89107410D01*
X90610587Y-89107410D02*
X90467730Y-89059791D01*
X90467730Y-89059791D02*
X90372492Y-89059791D01*
X90372492Y-89059791D02*
X90229635Y-89107410D01*
X90229635Y-89107410D02*
X90182016Y-89155029D01*
X89229635Y-90059791D02*
X89801063Y-90059791D01*
X89515349Y-90059791D02*
X89515349Y-89059791D01*
X89515349Y-89059791D02*
X89610587Y-89202648D01*
X89610587Y-89202648D02*
X89705825Y-89297886D01*
X89705825Y-89297886D02*
X89801063Y-89345505D01*
X88324873Y-89059791D02*
X88801063Y-89059791D01*
X88801063Y-89059791D02*
X88848682Y-89535981D01*
X88848682Y-89535981D02*
X88801063Y-89488362D01*
X88801063Y-89488362D02*
X88705825Y-89440743D01*
X88705825Y-89440743D02*
X88467730Y-89440743D01*
X88467730Y-89440743D02*
X88372492Y-89488362D01*
X88372492Y-89488362D02*
X88324873Y-89535981D01*
X88324873Y-89535981D02*
X88277254Y-89631219D01*
X88277254Y-89631219D02*
X88277254Y-89869314D01*
X88277254Y-89869314D02*
X88324873Y-89964552D01*
X88324873Y-89964552D02*
X88372492Y-90012172D01*
X88372492Y-90012172D02*
X88467730Y-90059791D01*
X88467730Y-90059791D02*
X88705825Y-90059791D01*
X88705825Y-90059791D02*
X88801063Y-90012172D01*
X88801063Y-90012172D02*
X88848682Y-89964552D01*
X92570112Y-47909847D02*
X92570112Y-46909847D01*
X92570112Y-46909847D02*
X92332017Y-46909847D01*
X92332017Y-46909847D02*
X92189160Y-46957466D01*
X92189160Y-46957466D02*
X92093922Y-47052704D01*
X92093922Y-47052704D02*
X92046303Y-47147942D01*
X92046303Y-47147942D02*
X91998684Y-47338418D01*
X91998684Y-47338418D02*
X91998684Y-47481275D01*
X91998684Y-47481275D02*
X92046303Y-47671751D01*
X92046303Y-47671751D02*
X92093922Y-47766989D01*
X92093922Y-47766989D02*
X92189160Y-47862228D01*
X92189160Y-47862228D02*
X92332017Y-47909847D01*
X92332017Y-47909847D02*
X92570112Y-47909847D01*
X91617731Y-47624132D02*
X91141541Y-47624132D01*
X91712969Y-47909847D02*
X91379636Y-46909847D01*
X91379636Y-46909847D02*
X91046303Y-47909847D01*
X90141541Y-47814608D02*
X90189160Y-47862228D01*
X90189160Y-47862228D02*
X90332017Y-47909847D01*
X90332017Y-47909847D02*
X90427255Y-47909847D01*
X90427255Y-47909847D02*
X90570112Y-47862228D01*
X90570112Y-47862228D02*
X90665350Y-47766989D01*
X90665350Y-47766989D02*
X90712969Y-47671751D01*
X90712969Y-47671751D02*
X90760588Y-47481275D01*
X90760588Y-47481275D02*
X90760588Y-47338418D01*
X90760588Y-47338418D02*
X90712969Y-47147942D01*
X90712969Y-47147942D02*
X90665350Y-47052704D01*
X90665350Y-47052704D02*
X90570112Y-46957466D01*
X90570112Y-46957466D02*
X90427255Y-46909847D01*
X90427255Y-46909847D02*
X90332017Y-46909847D01*
X90332017Y-46909847D02*
X90189160Y-46957466D01*
X90189160Y-46957466D02*
X90141541Y-47005085D01*
X89808207Y-46909847D02*
X89141541Y-46909847D01*
X89141541Y-46909847D02*
X89570112Y-47909847D01*
X92617731Y-49234076D02*
X92141541Y-49234076D01*
X92712969Y-49519791D02*
X92379636Y-48519791D01*
X92379636Y-48519791D02*
X92046303Y-49519791D01*
X91712969Y-49519791D02*
X91712969Y-48519791D01*
X91712969Y-48519791D02*
X91474874Y-48519791D01*
X91474874Y-48519791D02*
X91332017Y-48567410D01*
X91332017Y-48567410D02*
X91236779Y-48662648D01*
X91236779Y-48662648D02*
X91189160Y-48757886D01*
X91189160Y-48757886D02*
X91141541Y-48948362D01*
X91141541Y-48948362D02*
X91141541Y-49091219D01*
X91141541Y-49091219D02*
X91189160Y-49281695D01*
X91189160Y-49281695D02*
X91236779Y-49376933D01*
X91236779Y-49376933D02*
X91332017Y-49472172D01*
X91332017Y-49472172D02*
X91474874Y-49519791D01*
X91474874Y-49519791D02*
X91712969Y-49519791D01*
X90141541Y-49424552D02*
X90189160Y-49472172D01*
X90189160Y-49472172D02*
X90332017Y-49519791D01*
X90332017Y-49519791D02*
X90427255Y-49519791D01*
X90427255Y-49519791D02*
X90570112Y-49472172D01*
X90570112Y-49472172D02*
X90665350Y-49376933D01*
X90665350Y-49376933D02*
X90712969Y-49281695D01*
X90712969Y-49281695D02*
X90760588Y-49091219D01*
X90760588Y-49091219D02*
X90760588Y-48948362D01*
X90760588Y-48948362D02*
X90712969Y-48757886D01*
X90712969Y-48757886D02*
X90665350Y-48662648D01*
X90665350Y-48662648D02*
X90570112Y-48567410D01*
X90570112Y-48567410D02*
X90427255Y-48519791D01*
X90427255Y-48519791D02*
X90332017Y-48519791D01*
X90332017Y-48519791D02*
X90189160Y-48567410D01*
X90189160Y-48567410D02*
X90141541Y-48615029D01*
X89808207Y-48519791D02*
X89141541Y-48519791D01*
X89141541Y-48519791D02*
X89570112Y-49519791D01*
X92570112Y-37749847D02*
X92570112Y-36749847D01*
X92570112Y-36749847D02*
X92332017Y-36749847D01*
X92332017Y-36749847D02*
X92189160Y-36797466D01*
X92189160Y-36797466D02*
X92093922Y-36892704D01*
X92093922Y-36892704D02*
X92046303Y-36987942D01*
X92046303Y-36987942D02*
X91998684Y-37178418D01*
X91998684Y-37178418D02*
X91998684Y-37321275D01*
X91998684Y-37321275D02*
X92046303Y-37511751D01*
X92046303Y-37511751D02*
X92093922Y-37606989D01*
X92093922Y-37606989D02*
X92189160Y-37702228D01*
X92189160Y-37702228D02*
X92332017Y-37749847D01*
X92332017Y-37749847D02*
X92570112Y-37749847D01*
X91617731Y-37464132D02*
X91141541Y-37464132D01*
X91712969Y-37749847D02*
X91379636Y-36749847D01*
X91379636Y-36749847D02*
X91046303Y-37749847D01*
X90141541Y-37654608D02*
X90189160Y-37702228D01*
X90189160Y-37702228D02*
X90332017Y-37749847D01*
X90332017Y-37749847D02*
X90427255Y-37749847D01*
X90427255Y-37749847D02*
X90570112Y-37702228D01*
X90570112Y-37702228D02*
X90665350Y-37606989D01*
X90665350Y-37606989D02*
X90712969Y-37511751D01*
X90712969Y-37511751D02*
X90760588Y-37321275D01*
X90760588Y-37321275D02*
X90760588Y-37178418D01*
X90760588Y-37178418D02*
X90712969Y-36987942D01*
X90712969Y-36987942D02*
X90665350Y-36892704D01*
X90665350Y-36892704D02*
X90570112Y-36797466D01*
X90570112Y-36797466D02*
X90427255Y-36749847D01*
X90427255Y-36749847D02*
X90332017Y-36749847D01*
X90332017Y-36749847D02*
X90189160Y-36797466D01*
X90189160Y-36797466D02*
X90141541Y-36845085D01*
X89236779Y-36749847D02*
X89712969Y-36749847D01*
X89712969Y-36749847D02*
X89760588Y-37226037D01*
X89760588Y-37226037D02*
X89712969Y-37178418D01*
X89712969Y-37178418D02*
X89617731Y-37130799D01*
X89617731Y-37130799D02*
X89379636Y-37130799D01*
X89379636Y-37130799D02*
X89284398Y-37178418D01*
X89284398Y-37178418D02*
X89236779Y-37226037D01*
X89236779Y-37226037D02*
X89189160Y-37321275D01*
X89189160Y-37321275D02*
X89189160Y-37559370D01*
X89189160Y-37559370D02*
X89236779Y-37654608D01*
X89236779Y-37654608D02*
X89284398Y-37702228D01*
X89284398Y-37702228D02*
X89379636Y-37749847D01*
X89379636Y-37749847D02*
X89617731Y-37749847D01*
X89617731Y-37749847D02*
X89712969Y-37702228D01*
X89712969Y-37702228D02*
X89760588Y-37654608D01*
X92617731Y-39074076D02*
X92141541Y-39074076D01*
X92712969Y-39359791D02*
X92379636Y-38359791D01*
X92379636Y-38359791D02*
X92046303Y-39359791D01*
X91712969Y-39359791D02*
X91712969Y-38359791D01*
X91712969Y-38359791D02*
X91474874Y-38359791D01*
X91474874Y-38359791D02*
X91332017Y-38407410D01*
X91332017Y-38407410D02*
X91236779Y-38502648D01*
X91236779Y-38502648D02*
X91189160Y-38597886D01*
X91189160Y-38597886D02*
X91141541Y-38788362D01*
X91141541Y-38788362D02*
X91141541Y-38931219D01*
X91141541Y-38931219D02*
X91189160Y-39121695D01*
X91189160Y-39121695D02*
X91236779Y-39216933D01*
X91236779Y-39216933D02*
X91332017Y-39312172D01*
X91332017Y-39312172D02*
X91474874Y-39359791D01*
X91474874Y-39359791D02*
X91712969Y-39359791D01*
X90141541Y-39264552D02*
X90189160Y-39312172D01*
X90189160Y-39312172D02*
X90332017Y-39359791D01*
X90332017Y-39359791D02*
X90427255Y-39359791D01*
X90427255Y-39359791D02*
X90570112Y-39312172D01*
X90570112Y-39312172D02*
X90665350Y-39216933D01*
X90665350Y-39216933D02*
X90712969Y-39121695D01*
X90712969Y-39121695D02*
X90760588Y-38931219D01*
X90760588Y-38931219D02*
X90760588Y-38788362D01*
X90760588Y-38788362D02*
X90712969Y-38597886D01*
X90712969Y-38597886D02*
X90665350Y-38502648D01*
X90665350Y-38502648D02*
X90570112Y-38407410D01*
X90570112Y-38407410D02*
X90427255Y-38359791D01*
X90427255Y-38359791D02*
X90332017Y-38359791D01*
X90332017Y-38359791D02*
X90189160Y-38407410D01*
X90189160Y-38407410D02*
X90141541Y-38455029D01*
X89236779Y-38359791D02*
X89712969Y-38359791D01*
X89712969Y-38359791D02*
X89760588Y-38835981D01*
X89760588Y-38835981D02*
X89712969Y-38788362D01*
X89712969Y-38788362D02*
X89617731Y-38740743D01*
X89617731Y-38740743D02*
X89379636Y-38740743D01*
X89379636Y-38740743D02*
X89284398Y-38788362D01*
X89284398Y-38788362D02*
X89236779Y-38835981D01*
X89236779Y-38835981D02*
X89189160Y-38931219D01*
X89189160Y-38931219D02*
X89189160Y-39169314D01*
X89189160Y-39169314D02*
X89236779Y-39264552D01*
X89236779Y-39264552D02*
X89284398Y-39312172D01*
X89284398Y-39312172D02*
X89379636Y-39359791D01*
X89379636Y-39359791D02*
X89617731Y-39359791D01*
X89617731Y-39359791D02*
X89712969Y-39312172D01*
X89712969Y-39312172D02*
X89760588Y-39264552D01*
X92570112Y-52989847D02*
X92570112Y-51989847D01*
X92570112Y-51989847D02*
X92332017Y-51989847D01*
X92332017Y-51989847D02*
X92189160Y-52037466D01*
X92189160Y-52037466D02*
X92093922Y-52132704D01*
X92093922Y-52132704D02*
X92046303Y-52227942D01*
X92046303Y-52227942D02*
X91998684Y-52418418D01*
X91998684Y-52418418D02*
X91998684Y-52561275D01*
X91998684Y-52561275D02*
X92046303Y-52751751D01*
X92046303Y-52751751D02*
X92093922Y-52846989D01*
X92093922Y-52846989D02*
X92189160Y-52942228D01*
X92189160Y-52942228D02*
X92332017Y-52989847D01*
X92332017Y-52989847D02*
X92570112Y-52989847D01*
X91617731Y-52704132D02*
X91141541Y-52704132D01*
X91712969Y-52989847D02*
X91379636Y-51989847D01*
X91379636Y-51989847D02*
X91046303Y-52989847D01*
X90141541Y-52894608D02*
X90189160Y-52942228D01*
X90189160Y-52942228D02*
X90332017Y-52989847D01*
X90332017Y-52989847D02*
X90427255Y-52989847D01*
X90427255Y-52989847D02*
X90570112Y-52942228D01*
X90570112Y-52942228D02*
X90665350Y-52846989D01*
X90665350Y-52846989D02*
X90712969Y-52751751D01*
X90712969Y-52751751D02*
X90760588Y-52561275D01*
X90760588Y-52561275D02*
X90760588Y-52418418D01*
X90760588Y-52418418D02*
X90712969Y-52227942D01*
X90712969Y-52227942D02*
X90665350Y-52132704D01*
X90665350Y-52132704D02*
X90570112Y-52037466D01*
X90570112Y-52037466D02*
X90427255Y-51989847D01*
X90427255Y-51989847D02*
X90332017Y-51989847D01*
X90332017Y-51989847D02*
X90189160Y-52037466D01*
X90189160Y-52037466D02*
X90141541Y-52085085D01*
X89570112Y-52418418D02*
X89665350Y-52370799D01*
X89665350Y-52370799D02*
X89712969Y-52323180D01*
X89712969Y-52323180D02*
X89760588Y-52227942D01*
X89760588Y-52227942D02*
X89760588Y-52180323D01*
X89760588Y-52180323D02*
X89712969Y-52085085D01*
X89712969Y-52085085D02*
X89665350Y-52037466D01*
X89665350Y-52037466D02*
X89570112Y-51989847D01*
X89570112Y-51989847D02*
X89379636Y-51989847D01*
X89379636Y-51989847D02*
X89284398Y-52037466D01*
X89284398Y-52037466D02*
X89236779Y-52085085D01*
X89236779Y-52085085D02*
X89189160Y-52180323D01*
X89189160Y-52180323D02*
X89189160Y-52227942D01*
X89189160Y-52227942D02*
X89236779Y-52323180D01*
X89236779Y-52323180D02*
X89284398Y-52370799D01*
X89284398Y-52370799D02*
X89379636Y-52418418D01*
X89379636Y-52418418D02*
X89570112Y-52418418D01*
X89570112Y-52418418D02*
X89665350Y-52466037D01*
X89665350Y-52466037D02*
X89712969Y-52513656D01*
X89712969Y-52513656D02*
X89760588Y-52608894D01*
X89760588Y-52608894D02*
X89760588Y-52799370D01*
X89760588Y-52799370D02*
X89712969Y-52894608D01*
X89712969Y-52894608D02*
X89665350Y-52942228D01*
X89665350Y-52942228D02*
X89570112Y-52989847D01*
X89570112Y-52989847D02*
X89379636Y-52989847D01*
X89379636Y-52989847D02*
X89284398Y-52942228D01*
X89284398Y-52942228D02*
X89236779Y-52894608D01*
X89236779Y-52894608D02*
X89189160Y-52799370D01*
X89189160Y-52799370D02*
X89189160Y-52608894D01*
X89189160Y-52608894D02*
X89236779Y-52513656D01*
X89236779Y-52513656D02*
X89284398Y-52466037D01*
X89284398Y-52466037D02*
X89379636Y-52418418D01*
X92617731Y-54314076D02*
X92141541Y-54314076D01*
X92712969Y-54599791D02*
X92379636Y-53599791D01*
X92379636Y-53599791D02*
X92046303Y-54599791D01*
X91712969Y-54599791D02*
X91712969Y-53599791D01*
X91712969Y-53599791D02*
X91474874Y-53599791D01*
X91474874Y-53599791D02*
X91332017Y-53647410D01*
X91332017Y-53647410D02*
X91236779Y-53742648D01*
X91236779Y-53742648D02*
X91189160Y-53837886D01*
X91189160Y-53837886D02*
X91141541Y-54028362D01*
X91141541Y-54028362D02*
X91141541Y-54171219D01*
X91141541Y-54171219D02*
X91189160Y-54361695D01*
X91189160Y-54361695D02*
X91236779Y-54456933D01*
X91236779Y-54456933D02*
X91332017Y-54552172D01*
X91332017Y-54552172D02*
X91474874Y-54599791D01*
X91474874Y-54599791D02*
X91712969Y-54599791D01*
X90141541Y-54504552D02*
X90189160Y-54552172D01*
X90189160Y-54552172D02*
X90332017Y-54599791D01*
X90332017Y-54599791D02*
X90427255Y-54599791D01*
X90427255Y-54599791D02*
X90570112Y-54552172D01*
X90570112Y-54552172D02*
X90665350Y-54456933D01*
X90665350Y-54456933D02*
X90712969Y-54361695D01*
X90712969Y-54361695D02*
X90760588Y-54171219D01*
X90760588Y-54171219D02*
X90760588Y-54028362D01*
X90760588Y-54028362D02*
X90712969Y-53837886D01*
X90712969Y-53837886D02*
X90665350Y-53742648D01*
X90665350Y-53742648D02*
X90570112Y-53647410D01*
X90570112Y-53647410D02*
X90427255Y-53599791D01*
X90427255Y-53599791D02*
X90332017Y-53599791D01*
X90332017Y-53599791D02*
X90189160Y-53647410D01*
X90189160Y-53647410D02*
X90141541Y-53695029D01*
X89570112Y-54028362D02*
X89665350Y-53980743D01*
X89665350Y-53980743D02*
X89712969Y-53933124D01*
X89712969Y-53933124D02*
X89760588Y-53837886D01*
X89760588Y-53837886D02*
X89760588Y-53790267D01*
X89760588Y-53790267D02*
X89712969Y-53695029D01*
X89712969Y-53695029D02*
X89665350Y-53647410D01*
X89665350Y-53647410D02*
X89570112Y-53599791D01*
X89570112Y-53599791D02*
X89379636Y-53599791D01*
X89379636Y-53599791D02*
X89284398Y-53647410D01*
X89284398Y-53647410D02*
X89236779Y-53695029D01*
X89236779Y-53695029D02*
X89189160Y-53790267D01*
X89189160Y-53790267D02*
X89189160Y-53837886D01*
X89189160Y-53837886D02*
X89236779Y-53933124D01*
X89236779Y-53933124D02*
X89284398Y-53980743D01*
X89284398Y-53980743D02*
X89379636Y-54028362D01*
X89379636Y-54028362D02*
X89570112Y-54028362D01*
X89570112Y-54028362D02*
X89665350Y-54075981D01*
X89665350Y-54075981D02*
X89712969Y-54123600D01*
X89712969Y-54123600D02*
X89760588Y-54218838D01*
X89760588Y-54218838D02*
X89760588Y-54409314D01*
X89760588Y-54409314D02*
X89712969Y-54504552D01*
X89712969Y-54504552D02*
X89665350Y-54552172D01*
X89665350Y-54552172D02*
X89570112Y-54599791D01*
X89570112Y-54599791D02*
X89379636Y-54599791D01*
X89379636Y-54599791D02*
X89284398Y-54552172D01*
X89284398Y-54552172D02*
X89236779Y-54504552D01*
X89236779Y-54504552D02*
X89189160Y-54409314D01*
X89189160Y-54409314D02*
X89189160Y-54218838D01*
X89189160Y-54218838D02*
X89236779Y-54123600D01*
X89236779Y-54123600D02*
X89284398Y-54075981D01*
X89284398Y-54075981D02*
X89379636Y-54028362D01*
M02*
