M48
; DRILL file {KiCad 8.0.7-8.0.7-0~ubuntu22.04.1} date 2025-01-13T14:39:22-0800
; FORMAT={-:-/ absolute / inch / decimal}
; #@! TF.CreationDate,2025-01-13T14:39:22-08:00
; #@! TF.GenerationSoftware,Kicad,Pcbnew,8.0.7-8.0.7-0~ubuntu22.04.1
; #@! TF.FileFunction,Plated,1,6,PTH
FMAT,2
INCH
; #@! TA.AperFunction,Plated,PTH,ViaDrill
T1C0.0118
; #@! TA.AperFunction,Plated,PTH,ComponentDrill
T2C0.0130
; #@! TA.AperFunction,Plated,PTH,ComponentDrill
T3C0.0315
; #@! TA.AperFunction,Plated,PTH,ComponentDrill
T4C0.0394
; #@! TA.AperFunction,Plated,PTH,ComponentDrill
T5C0.0433
; #@! TA.AperFunction,Plated,PTH,ComponentDrill
T6C0.1260
%
G90
G05
T1
X0.08Y-1.9138
X0.09Y-2.1038
X0.1Y-3.1438
X0.11Y-2.0338
X0.125Y-2.2638
X0.125Y-2.315
X0.14Y-2.2138
X0.14Y-3.1738
X0.1461Y-2.5538
X0.1575Y-3.5472
X0.16Y-3.3438
X0.17Y-2.8938
X0.1936Y-3.0638
X0.1954Y-2.5038
X0.2041Y-2.3343
X0.21Y-1.3838
X0.2165Y-3.5236
X0.219Y-2.8938
X0.22Y-3.3438
X0.2209Y-2.5438
X0.2359Y-2.3343
X0.2465Y-2.5038
X0.248Y-2.9134
X0.26Y-3.0638
X0.28Y-3.32
X0.29Y-2.0238
X0.3Y-2.2638
X0.3Y-2.3228
X0.3Y-2.8938
X0.3Y-3.0638
X0.34Y-3.1538
X0.34Y-3.37
X0.35Y-2.0738
X0.3636Y-2.2129
X0.3663Y-2.1438
X0.3785Y-1.7453
X0.38Y-3.4738
X0.41Y-1.8838
X0.49Y-1.9138
X0.5Y-2.1038
X0.51Y-3.1438
X0.52Y-2.0338
X0.5315Y-2.2677
X0.5315Y-2.3189
X0.55Y-1.06
X0.55Y-2.2138
X0.55Y-3.1738
X0.5561Y-2.5538
X0.57Y-3.3438
X0.5709Y-3.5748
X0.58Y-2.8938
X0.59Y-1.06
X0.6036Y-3.0638
X0.6054Y-2.5038
X0.6141Y-2.3343
X0.62Y-1.3838
X0.625Y-1.06
X0.626Y-3.5394
X0.629Y-2.8938
X0.63Y-3.3438
X0.6309Y-2.5438
X0.6459Y-2.3343
X0.6555Y-0.76
X0.6555Y-0.84
X0.6565Y-2.5038
X0.6575Y-2.9134
X0.67Y-3.0638
X0.69Y-3.33
X0.7Y-0.725
X0.7Y-2.0238
X0.71Y-2.8938
X0.71Y-3.0638
X0.7185Y-2.252
X0.7185Y-2.2913
X0.75Y-3.1538
X0.75Y-3.37
X0.76Y-2.0738
X0.7736Y-2.2129
X0.7763Y-2.1438
X0.7885Y-1.7453
X0.79Y-3.4738
X0.82Y-1.8838
X0.89Y-1.9138
X0.9Y-2.1038
X0.91Y-3.1438
X0.92Y-2.0338
X0.9315Y-2.2874
X0.9315Y-2.3268
X0.9362Y-0.8362
X0.95Y-2.2138
X0.95Y-3.1738
X0.9561Y-2.5538
X0.9612Y-0.8112
X0.9646Y-3.5472
X0.97Y-3.3438
X0.98Y-2.8938
X0.9862Y-0.7862
X1.0036Y-3.0638
X1.0054Y-2.5038
X1.0112Y-0.7612
X1.0141Y-2.3343
X1.02Y-1.3838
X1.029Y-2.8938
X1.03Y-3.3438
X1.0309Y-2.5438
X1.0354Y-3.5236
X1.0459Y-2.3343
X1.05Y-0.75
X1.0565Y-2.5038
X1.0589Y-2.9096
X1.07Y-3.0638
X1.09Y-3.33
X1.0986Y-2.2362
X1.0986Y-2.2756
X1.1Y-2.0238
X1.11Y-2.8938
X1.11Y-3.0638
X1.125Y-0.55
X1.15Y-0.525
X1.15Y-3.1538
X1.15Y-3.37
X1.16Y-2.0738
X1.1736Y-2.2129
X1.175Y-0.5
X1.1763Y-2.1438
X1.18Y-0.75
X1.1885Y-1.7453
X1.19Y-3.4738
X1.2Y-0.475
X1.22Y-1.8838
X1.225Y-0.45
X1.24Y-0.75
X1.25Y-0.425
X1.275Y-0.4
X1.3038Y-0.7338
X1.3038Y-1.9138
X1.3138Y-2.1038
X1.3238Y-3.1438
X1.3338Y-2.0338
X1.35Y-0.76
X1.3583Y-2.2677
X1.3583Y-2.3189
X1.3638Y-2.2138
X1.3638Y-3.1738
X1.37Y-2.5538
X1.3812Y-0.7312
X1.3838Y-3.3438
X1.3858Y-3.5551
X1.3938Y-2.8938
X1.41Y-0.6262
X1.4174Y-3.0638
X1.4192Y-2.5038
X1.4279Y-2.3343
X1.4338Y-1.3838
X1.4409Y-3.5236
X1.4428Y-2.8938
X1.4438Y-3.3438
X1.4448Y-2.5438
X1.45Y-0.6262
X1.45Y-0.7
X1.4597Y-2.3343
X1.4704Y-2.5038
X1.471Y-2.9079
X1.4838Y-3.0638
X1.5038Y-3.32
X1.5138Y-2.0238
X1.5238Y-2.8938
X1.5238Y-3.0638
X1.5276Y-2.2677
X1.5276Y-2.3228
X1.5638Y-3.1538
X1.5638Y-3.36
X1.5738Y-2.0738
X1.5874Y-2.2129
X1.5902Y-2.1438
X1.6023Y-1.7453
X1.6038Y-3.4738
X1.6338Y-1.8838
X1.7038Y-1.9138
X1.7138Y-2.1038
X1.7238Y-3.1438
X1.7338Y-2.0338
X1.7598Y-2.2677
X1.7598Y-2.3268
X1.7638Y-2.2138
X1.7638Y-3.1738
X1.77Y-2.5538
X1.7838Y-3.3438
X1.7874Y-3.5748
X1.7938Y-2.8938
X1.8174Y-3.0638
X1.8192Y-2.5038
X1.8279Y-2.3343
X1.8338Y-1.3838
X1.8425Y-3.5354
X1.8428Y-2.8938
X1.8438Y-3.3438
X1.8448Y-2.5438
X1.8597Y-2.3343
X1.8704Y-2.5038
X1.871Y-2.9079
X1.8838Y-3.0638
X1.9038Y-3.3228
X1.9138Y-2.0238
X1.9238Y-2.8938
X1.9238Y-3.0638
X1.9291Y-2.2559
X1.9291Y-2.311
X1.9638Y-3.1538
X1.9638Y-3.37
X1.9738Y-2.0738
X1.9874Y-2.2129
X1.9902Y-2.1438
X2.0023Y-1.7453
X2.0038Y-3.4738
X2.0338Y-1.8838
X2.1038Y-1.9138
X2.1138Y-2.1038
X2.1238Y-3.1438
X2.1338Y-2.0338
X2.1575Y-2.2638
X2.1575Y-2.315
X2.1638Y-2.2138
X2.1638Y-3.1738
X2.17Y-2.5538
X2.1838Y-3.3438
X2.189Y-3.5512
X2.1938Y-2.8938
X2.2174Y-3.0638
X2.2192Y-2.5038
X2.2279Y-2.3343
X2.2338Y-1.3838
X2.2362Y-3.5276
X2.2428Y-2.8938
X2.2438Y-3.3438
X2.2448Y-2.5438
X2.2597Y-2.3343
X2.2703Y-2.9091
X2.2704Y-2.5038
X2.2838Y-3.0638
X2.3038Y-3.32
X2.3138Y-2.0238
X2.3238Y-2.8938
X2.3238Y-3.0638
X2.3268Y-2.2559
X2.3268Y-2.311
X2.3638Y-3.1538
X2.3638Y-3.37
X2.3738Y-2.0738
X2.3874Y-2.2129
X2.3902Y-2.1438
X2.4023Y-1.7453
X2.4038Y-3.4738
X2.4338Y-1.8838
X2.5038Y-1.9138
X2.5138Y-2.1038
X2.5238Y-3.1438
X2.5338Y-2.0338
X2.5551Y-2.2598
X2.5551Y-2.315
X2.5638Y-2.2138
X2.5638Y-3.1738
X2.57Y-2.5538
X2.5827Y-3.5433
X2.5838Y-3.3438
X2.5938Y-2.8938
X2.6174Y-3.0638
X2.6192Y-2.5038
X2.6279Y-2.3343
X2.6338Y-1.3838
X2.6417Y-3.5197
X2.6428Y-2.8938
X2.6438Y-3.3438
X2.6448Y-2.5438
X2.6597Y-2.3343
X2.6704Y-2.5038
X2.671Y-2.9079
X2.6838Y-3.0638
X2.7038Y-3.32
X2.7138Y-2.0238
X2.7238Y-2.8938
X2.7238Y-3.0638
X2.7323Y-2.2559
X2.7323Y-2.3189
X2.7638Y-3.1538
X2.7638Y-3.37
X2.7738Y-2.0738
X2.7874Y-2.2129
X2.7902Y-2.1438
X2.8023Y-1.7453
X2.8038Y-3.4738
X2.8338Y-1.8838
X2.9038Y-1.9138
X2.9138Y-2.1038
X2.9238Y-3.1438
X2.9338Y-2.0338
X2.9567Y-2.2677
X2.9567Y-2.3228
X2.9638Y-2.2138
X2.9638Y-3.1738
X2.97Y-2.5538
X2.9838Y-3.3438
X2.9843Y-3.5236
X2.9938Y-2.8938
X3.0174Y-3.0638
X3.0192Y-2.5038
X3.0279Y-2.3343
X3.0338Y-1.3838
X3.0428Y-2.8938
X3.0433Y-3.5236
X3.0438Y-3.3438
X3.0448Y-2.5438
X3.0597Y-2.3343
X3.0704Y-2.5038
X3.0737Y-2.9106
X3.0838Y-3.0638
X3.1047Y-3.3771
X3.1138Y-2.0238
X3.1238Y-2.8938
X3.1238Y-3.0638
X3.1299Y-2.2598
X3.1299Y-2.315
X3.1638Y-3.1538
X3.1738Y-2.0738
X3.1874Y-2.2129
X3.1902Y-2.1438
X3.2023Y-1.7453
X3.2038Y-3.4738
X3.2338Y-1.8838
X3.25Y-3.55
T2
X0.1619Y-2.6898
X0.1619Y-2.7488
X0.2209Y-2.6898
X0.2209Y-2.7488
X0.28Y-2.6898
X0.28Y-2.7488
X0.5719Y-2.6898
X0.5719Y-2.7488
X0.6309Y-2.6898
X0.6309Y-2.7488
X0.69Y-2.6898
X0.69Y-2.7488
X0.9719Y-2.6898
X0.9719Y-2.7488
X1.0309Y-2.6898
X1.0309Y-2.7488
X1.09Y-2.6898
X1.09Y-2.7488
X1.3857Y-2.6898
X1.3857Y-2.7488
X1.4448Y-2.6898
X1.4448Y-2.7488
X1.5038Y-2.6898
X1.5038Y-2.7488
X1.7857Y-2.6898
X1.7857Y-2.7488
X1.8448Y-2.6898
X1.8448Y-2.7488
X1.9038Y-2.6898
X1.9038Y-2.7488
X2.1857Y-2.6898
X2.1857Y-2.7488
X2.2448Y-2.6898
X2.2448Y-2.7488
X2.3038Y-2.6898
X2.3038Y-2.7488
X2.5857Y-2.6898
X2.5857Y-2.7488
X2.6448Y-2.6898
X2.6448Y-2.7488
X2.7038Y-2.6898
X2.7038Y-2.7488
X2.9857Y-2.6898
X2.9857Y-2.7488
X3.0448Y-2.6898
X3.0448Y-2.7488
X3.1038Y-2.6898
X3.1038Y-2.7488
T3
X0.35Y-1.025
X0.35Y-1.1234
T4
X0.5Y-3.75
X0.5Y-3.85
X0.6Y-3.75
X0.6Y-3.85
X0.7Y-3.75
X0.7Y-3.85
X0.8Y-3.75
X0.8Y-3.85
X1.3498Y-0.4
X1.4498Y-0.4
X1.9685Y-0.4
X1.9685Y-0.5
X2.0685Y-0.4
X2.0685Y-0.5
X2.1685Y-0.4
X2.1685Y-0.5
X2.2685Y-0.4
X2.2685Y-0.5
X2.3685Y-0.4
X2.3685Y-0.5
X2.45Y-3.75
X2.45Y-3.85
X2.4685Y-0.4
X2.4685Y-0.5
X2.55Y-3.75
X2.55Y-3.85
X2.5685Y-0.4
X2.5685Y-0.5
X2.65Y-3.75
X2.65Y-3.85
X2.6685Y-0.4
X2.6685Y-0.5
X2.75Y-3.75
X2.75Y-3.85
X2.7685Y-0.4
X2.7685Y-0.5
X2.85Y-3.75
X2.85Y-3.85
X2.8685Y-0.4
X2.8685Y-0.5
X2.95Y-3.75
X2.95Y-3.85
X2.9685Y-0.4
X2.9685Y-0.5
X3.05Y-3.75
X3.05Y-3.85
X3.0685Y-0.4
X3.0685Y-0.5
X3.15Y-3.75
X3.15Y-3.85
X3.1685Y-0.4
X3.1685Y-0.5
X3.2685Y-0.4
X3.2685Y-0.5
X3.3685Y-0.4
X3.3685Y-0.5
X3.4685Y-0.4
X3.4685Y-0.5
X3.75Y-0.45
X3.75Y-0.55
X3.75Y-0.65
X3.75Y-0.75
X3.75Y-0.85
X3.75Y-0.95
X3.75Y-1.05
X3.75Y-1.15
X3.75Y-1.25
X3.75Y-1.35
X3.75Y-1.45
X3.75Y-1.55
X3.75Y-1.65
X3.75Y-1.75
X3.75Y-1.85
X3.75Y-1.95
X3.75Y-2.05
X3.75Y-2.15
X3.75Y-2.25
X3.75Y-2.35
X3.75Y-2.45
X3.75Y-2.55
X3.75Y-2.65
X3.75Y-2.75
X3.75Y-2.85
X3.75Y-2.95
X3.75Y-3.05
X3.75Y-3.15
X3.75Y-3.25
X3.75Y-3.35
X3.75Y-3.45
X3.75Y-3.55
X3.85Y-0.45
X3.85Y-0.55
X3.85Y-0.65
X3.85Y-0.75
X3.85Y-0.85
X3.85Y-0.95
X3.85Y-1.05
X3.85Y-1.15
X3.85Y-1.25
X3.85Y-1.35
X3.85Y-1.45
X3.85Y-1.55
X3.85Y-1.65
X3.85Y-1.75
X3.85Y-1.85
X3.85Y-1.95
X3.85Y-2.05
X3.85Y-2.15
X3.85Y-2.25
X3.85Y-2.35
X3.85Y-2.45
X3.85Y-2.55
X3.85Y-2.65
X3.85Y-2.75
X3.85Y-2.85
X3.85Y-2.95
X3.85Y-3.05
X3.85Y-3.15
X3.85Y-3.25
X3.85Y-3.35
X3.85Y-3.45
X3.85Y-3.55
T5
X0.15Y-0.5
X0.15Y-0.9
T6
X0.2Y-0.2
X0.2Y-3.8
X3.8Y-0.2
X3.8Y-3.8
T4
G00X0.6228Y-0.2539
M15
G01X0.6228Y-0.1949
M16
G05
G00X0.8256Y-0.2638
M15
G01X0.7744Y-0.2638
M16
G05
G00X0.8394Y-0.5
M15
G01X0.7606Y-0.5
M16
G05
G00X0.9772Y-0.2539
M15
G01X0.9772Y-0.1949
M16
G05
M30
