%TF.GenerationSoftware,KiCad,Pcbnew,8.0.7-8.0.7-0~ubuntu22.04.1*%
%TF.CreationDate,2025-01-13T14:39:21-08:00*%
%TF.ProjectId,multichannelheaterdriver_frontend,6d756c74-6963-4686-916e-6e656c686561,rev?*%
%TF.SameCoordinates,Original*%
%TF.FileFunction,Soldermask,Bot*%
%TF.FilePolarity,Negative*%
%FSLAX46Y46*%
G04 Gerber Fmt 4.6, Leading zero omitted, Abs format (unit mm)*
G04 Created by KiCad (PCBNEW 8.0.7-8.0.7-0~ubuntu22.04.1) date 2025-01-13 14:39:21*
%MOMM*%
%LPD*%
G01*
G04 APERTURE LIST*
%ADD10R,1.700000X1.700000*%
%ADD11O,1.700000X1.700000*%
%ADD12C,0.644000*%
%ADD13R,2.200000X2.200000*%
%ADD14O,2.200000X2.200000*%
%ADD15R,1.600000X1.600000*%
%ADD16C,1.600000*%
%ADD17R,4.000000X2.000000*%
%ADD18O,3.300000X2.000000*%
%ADD19O,2.000000X3.500000*%
%ADD20C,6.400000*%
G04 APERTURE END LIST*
D10*
%TO.C,J1*%
X97790000Y-90170000D03*
D11*
X95250000Y-90170000D03*
X97790000Y-87630000D03*
X95250000Y-87630000D03*
X97790000Y-85090000D03*
X95250000Y-85090000D03*
X97790000Y-82550000D03*
X95250000Y-82550000D03*
X97790000Y-80010000D03*
X95250000Y-80010000D03*
X97790000Y-77470000D03*
X95250000Y-77470000D03*
X97790000Y-74930000D03*
X95250000Y-74930000D03*
X97790000Y-72390000D03*
X95250000Y-72390000D03*
X97790000Y-69850000D03*
X95250000Y-69850000D03*
X97790000Y-67310000D03*
X95250000Y-67310000D03*
X97790000Y-64770000D03*
X95250000Y-64770000D03*
X97790000Y-62230000D03*
X95250000Y-62230000D03*
X97790000Y-59690000D03*
X95250000Y-59690000D03*
X97790000Y-57150000D03*
X95250000Y-57150000D03*
X97790000Y-54610000D03*
X95250000Y-54610000D03*
X97790000Y-52070000D03*
X95250000Y-52070000D03*
X97790000Y-49530000D03*
X95250000Y-49530000D03*
X97790000Y-46990000D03*
X95250000Y-46990000D03*
X97790000Y-44450000D03*
X95250000Y-44450000D03*
X97790000Y-41910000D03*
X95250000Y-41910000D03*
X97790000Y-39370000D03*
X95250000Y-39370000D03*
X97790000Y-36830000D03*
X95250000Y-36830000D03*
X97790000Y-34290000D03*
X95250000Y-34290000D03*
X97790000Y-31750000D03*
X95250000Y-31750000D03*
X97790000Y-29210000D03*
X95250000Y-29210000D03*
X97790000Y-26670000D03*
X95250000Y-26670000D03*
X97790000Y-24130000D03*
X95250000Y-24130000D03*
X97790000Y-21590000D03*
X95250000Y-21590000D03*
X97790000Y-19050000D03*
X95250000Y-19050000D03*
X97790000Y-16510000D03*
X95250000Y-16510000D03*
X97790000Y-13970000D03*
X95250000Y-13970000D03*
X97790000Y-11430000D03*
X95250000Y-11430000D03*
%TD*%
D12*
%TO.C,U9*%
X26186000Y-69820000D03*
X26186000Y-68320000D03*
%TD*%
D13*
%TO.C,D1*%
X3810000Y-22860000D03*
D14*
X3810000Y-12700000D03*
%TD*%
D15*
%TO.C,C3*%
X8890000Y-26035000D03*
D16*
X8890000Y-28535000D03*
%TD*%
D10*
%TO.C,J11*%
X12700000Y-97790000D03*
D11*
X12700000Y-95250000D03*
X15240000Y-97790000D03*
X15240000Y-95250000D03*
X17780000Y-97790000D03*
X17780000Y-95250000D03*
X20320000Y-97790000D03*
X20320000Y-95250000D03*
%TD*%
D16*
%TO.C,J12*%
X20320000Y-3700000D03*
D17*
X20320000Y-12700000D03*
D18*
X20320000Y-6700000D03*
D19*
X24820000Y-5700000D03*
X15820000Y-5700000D03*
%TD*%
D12*
%TO.C,U21*%
X67177000Y-69820000D03*
X67177000Y-68320000D03*
%TD*%
D10*
%TO.C,J2*%
X62230000Y-97790000D03*
D11*
X62230000Y-95250000D03*
X64770000Y-97790000D03*
X64770000Y-95250000D03*
X67310000Y-97790000D03*
X67310000Y-95250000D03*
X69850000Y-97790000D03*
X69850000Y-95250000D03*
X72390000Y-97790000D03*
X72390000Y-95250000D03*
X74930000Y-97790000D03*
X74930000Y-95250000D03*
X77470000Y-97790000D03*
X77470000Y-95250000D03*
X80010000Y-97790000D03*
X80010000Y-95250000D03*
%TD*%
D12*
%TO.C,U15*%
X46857000Y-69820000D03*
X46857000Y-68320000D03*
%TD*%
D20*
%TO.C,H1*%
X5080000Y-5080000D03*
%TD*%
D12*
%TO.C,U18*%
X57017000Y-69820000D03*
X57017000Y-68320000D03*
%TD*%
D20*
%TO.C,H2*%
X5080000Y-96520000D03*
%TD*%
D10*
%TO.C,J13*%
X34285000Y-10160000D03*
D11*
X36825000Y-10160000D03*
%TD*%
D10*
%TO.C,J10*%
X50000000Y-12700000D03*
D11*
X50000000Y-10160000D03*
X52540000Y-12700000D03*
X52540000Y-10160000D03*
X55080000Y-12700000D03*
X55080000Y-10160000D03*
X57620000Y-12700000D03*
X57620000Y-10160000D03*
X60160000Y-12700000D03*
X60160000Y-10160000D03*
X62700000Y-12700000D03*
X62700000Y-10160000D03*
X65240000Y-12700000D03*
X65240000Y-10160000D03*
X67780000Y-12700000D03*
X67780000Y-10160000D03*
X70320000Y-12700000D03*
X70320000Y-10160000D03*
X72860000Y-12700000D03*
X72860000Y-10160000D03*
X75400000Y-12700000D03*
X75400000Y-10160000D03*
X77940000Y-12700000D03*
X77940000Y-10160000D03*
X80480000Y-12700000D03*
X80480000Y-10160000D03*
X83020000Y-12700000D03*
X83020000Y-10160000D03*
X85560000Y-12700000D03*
X85560000Y-10160000D03*
X88100000Y-12700000D03*
X88100000Y-10160000D03*
%TD*%
D20*
%TO.C,H4*%
X96520000Y-96520000D03*
%TD*%
D12*
%TO.C,U12*%
X36697000Y-69820000D03*
X36697000Y-68320000D03*
%TD*%
%TO.C,U24*%
X77337000Y-69820000D03*
X77337000Y-68320000D03*
%TD*%
%TO.C,U3*%
X5612000Y-69820000D03*
X5612000Y-68320000D03*
%TD*%
%TO.C,U6*%
X16026000Y-69820000D03*
X16026000Y-68320000D03*
%TD*%
D20*
%TO.C,H3*%
X96520000Y-5080000D03*
%TD*%
M02*
